<svg id="attended_event_icon" xmlns="http://www.w3.org/2000/svg" width="38.117" height="37.784" viewBox="0 0 38.117 37.784">
  <g id="Group_2229" data-name="Group 2229">
    <g id="Group_2228" data-name="Group 2228">
      <path id="Path_7304" data-name="Path 7304" d="M66.524,8.178c8.872,0,16.065,6.945,16.065,15.512S75.4,39.2,66.524,39.2,50.459,32.256,50.459,23.69,57.652,8.178,66.524,8.178" transform="translate(-50.459 -8.178)" fill="#6b1a73"/>
      <path id="Path_7305" data-name="Path 7305" d="M84.446,22.5h0a5.958,5.958,0,0,0-3.475-3.926,3.394,3.394,0,0,0,1.594-3.986,3.358,3.358,0,0,0-6.378-.059,3.405,3.405,0,0,0,1.571,4.043,4.945,4.945,0,0,0-3.469,3.926c-.03.258-.035,1.04-.035,1.04a7.828,7.828,0,0,0,10.34-.111Zm-7.637-6.917a2.557,2.557,0,0,1,5.115.043v.013a2.545,2.545,0,0,1-2.568,2.522h-.011a2.557,2.557,0,0,1-2.535-2.578m6.5,7.894a6.769,6.769,0,0,1-3.205,1.163c-.1.01-.2.03-.3.033H79.36a6.982,6.982,0,0,1-4.2-1.369.276.276,0,0,1-.139-.288,4.364,4.364,0,0,1,8.622-.35c.119.6.2.445-.333.813" transform="translate(-63.289 -10.372)" fill="#fff"/>
      <rect id="Rectangle_1135" data-name="Rectangle 1135" width="15.383" height="4.733" transform="translate(9.378 11.833)" fill="#6b1a73"/>
      <path id="Path_7306" data-name="Path 7306" d="M64.531,40.365h0A5.719,5.719,0,0,0,61.194,36.6a3.259,3.259,0,0,0,1.531-3.826,3.222,3.222,0,0,0-6.121-.057,3.267,3.267,0,0,0,1.508,3.88,4.747,4.747,0,0,0-3.33,3.768c-.029.248-.034,1-.034,1a7.514,7.514,0,0,0,9.924-.107ZM57.2,33.725a2.46,2.46,0,0,1,4.909.042v.012a2.443,2.443,0,0,1-2.46,2.42h-.011A2.46,2.46,0,0,1,57.2,33.724M63.447,41.3a6.5,6.5,0,0,1-3.076,1.117c-.1.01-.195.029-.293.032H59.65a6.706,6.706,0,0,1-4.022-1.316.265.265,0,0,1-.134-.277,4.19,4.19,0,0,1,8.277-.336c.114.576.194.428-.321.781" transform="translate(-52.773 -20.228)" fill="#fff"/>
      <path id="Path_7307" data-name="Path 7307" d="M104.607,40.3h0a5.739,5.739,0,0,0-3.348-3.78,3.27,3.27,0,0,0,1.537-3.839,3.233,3.233,0,0,0-6.143-.057,3.281,3.281,0,0,0,1.513,3.894,4.764,4.764,0,0,0-3.342,3.78c-.029.249-.034,1-.034,1a7.54,7.54,0,0,0,9.959-.107ZM97.25,33.64a2.468,2.468,0,0,1,4.927.041v.013a2.451,2.451,0,0,1-2.468,2.428H99.7a2.468,2.468,0,0,1-2.442-2.484m6.265,7.606a6.517,6.517,0,0,1-3.087,1.12c-.1.01-.2.029-.294.032H99.71a6.728,6.728,0,0,1-4.036-1.321.266.266,0,0,1-.135-.278,4.2,4.2,0,0,1,8.306-.337c.115.578.194.429-.322.783" transform="translate(-74.363 -20.177)" fill="#fff"/>
      <path id="Path_7308" data-name="Path 7308" d="M51.963,50.391l13.418.665v3.55L54.59,54.179Z" transform="translate(-51.271 -30.939)" fill="#6b1a73"/>
      <path id="Path_7309" data-name="Path 7309" d="M88.786,51.834l13.361.031-2.523,3.409-10.838.11Z" transform="translate(-71.125 -31.717)" fill="#6b1a73"/>
      <path id="Path_7310" data-name="Path 7310" d="M84.352,52.2h0a6.447,6.447,0,0,0-3.767-4.248,3.674,3.674,0,0,0,1.727-4.314,3.634,3.634,0,0,0-6.905-.064,3.685,3.685,0,0,0,1.7,4.375,5.352,5.352,0,0,0-3.754,4.248c-.033.279-.039,1.124-.039,1.124A8.474,8.474,0,0,0,84.508,53.2ZM76.087,44.71a2.767,2.767,0,1,1,5.534.047v.014A2.753,2.753,0,0,1,78.843,47.5H78.83a2.767,2.767,0,0,1-2.743-2.791h0m7.039,8.547a7.319,7.319,0,0,1-3.469,1.255c-.11.011-.219.033-.33.037H78.84a7.559,7.559,0,0,1-4.534-1.483.3.3,0,0,1-.151-.314,4.723,4.723,0,0,1,9.331-.378c.129.649.219.485-.361.88" transform="translate(-62.783 -25.93)" fill="#fff"/>
      <path id="Path_7311" data-name="Path 7311" d="M68.242,64.673H83.626l-4.494,4.05-8-.733Z" transform="translate(-60.048 -38.64)" fill="#6b1a73"/>
    </g>
  </g>
  <g id="Ellipse_415" data-name="Ellipse 415" transform="translate(19.77 19.438)" fill="#0f0f10" stroke="#fff" stroke-width="2">
    <ellipse cx="9.173" cy="9.173" rx="9.173" ry="9.173" stroke="none"/>
    <ellipse cx="9.173" cy="9.173" rx="8.173" ry="8.173" fill="none"/>
  </g>
  <path id="Path_7758" data-name="Path 7758" d="M125.136,133.442a8.08,8.08,0,1,1,8.1-8.075,8.069,8.069,0,0,1-8.1,8.075" transform="translate(-96.324 -96.899)" fill="#6b1a73"/>
  <path id="Path_7759" data-name="Path 7759" d="M32.726,29.542,28.239,33.96,26.051,31.9l-1.5,1.676,3.66,3.635,6.186-6.1Z" transform="translate(0.143 -4.915)" fill="#fff"/>
</svg>
