<svg id="COVID_site_referral_icon" xmlns="http://www.w3.org/2000/svg" xmlns:xlink="http://www.w3.org/1999/xlink" width="30.941" height="42.974" viewBox="0 0 30.941 42.974">
  <defs>
    <clipPath id="clip-path">
      <rect id="Rectangle_1719" data-name="Rectangle 1719" width="30.942" height="42.974" fill="none"/>
    </clipPath>
    <clipPath id="clip-path-3">
      <rect id="Rectangle_1714" data-name="Rectangle 1714" width="12.635" height="25.718" fill="none"/>
    </clipPath>
    <clipPath id="clip-path-4">
      <rect id="Rectangle_1715" data-name="Rectangle 1715" width="13.849" height="25.179" fill="none"/>
    </clipPath>
    <clipPath id="clip-path-5">
      <rect id="Rectangle_1716" data-name="Rectangle 1716" width="9.058" height="7.844" fill="none"/>
    </clipPath>
  </defs>
  <g id="Group_2544" data-name="Group 2544" clip-path="url(#clip-path)">
    <g id="Group_2541" data-name="Group 2541" transform="translate(0 0)">
      <g id="Group_2540" data-name="Group 2540" clip-path="url(#clip-path)">
        <g id="Group_2533" data-name="Group 2533" transform="translate(2.556 15.914)" opacity="0.8">
          <g id="Group_2532" data-name="Group 2532">
            <g id="Group_2531" data-name="Group 2531" clip-path="url(#clip-path-3)">
              <rect id="Rectangle_1713" data-name="Rectangle 1713" width="24.607" height="3.969" transform="translate(-0.002 24.606) rotate(-73.717)" fill="#999"/>
              <line id="Line_326" data-name="Line 326" x1="6.476" y1="1.891" transform="translate(5.563 0.595)" fill="none" stroke="#999" stroke-linecap="round" stroke-miterlimit="10" stroke-width="0.783"/>
            </g>
          </g>
        </g>
        <g id="Group_2536" data-name="Group 2536" transform="translate(2.758 10.714)" opacity="0.8">
          <g id="Group_2535" data-name="Group 2535">
            <g id="Group_2534" data-name="Group 2534" clip-path="url(#clip-path-4)">
              <path id="Path_8027" data-name="Path 8027" d="M2.957,30.829l4.571,1.335A1.586,1.586,0,0,0,9.5,31.084L15.615,10.13a1.19,1.19,0,0,0-.809-1.476L9.472,7.1A1.19,1.19,0,0,0,8,7.906L1.878,28.86a1.588,1.588,0,0,0,1.079,1.969" transform="translate(-1.814 -7.048)" fill="#fff"/>
            </g>
          </g>
        </g>
        <g id="Group_2539" data-name="Group 2539" transform="translate(7.549 10.714)" opacity="0.37">
          <g id="Group_2538" data-name="Group 2538">
            <g id="Group_2537" data-name="Group 2537" clip-path="url(#clip-path-5)">
              <path id="Path_8028" data-name="Path 8028" d="M4.967,12.667a.6.6,0,0,1,.734-.4l6.478,1.891a.6.6,0,0,1,.406.73h0l1.39-4.763a1.19,1.19,0,0,0-.809-1.476L7.832,7.1A1.19,1.19,0,0,0,6.356,7.9L4.965,12.667Z" transform="translate(-4.966 -7.048)" fill="#b0d9ec"/>
            </g>
          </g>
        </g>
        <line id="Line_327" data-name="Line 327" x1="7.62" y1="2.224" transform="translate(0.595 40.154)" fill="none" stroke="#c7c7c7" stroke-linecap="round" stroke-miterlimit="10" stroke-width="0.783"/>
        <line id="Line_328" data-name="Line 328" y1="11.429" x2="3.337" transform="translate(13.083 0.111)" fill="none" stroke="#999" stroke-miterlimit="10" stroke-width="0.522"/>
      </g>
    </g>
    <line id="Line_329" data-name="Line 329" x1="2.287" y1="0.667" transform="translate(7.124 23.455)" fill="none" stroke="#878787" stroke-linecap="round" stroke-miterlimit="10" stroke-width="0.522"/>
    <line id="Line_330" data-name="Line 330" x1="2.287" y1="0.667" transform="translate(8.014 20.407)" fill="none" stroke="#878787" stroke-linecap="round" stroke-miterlimit="10" stroke-width="0.522"/>
    <line id="Line_331" data-name="Line 331" x1="2.287" y1="0.667" transform="translate(8.903 17.359)" fill="none" stroke="#878787" stroke-linecap="round" stroke-miterlimit="10" stroke-width="0.522"/>
    <line id="Line_332" data-name="Line 332" x1="2.287" y1="0.667" transform="translate(9.793 14.311)" fill="none" stroke="#878787" stroke-linecap="round" stroke-miterlimit="10" stroke-width="0.522"/>
    <line id="Line_333" data-name="Line 333" x1="3.81" y1="1.113" transform="translate(8.27 13.865)" fill="none" stroke="#878787" stroke-miterlimit="10" stroke-width="0.522"/>
    <line id="Line_334" data-name="Line 334" x1="3.81" y1="1.113" transform="translate(5.6 23.009)" fill="none" stroke="#878787" stroke-miterlimit="10" stroke-width="0.522"/>
    <line id="Line_335" data-name="Line 335" x1="3.81" y1="1.113" transform="translate(6.49 19.961)" fill="none" stroke="#878787" stroke-miterlimit="10" stroke-width="0.522"/>
    <line id="Line_336" data-name="Line 336" x1="3.81" y1="1.113" transform="translate(7.38 16.913)" fill="none" stroke="#878787" stroke-miterlimit="10" stroke-width="0.522"/>
    <path id="Path_8029" data-name="Path 8029" d="M9.1,4.866l2.287.667-.731,3.921L7.6,8.565Z" transform="translate(3.956 2.532)" fill="#999"/>
    <g id="Group_2543" data-name="Group 2543" transform="translate(0 0)">
      <g id="Group_2542" data-name="Group 2542" clip-path="url(#clip-path)">
        <path id="Path_8030" data-name="Path 8030" d="M18.19,34.522c-.629-.876-1.225-1.681-1.8-2.505A42.666,42.666,0,0,1,12.9,26.173,15.646,15.646,0,0,1,11.665,22.8a6.814,6.814,0,0,1,1.286-5.777,6.281,6.281,0,0,1,4.777-2.632,6.429,6.429,0,0,1,5.943,2.864,6.88,6.88,0,0,1,1.274,4.617,10.3,10.3,0,0,1-.781,2.995,28.384,28.384,0,0,1-2.889,5.388c-.9,1.356-1.885,2.657-2.834,3.982-.056.078-.125.143-.251.287m.073-10.257a2.875,2.875,0,0,0,2.825-2.943,2.866,2.866,0,1,0-2.825,2.943" transform="translate(5.976 7.477)" fill="#6b1a73"/>
      </g>
    </g>
  </g>
</svg>
