<svg id="COVID_literature_icon" xmlns="http://www.w3.org/2000/svg" xmlns:xlink="http://www.w3.org/1999/xlink" width="43.707" height="50.123" viewBox="0 0 43.707 50.123">
  <defs>
    <clipPath id="clip-path">
      <rect id="Rectangle_1657" data-name="Rectangle 1657" width="43.707" height="50.123" fill="none"/>
    </clipPath>
    <clipPath id="clip-path-3">
      <rect id="Rectangle_1644" data-name="Rectangle 1644" width="6.905" height="11.706" fill="none"/>
    </clipPath>
    <clipPath id="clip-path-4">
      <rect id="Rectangle_1646" data-name="Rectangle 1646" width="6.655" height="10.821" fill="none"/>
    </clipPath>
  </defs>
  <g id="Group_2439" data-name="Group 2439" clip-path="url(#clip-path)">
    <rect id="Rectangle_1640" data-name="Rectangle 1640" width="42.45" height="28.655" transform="translate(2.546 40.025) rotate(-70.54)" fill="#b0b0b0"/>
    <rect id="Rectangle_1641" data-name="Rectangle 1641" width="42.45" height="28.656" transform="translate(0 42.329) rotate(-74.218)" fill="#fff"/>
    <rect id="Rectangle_1642" data-name="Rectangle 1642" width="12.23" height="4.062" transform="matrix(0.272, -0.962, 0.962, 0.272, 3.863, 41.743)" fill="#6b2264"/>
    <g id="Group_2436" data-name="Group 2436" transform="translate(0 0)">
      <g id="Group_2435" data-name="Group 2435" clip-path="url(#clip-path)">
        <g id="Group_2428" data-name="Group 2428" transform="translate(9.706 32.794)" opacity="0.5">
          <g id="Group_2427" data-name="Group 2427">
            <g id="Group_2426" data-name="Group 2426" clip-path="url(#clip-path-3)">
              <rect id="Rectangle_1643" data-name="Rectangle 1643" width="11.016" height="4.062" transform="matrix(0.272, -0.962, 0.962, 0.272, 0, 10.601)" fill="#6b2264"/>
            </g>
          </g>
        </g>
        <g id="Group_2431" data-name="Group 2431" transform="translate(15.506 35.318)" opacity="0.75">
          <g id="Group_2430" data-name="Group 2430">
            <g id="Group_2429" data-name="Group 2429" clip-path="url(#clip-path-4)">
              <rect id="Rectangle_1645" data-name="Rectangle 1645" width="10.097" height="4.063" transform="translate(-0.001 9.716) rotate(-74.215)" fill="#6b2264"/>
            </g>
          </g>
        </g>
        <g id="Group_2434" data-name="Group 2434" transform="translate(21.307 36.073)" opacity="0.25">
          <g id="Group_2433" data-name="Group 2433">
            <g id="Group_2432" data-name="Group 2432" clip-path="url(#clip-path-3)">
              <rect id="Rectangle_1647" data-name="Rectangle 1647" width="11.016" height="4.062" transform="matrix(0.272, -0.962, 0.962, 0.272, 0, 10.6)" fill="#6b2264"/>
            </g>
          </g>
        </g>
      </g>
    </g>
    <rect id="Rectangle_1650" data-name="Rectangle 1650" width="1.153" height="16.161" transform="translate(14.218 5.109) rotate(-74.218)" fill="#606060"/>
    <rect id="Rectangle_1651" data-name="Rectangle 1651" width="1.153" height="16.161" transform="matrix(0.272, -0.962, 0.962, 0.272, 8.467, 25.456)" fill="#606060"/>
    <rect id="Rectangle_1652" data-name="Rectangle 1652" width="1.153" height="20.75" transform="translate(7.84 27.675) rotate(-74.215)" fill="#606060"/>
    <rect id="Rectangle_1653" data-name="Rectangle 1653" width="1.153" height="4.611" transform="matrix(0.272, -0.962, 0.962, 0.272, 12.651, 10.656)" fill="#606060"/>
    <rect id="Rectangle_1654" data-name="Rectangle 1654" width="1.153" height="9.222" transform="matrix(0.272, -0.962, 0.962, 0.272, 18.197, 12.224)" fill="#606060"/>
    <rect id="Rectangle_1655" data-name="Rectangle 1655" width="2.306" height="10.432" transform="matrix(0.272, -0.962, 0.962, 0.272, 13.278, 8.437)" fill="#606060"/>
    <g id="Group_2438" data-name="Group 2438" transform="translate(0 0)">
      <g id="Group_2437" data-name="Group 2437" clip-path="url(#clip-path)">
        <path id="Path_7901" data-name="Path 7901" d="M13.421,23.537h0a5.384,5.384,0,1,1,6.646-3.717,5.383,5.383,0,0,1-6.646,3.717" transform="translate(0.854 1.166)" fill="#f9db7a"/>
      </g>
    </g>
    <text id="_" data-name="!" transform="translate(13.589 21.469) rotate(15.784)" fill="#fff" font-size="9" font-family="MyriadPro-Bold, Myriad Pro" font-weight="700"><tspan x="0" y="0">!</tspan></text>
  </g>
</svg>
