<svg id="email_icon" xmlns="http://www.w3.org/2000/svg" xmlns:xlink="http://www.w3.org/1999/xlink" width="37.225" height="42.056" viewBox="0 0 37.225 42.056">
  <defs>
    <clipPath id="clip-path">
      <rect id="Rectangle_1768" data-name="Rectangle 1768" width="37.225" height="42.055" transform="translate(0 0)" fill="none"/>
    </clipPath>
  </defs>
  <g id="Group_2610" data-name="Group 2610" clip-path="url(#clip-path)">
    <path id="Path_8088" data-name="Path 8088" d="M18.654,42.055H1.185c-.928-.008-1.214-.318-1.18-1.269.008-.218.008-.436.008-.653q0-11.375,0-22.75c0-.2.008-.4-.008-.6a1.174,1.174,0,0,1,.534-1.1c1.019-.814,1.988-1.691,2.974-2.547.835-.725,1.657-1.467,2.505-2.176a1.081,1.081,0,0,0,.428-.927c-.017-2.884-.009-5.769-.009-8.654,0-.163-.008-.327.006-.49A.859.859,0,0,1,7.342,0C7.469,0,7.6,0,7.724,0H29.491a3.794,3.794,0,0,1,.543.014.83.83,0,0,1,.746.806c.012.144,0,.29,0,.435,0,2.939.005,5.878-.006,8.817a.978.978,0,0,0,.376.832c1.733,1.488,3.41,3.046,5.19,4.475a2.2,2.2,0,0,1,.882,1.976c-.031,7.656-.018,15.312-.018,22.968,0,.29.023.582,0,.87a.832.832,0,0,1-.87.851c-.217.014-.435.007-.653.007H18.654m3.117-14.393c2.371-1.994,4.683-3.947,7.01-5.881a.954.954,0,0,0,.371-.831q-.012-9.358-.007-18.716c0-.175-.017-.351-.027-.533H8.067c0,.273,0,.505,0,.737L8.1,19.794c0,.362.028.728-.007,1.087a1.08,1.08,0,0,0,.477,1.012c1.54,1.266,3.059,2.556,4.587,3.838.762.639,1.525,1.277,2.3,1.929.491-.414.984-.784,1.425-1.209a2.546,2.546,0,0,1,3.366-.069c.478.439.993.838,1.521,1.28M34.238,40.368c-.113-.108-.16-.157-.212-.2q-3.183-2.678-6.367-5.354-4-3.355-8-6.7a1.429,1.429,0,0,0-2.135.026q-.962.8-1.917,1.6-6.079,5.1-12.156,10.211c-.133.112-.253.238-.44.415ZM23.078,28.763l12.45,10.458V18.307L23.078,28.763m-8.927,0L1.72,18.325V39.2l12.43-10.441m16.668-8.7L35.058,16.5,30.819,12.8ZM6.378,20.033v-7.2L2.168,16.5l4.211,3.533" transform="translate(0 0)" fill="#6b1a73"/>
    <path id="Path_8089" data-name="Path 8089" d="M31.779,29.773c-.528-.442-1.043-.841-1.521-1.28a2.545,2.545,0,0,0-3.366.069c-.44.425-.933.8-1.425,1.209l-2.3-1.929C21.638,26.56,20.118,25.27,18.579,24a1.079,1.079,0,0,1-.477-1.011c.034-.36.007-.725.007-1.088q-.017-8.677-.034-17.355c0-.233,0-.465,0-.737H39.127c.009.182.026.357.026.533q0,9.358.007,18.717a.955.955,0,0,1-.371.831c-2.328,1.933-4.639,3.887-7.01,5.88m.95-10.74a7.379,7.379,0,0,1-.745.336,8.865,8.865,0,0,1-4.294.327,3.372,3.372,0,0,1-2.9-2.528,6,6,0,0,1-.2-1.985c.334-4.047,4.118-4.97,6.725-3.592,1.8.949,1.754,4.13.721,5.219a1.644,1.644,0,0,1-.573.4c-.412.16-.628-.022-.574-.465.037-.3.112-.6.175-.906.224-1.075.449-2.15.68-3.259H30.5l-.2.609a1.849,1.849,0,0,0-1.58-.8,2.655,2.655,0,0,0-2.217,1.18,4,4,0,0,0-.486,3.587,2.027,2.027,0,0,0,1.939,1.406,2.068,2.068,0,0,0,1.77-.645,1.867,1.867,0,0,0,2.444.428,3.044,3.044,0,0,0,1.251-1.393,5.586,5.586,0,0,0,.478-3.341,3.963,3.963,0,0,0-3.142-3.477A6.976,6.976,0,0,0,27.9,9.952a4.95,4.95,0,0,0-4.187,3.274,6.643,6.643,0,0,0-.232,4.01A4.437,4.437,0,0,0,26.355,20.6a8.465,8.465,0,0,0,6.4-.336,3.18,3.18,0,0,0,.468-.317l-.5-.915" transform="translate(-10.008 -2.111)" fill="#6b1a73" stroke="#6b1a73" stroke-width="1"/>
    <path id="Path_8090" data-name="Path 8090" d="M37.969,74.667H6.739c.187-.177.307-.3.44-.415q6.077-5.107,12.156-10.212.957-.8,1.917-1.6a1.429,1.429,0,0,1,2.135-.026q4.009,3.343,8,6.7,3.187,2.674,6.367,5.354c.052.044.1.093.212.2" transform="translate(-3.731 -34.299)" fill="#fff"/>
    <path id="Path_8091" data-name="Path 8091" d="M51.71,51.476,64.16,41.02V61.934L51.71,51.476" transform="translate(-28.632 -22.713)" fill="#fff"/>
    <path id="Path_8092" data-name="Path 8092" d="M16.286,51.5,3.856,61.941V41.061L16.286,51.5" transform="translate(-2.135 -22.736)" fill="#fff"/>
    <path id="Path_8093" data-name="Path 8093" d="M69.055,35.946V28.687l4.239,3.694-4.239,3.566" transform="translate(-38.236 -15.884)" fill="#fff"/>
    <path id="Path_8094" data-name="Path 8094" d="M9.068,35.949,4.857,32.416l4.211-3.671Z" transform="translate(-2.689 -15.916)" fill="#fff"/>
    <path id="Path_8095" data-name="Path 8095" d="M39.181,26.559l.5.915a3.186,3.186,0,0,1-.468.318,8.466,8.466,0,0,1-6.4.335,4.436,4.436,0,0,1-2.876-3.366,6.643,6.643,0,0,1,.232-4.01,4.952,4.952,0,0,1,4.186-3.274,6.983,6.983,0,0,1,2.855.178,3.964,3.964,0,0,1,3.142,3.477,5.583,5.583,0,0,1-.478,3.341,3.042,3.042,0,0,1-1.251,1.394,1.867,1.867,0,0,1-2.444-.429,2.069,2.069,0,0,1-1.77.645,2.027,2.027,0,0,1-1.939-1.406,4,4,0,0,1,.486-3.587,2.655,2.655,0,0,1,2.217-1.18,1.85,1.85,0,0,1,1.58.8l.2-.609H38.2c-.232,1.109-.457,2.184-.68,3.259-.062.3-.138.6-.175.906-.054.443.161.625.573.465a1.642,1.642,0,0,0,.573-.4c1.033-1.088,1.076-4.27-.721-5.219-2.607-1.378-6.391-.455-6.725,3.592a6,6,0,0,0,.2,1.986,3.371,3.371,0,0,0,2.9,2.527,8.858,8.858,0,0,0,4.293-.327,7.232,7.232,0,0,0,.746-.336m-5.586-3.286a4.175,4.175,0,0,0,.187.93,1.1,1.1,0,0,0,.509.512,1.241,1.241,0,0,0,1.526-.483,2.934,2.934,0,0,0,.411-2.381.875.875,0,0,0-.907-.705,1.348,1.348,0,0,0-1.38.852,8.622,8.622,0,0,0-.347,1.275" transform="translate(-16.46 -9.637)" fill="#fff"/>
    <path id="Path_8096" data-name="Path 8096" d="M38.394,27.913a8.622,8.622,0,0,1,.347-1.275,1.348,1.348,0,0,1,1.38-.852.875.875,0,0,1,.907.705,2.934,2.934,0,0,1-.411,2.381,1.241,1.241,0,0,1-1.526.483,1.1,1.1,0,0,1-.509-.512,4.175,4.175,0,0,1-.187-.93" transform="translate(-21.259 -14.277)" fill="#6b1a73"/>
  </g>
</svg>
