<svg id="poster_icon" xmlns="http://www.w3.org/2000/svg" xmlns:xlink="http://www.w3.org/1999/xlink" width="36.555" height="43.479" viewBox="0 0 36.555 43.479">
  <defs>
    <clipPath id="clip-path">
      <rect id="Rectangle_1687" data-name="Rectangle 1687" width="36.555" height="43.48" fill="none"/>
    </clipPath>
  </defs>
  <rect id="Rectangle_1681" data-name="Rectangle 1681" width="29.246" height="33.263" transform="matrix(0.998, 0.07, -0.07, 0.998, 6.691, 7.013)" fill="#b0b0b0"/>
  <g id="Group_2612" data-name="Group 2612" transform="translate(-526 -2290.889)">
    <g id="Group_2492" data-name="Group 2492" transform="translate(526 2290.889)">
      <g id="Group_2491" data-name="Group 2491" clip-path="url(#clip-path)">
        <path id="Path_7929" data-name="Path 7929" d="M17.55,0a6.95,6.95,0,0,0,.617.363c2.02.933,4.035,1.875,6.071,2.777a3.591,3.591,0,0,0,1.338.285c1.567.034,3.134.007,4.7.016,1.081.006,1.206.122,1.206,1.1q0,14.612-.009,29.225a4.856,4.856,0,0,1-.229,1.035H3.027a4.207,4.207,0,0,1-.229-.957Q2.78,19.148,2.79,4.457c0-.877.139-1.007,1.122-1.014,1.6-.013,3.19.007,4.785-.013a2.913,2.913,0,0,0,1.113-.193c2.207-.984,4.4-2,6.592-3.01A2.081,2.081,0,0,0,16.725,0ZM30.174,4.722H4.1v28.82H30.174ZM12.77,3.247a52.515,52.515,0,0,0,8.78.021C20.15,2.629,18.8,2,17.437,1.4a.848.848,0,0,0-.6,0c-1.362.6-2.712,1.226-4.065,1.844" transform="translate(0.903 2.322)" fill="#606060"/>
        <rect id="Rectangle_1682" data-name="Rectangle 1682" width="29.602" height="32.777" transform="translate(2.982 5.515)" fill="#fff"/>
        <rect id="Rectangle_1683" data-name="Rectangle 1683" width="29.602" height="32.777" transform="translate(2.982 5.515)" fill="#fff" stroke="#f7f7f7" stroke-miterlimit="10" stroke-width="1"/>
        <rect id="Rectangle_1684" data-name="Rectangle 1684" width="20.432" height="1.784" transform="translate(8.211 27.026)" fill="#606060"/>
        <rect id="Rectangle_1685" data-name="Rectangle 1685" width="20.432" height="1.784" transform="translate(8.211 30.422)" fill="#606060"/>
        <rect id="Rectangle_1686" data-name="Rectangle 1686" width="9.813" height="1.784" transform="translate(12.878 33.818)" fill="#606060"/>
        <path id="Path_7930" data-name="Path 7930" d="M23.208,29.671h0a8,8,0,1,1,9.877-5.524,8,8,0,0,1-9.877,5.524" transform="translate(-6.522 -4.784)" fill="#6b2264"/>
      </g>
    </g>
    <text id="_" data-name="!" transform="translate(541.889 2312.377) rotate(15.784)" fill="#fff" font-size="12" font-family="MyriadPro-Bold, Myriad Pro" font-weight="700"><tspan x="0" y="0">!</tspan></text>
  </g>
</svg>
