<svg id="prepared_meal_icon" xmlns="http://www.w3.org/2000/svg" xmlns:xlink="http://www.w3.org/1999/xlink" width="42.838" height="24.744" viewBox="0 0 42.838 24.744">
  <defs>
    <clipPath id="clip-path">
      <rect id="Rectangle_1705" data-name="Rectangle 1705" width="42.839" height="24.744" fill="none"/>
    </clipPath>
  </defs>
  <g id="Group_2514" data-name="Group 2514" clip-path="url(#clip-path)">
    <path id="Path_7948" data-name="Path 7948" d="M41.449,10.267a11,11,0,0,1,.9,1.455,6.178,6.178,0,0,1-.174,5.159A8.3,8.3,0,0,1,39.986,20a22.393,22.393,0,0,1-3.094,2.2,25.813,25.813,0,0,1-8.353,2.869c-1.377.255-2.785.364-4.183.483a31.446,31.446,0,0,1-3.421.145,38.109,38.109,0,0,1-4.091-.3,48.163,48.163,0,0,1-4.818-.846,22.456,22.456,0,0,1-7.464-3.18A9.955,9.955,0,0,1,.91,17.418,7.527,7.527,0,0,1,0,13.915a6.3,6.3,0,0,1,.915-3.066,11.681,11.681,0,0,1,4.5-4.056,23.428,23.428,0,0,1,6.345-2.435c1.577-.362,3.181-.6,4.775-.9a1.587,1.587,0,0,1,.3,0l-.513.457a3.271,3.271,0,0,0-.648.016c-1.767.394-3.53.8-5.3,1.208-.393.021-.826-.072-1.066.38L6.9,6.572c-.356.051-.732.067-.887.484A1.477,1.477,0,0,0,5.8,7.14a11.934,11.934,0,0,0-4.02,3.5,5.552,5.552,0,0,0-.768,5.418,8.386,8.386,0,0,0,2.479,3.322,19.385,19.385,0,0,0,6.728,3.564,27.786,27.786,0,0,0,6.045,1.317c1.587.158,3.179.3,4.773.361a27.238,27.238,0,0,0,3.345-.142c1.348-.119,2.7-.258,4.032-.487A27.308,27.308,0,0,0,35,22.034a14.845,14.845,0,0,0,5.5-3.809,5.922,5.922,0,0,0,1.625-4.96,10,10,0,0,0-.617-1.716q-.031-.641-.062-1.282" transform="translate(0 -0.957)" fill="#b0b0b0"/>
    <path id="Path_7949" data-name="Path 7949" d="M53.9,11.586q.03.641.061,1.282a2.451,2.451,0,0,0-.525,2.007,1.953,1.953,0,0,1-.578.36c-.225.046-.314.085-.338.333-.045.462-.341.836-.659.818-.338-.019-.678-.187-.959.153-.024.029-.141-.017-.214-.031l-.98-.183-.144-.312-.239-.683-.07-.171-.53-1.129c.321-.024.607-.134.752.374.134.477.829.51,1.26.247.361-.22.868-.1,1.22-.416,0,0,.026.014.035.01.185-.081.436-.116.539-.257a.551.551,0,0,0-.053-.764,1.9,1.9,0,0,1-.25.331,1.62,1.62,0,0,1-.351.189,1.512,1.512,0,0,0-.292.132c-.364.293-.394.288-.585-.121a1.054,1.054,0,0,0-.163-.2c-.059.072-.09.111-.121.149-.156.181-.388.542-.454.514a2.676,2.676,0,0,1-.68-.534c-.061-.055-.1-.223-.12-.219a2.425,2.425,0,0,1-1.215-.121l-1.47-1.606.219-.2c-.077-.061-.148-.165-.23-.174a1.2,1.2,0,0,0-.364.07l-1.446-.988c.036-.077.068-.158.11-.232.193-.339.39-.677.585-1.015.393-.461,1.011-.512,1.5-.8.09-.054.27.035.356-.021a.786.786,0,0,1,1.117.178l.622-.2,1.074.087c.457.213.915.426,1.371.641.074.035.14.11.215.12a.712.712,0,0,1,.666.627c.009.048.016.124.046.137.371.158.425.533.607.828a5.955,5.955,0,0,0,.68.787M50.089,8.823l-.048.085c-.077,0-.168-.027-.226.005-.187.1-.476.2-.517.356-.062.231.149.38.422.424.088.014.141.237.213.362a1.578,1.578,0,0,0,.181.288.937.937,0,0,1,.7.076c.085.027.216-.072.322-.121.057-.027.1-.077.158-.106.153-.079.433-.144.438-.227a1.035,1.035,0,0,0-.172-.655c-.086-.11-.353-.08-.539-.108a1.38,1.38,0,0,1-.352-.049c-.2-.093-.389-.218-.583-.33m-2,.661c-.45-.239-.8-.134-.983.271-.169.377-.025.636.414.812a1.327,1.327,0,0,1,.439.3c.268.273.482.316.72.106-.9-.709-.97-.876-.59-1.492m4.374,3c-.058-.19-.113-.457-.453-.443a.508.508,0,0,0-.534.527c-.009.27.087.515.415.537a.6.6,0,0,0,.573-.621m-5.595-1.894c-.167-.208-.3-.453-.364-.436-.163.048-.43.244-.411.315a1.66,1.66,0,0,0,.359.5l.415-.377M51.824,15.7a3.574,3.574,0,0,0,.387-.556c.021-.048-.2-.265-.211-.256-.205.126-.394.279-.587.425l.411.387M51.3,13.051c-.209-.155-.311-.281-.429-.3-.068-.01-.227.158-.226.244a.352.352,0,0,0,.231.251c.091.02.208-.09.424-.2M48.72,9.494c-.109.15-.231.256-.211.3.041.1.156.165.241.244.061-.067.179-.139.173-.2-.01-.1-.1-.185-.2-.35" transform="translate(-12.452 -2.276)" fill="#3a971b"/>
    <path id="Path_7950" data-name="Path 7950" d="M36.434,2.851c.253-.516.833-.372,1.228-.605a2,2,0,0,1,1.659-.052,1,1,0,0,0,.254,0c.124,0,.275-.035.367.022.39.246.759.526,1.143.782.2.135.424.244.633.372a1.541,1.541,0,0,1,.453.307,6.516,6.516,0,0,1,.441.776l-.039.454a2.119,2.119,0,0,0,.293,1.6c-.089.178-.133.441-.276.516-.254.132-.278.262-.217.51.127.515-.071.868-.5.963l-1.956-.742c.512-.1.659-.76,1.215-.794.013,0,.021-.045.038-.063a3.925,3.925,0,0,0,.393-.445,1.136,1.136,0,0,0,.217-.522c.007-.144-.132-.294-.2-.432-.278.384-.494.7-.739,1a.382.382,0,0,1-.32.054c-.1-.024-.171-.127-.265-.2-.29.234.066.832-.448.821A3.5,3.5,0,0,1,38.79,6.8c-.172.247-.448.48-.938.077l.119.539-2.141-.01-.384-.594a6.86,6.86,0,0,0,.778-1.839l.049-.091-.01-.005c.161.069.32.143.482.208.323.129.538.043.552-.126-.21-.106-.375-.2-.548-.274-.145-.065-.3-.114-.448-.17q.067-.832.134-1.665m2.786.5c.181-.148.422-.275.406-.345-.043-.2-.159-.5-.307-.538a2.2,2.2,0,0,0-.795.076c0,.05.009.1.014.149-.371-.321-.714-.139-1.016.074a.578.578,0,0,0-.2.459c.009.084.272.135.417.208.109.054.265.093.311.184.144.288.281.4.518.091a.189.189,0,0,1,.152-.071c.354.116.5-.036.5-.288m1.538,2.239c.4,0,.469-.3.482-.549.015-.3-.21-.442-.505-.449-.341-.008-.382.232-.393.489a.445.445,0,0,0,.416.509M42.13,7.431l-.369-.38a5.17,5.17,0,0,0-.409.5c-.017.025.166.239.2.226a4.945,4.945,0,0,0,.583-.347m-2.2-1.937c-.092.163-.208.278-.185.347.037.107.167.182.258.271.081-.1.229-.193.226-.285s-.155-.183-.3-.333M37.3,3.848c-.167-.082-.256-.158-.345-.158-.065,0-.131.1-.2.154.084.07.159.17.255.2.053.015.141-.091.286-.194" transform="translate(-9.818 -0.565)" fill="#3a971b"/>
    <path id="Path_7951" data-name="Path 7951" d="M29.913,2.272c.714-.655,1.415-1.325,2.152-1.955a1.79,1.79,0,0,1,.761-.312c.135-.031.3.073.454.116a7.255,7.255,0,0,1-.351,1.429C32.345,2.787,31.7,4,31.061,5.2c-.356.669-.769,1.308-1.156,1.96l-.3.006c-.247-.052-.492-.118-.741-.155-.876-.131-1.752-.251-2.627-.375.1-.142.2-.289.312-.426.443-.55.89-1.1,1.335-1.645q.878-.992,1.756-1.984l.277-.311" transform="translate(-7.266 0)" fill="#fe9239"/>
    <path id="Path_7952" data-name="Path 7952" d="M21.672,3.048l.514-.457c.5-.424.984-.883,1.521-1.26A11.727,11.727,0,0,1,25.321.417a.744.744,0,0,1,.917.092,6.671,6.671,0,0,1-.445,1.082c-.585.933-1.189,1.856-1.833,2.748-.563.778-1.191,1.508-1.79,2.259L21.1,6.556a3.566,3.566,0,0,0-.259-.5c-.344-.473-.675-.993-1.409-.69-.022.009-.1-.126-.156-.193l2.4-2.12" transform="translate(-5.339 -0.084)" fill="#fe9339"/>
    <path id="Path_7953" data-name="Path 7953" d="M31.311,7.209c.388-.652.8-1.291,1.156-1.959.645-1.206,1.284-2.416,1.868-3.653A7.155,7.155,0,0,0,34.685.168c.448.293.464.775.529,1.229.045.309.051.624.074.936q-.066.833-.133,1.666c-.013.12-.026.24-.038.361l.01.006-.05.09A6.825,6.825,0,0,1,34.3,6.294l-.49.757-1.1.477-1.4-.32" transform="translate(-8.673 -0.046)" fill="#fd7008"/>
    <path id="Path_7954" data-name="Path 7954" d="M23.279,6.678c.6-.751,1.228-1.481,1.789-2.259C25.713,3.527,26.317,2.6,26.9,1.67A6.691,6.691,0,0,0,27.347.589a10.068,10.068,0,0,1,.295,1.052,4.042,4.042,0,0,1-.013.792c-.018.1-.037.205-.055.309q-.256.995-.511,1.989c-.445.547-.892,1.095-1.335,1.644-.11.137-.208.284-.312.426l-2.136-.124" transform="translate(-6.448 -0.163)" fill="#fe7008"/>
    <path id="Path_7955" data-name="Path 7955" d="M45.3,5.825c.013-.151.026-.3.038-.454a22.07,22.07,0,0,1,4.894,2.093.865.865,0,0,1,.178.194l-1.074-.087a11.727,11.727,0,0,0-1.2-.655c-.937-.388-1.893-.73-2.841-1.091" transform="translate(-12.548 -1.488)" fill="#e1e0e0"/>
    <path id="Path_7956" data-name="Path 7956" d="M29.219,3.448c.019-.1.037-.206.056-.309l1.466,0-.276.311-1.245-.005" transform="translate(-8.093 -0.869)" fill="#e1e0e0"/>
    <path id="Path_7957" data-name="Path 7957" d="M41.223,14.934a2.448,2.448,0,0,1,.526-2.007,10.065,10.065,0,0,1,.618,1.716A5.924,5.924,0,0,1,40.741,19.6a14.843,14.843,0,0,1-5.5,3.808,27.276,27.276,0,0,1-6.592,1.959c-1.333.229-2.683.367-4.032.487A26.954,26.954,0,0,1,21.275,26c-1.594-.056-3.185-.2-4.773-.36a27.787,27.787,0,0,1-6.045-1.318,19.385,19.385,0,0,1-6.728-3.564,8.4,8.4,0,0,1-2.479-3.322,5.552,5.552,0,0,1,.768-5.418,11.94,11.94,0,0,1,4.02-3.5,1.474,1.474,0,0,1,.213-.083q-.026.49-.051.98c-1.045.306-1.5,1.023-1.188,1.886-1.3-.187-1.443-.08-1.625,1.189a6,6,0,0,0-.557.235.806.806,0,0,0-.467,1.158c.269.716.583,1.415.878,2.121-.59.518-.536.834-.166,1.344A7.311,7.311,0,0,0,4.3,18.437l1.32-.693q.1.35.205.7c.022.1.038.2.069.294A6.908,6.908,0,0,0,9.343,22.65a17.976,17.976,0,0,0,6.592,1.915,44.309,44.309,0,0,0,8.122.23A9.487,9.487,0,0,0,29.907,22.8c.557.164,1.112.337,1.671.492a5.214,5.214,0,0,0,4.76-1,3.864,3.864,0,0,0,1.445-3.139,20.522,20.522,0,0,0-.14-2.079,9.211,9.211,0,0,0,1.145.239,1.552,1.552,0,0,0,.63-.177,2.8,2.8,0,0,0,.476-.246c.3-.189.7-.326.873-.6a6.1,6.1,0,0,0,.455-1.353" transform="translate(-0.238 -2.337)" fill="#fdfdfc"/>
    <path id="Path_7958" data-name="Path 7958" d="M5.038,17.7a7.248,7.248,0,0,1-1.221-1.088c-.37-.51-.424-.826.166-1.343.294-.072.32-.232.179-.476a1.244,1.244,0,0,1-.087-.338l.121-.033a1.19,1.19,0,0,0,.146.343.408.408,0,0,0,.3.15c.294-.045.581-.134.868-.207-.357-.907-.281-1.134.61-1.589-.15-.108-.265-.248-.406-.281a1.234,1.234,0,0,0-1.242.225L4.129,11.76c.181-1.269.328-1.377,1.625-1.189l.3.023c-.024-.3-.157-.648-.04-.785A6.211,6.211,0,0,1,7.027,9l.08.076a9.989,9.989,0,0,0-.8.8.468.468,0,0,0,.034.445,2.75,2.75,0,0,0,.551.411c-.419.286-.175.461-.139.694.08-.209.13-.366.2-.514.254-.562.531-.763,1.063-.582.638.217.887-.236,1.231-.563h0c.372-.005.344-.21.23-.46h0c.067-.132.1-.318.205-.385a1.259,1.259,0,0,0,.482-1.758q.069-.495.138-.991c.24-.451.674-.359,1.067-.379.391.121.782.244,1.174.362a.329.329,0,0,0,.142-.009c.372-.059.742-.14,1.116-.178a.9.9,0,0,1,1.113.72c.054.068.134.2.156.194.735-.3,1.065.216,1.409.69a3.675,3.675,0,0,1,.259.5L14.576,8.2l.69-.92c-.469.185-.9.4-1.022.949l-.4.092-.991.158-.273-.645-.36.629-.52-.3L11.617,8.1l-.018.028.1.027.39.542-1.858.847a3.213,3.213,0,0,1,.244-.578,4.253,4.253,0,0,1,.466-.513l-.1-.108c-.265.218-.544.42-.79.656a.446.446,0,0,0-.04.677A8.748,8.748,0,0,0,7.474,12.22a1.156,1.156,0,0,1-.134-.4c.022-.376.084-.75.131-1.125a2.98,2.98,0,0,0-.411.9c-.075.314-.152.672.276.841l-.363.69a4.184,4.184,0,0,0-.527.189c-.33.169-.757.291-.79.73-.035.472.348.719.692.959L6.34,16.876a1.025,1.025,0,0,0-1.3.829m5.7-10.022c0-.241.018-.472,0-.7-.039-.394.155-.565.518-.577.344-.012.689,0,1.034,0a.81.81,0,0,0-.461-.213c-.409-.056-.891-.248-1.191.124-.331.411-.107.9.066,1.34,0,.009.017.014.038.028M6.255,11.038c0-.024.007-.048.01-.072-.409-.043-.818-.108-1.227-.12-.247-.007-.517.088-.518.393,0,.37.065.741.1,1.112l.108-.012c0-.241.016-.484,0-.724-.028-.333.134-.461.439-.482.364-.026.727-.063,1.091-.095m8.18-4.667-.007-.062c-.3,0-.6-.005-.907,0-.757.014-.99.342-.741,1.05A4.614,4.614,0,0,0,13,7.824a1.319,1.319,0,0,0-.028-.6c-.117-.381.057-.544.4-.617s.708-.155,1.061-.234M4.67,16.94c-.933-.821-.245-1.258.439-1.719-.521.007-1.174.409-1.2.726-.037.5.354.735.759.993m1.714-4,.551-.216-.318-.388-.233.6" transform="translate(-0.98 -1.605)" fill="#fed403"/>
    <path id="Path_7959" data-name="Path 7959" d="M8.411,9.62l-.08-.075c-.029-.1-.057-.209-.086-.313q.025-.49.051-.981c.156-.418.531-.433.888-.484l1.139.03.458.142,0,0,0,1.911h0l-.231.46h0a1.3,1.3,0,0,0-1.763.054L8.411,9.62m.422.049.106-.035c-.037-.185-.064-.373-.113-.555-.107-.395.005-.634.433-.707.33-.056.656-.144.983-.218a4.687,4.687,0,0,0-1.1-.051c-.45.037-.626.235-.57.675a5.639,5.639,0,0,0,.262.889" transform="translate(-2.284 -2.151)" fill="#fed503"/>
    <path id="Path_7960" data-name="Path 7960" d="M17.916,6.216A.9.9,0,0,0,16.8,5.5c-.374.038-.744.118-1.116.177a.341.341,0,0,1-.142.009c-.392-.118-.783-.241-1.174-.362,1.764-.4,3.528-.813,5.295-1.208a3.219,3.219,0,0,1,.648-.016l-2.4,2.119" transform="translate(-3.981 -1.132)" fill="#fefdfa"/>
    <path id="Path_7961" data-name="Path 7961" d="M10.681,7.394l-1.139-.03,2.424-1.047q-.069.5-.138.991a.858.858,0,0,0-1.147.086" transform="translate(-2.643 -1.75)" fill="#fefdfa"/>
    <path id="Path_7962" data-name="Path 7962" d="M30.611,10.1l1.1-.477.873-.163,2.141.011,1.943.336,1.956.743.453.245,1.447.988.375.3,1.47,1.605.478.681.529,1.129.07.171.24.683a.672.672,0,0,0-.062.2,21.608,21.608,0,0,1,.023,2.684,3.585,3.585,0,0,1-1.327,2.646,5.543,5.543,0,0,1-6.04.7c-1.092-.529-2.088-1.254-3.138-1.874A6.919,6.919,0,0,0,29.6,19.576a8.012,8.012,0,0,1-2.969-.582,4.332,4.332,0,0,1-2.829-2.3c-.006-.016-.045-.018-.069-.027a2.8,2.8,0,0,1,.473-1.729A4.491,4.491,0,0,1,26,13.4,12.268,12.268,0,0,0,29.833,10.7l.778-.6m1.025,4.991V15.1a19.226,19.226,0,0,0,1.81,1.308,8.075,8.075,0,0,0,4.41,1.255,2.255,2.255,0,0,0,2.074-1.679h0L40,15.824a2.973,2.973,0,0,0-.589-3.065A6.023,6.023,0,0,0,34.052,10.5a3.6,3.6,0,0,0-3.04,1.956,1.8,1.8,0,0,0,.5,2.529l.123.111" transform="translate(-6.571 -2.621)" fill="#fefefd"/>
    <path id="Path_7963" data-name="Path 7963" d="M23.729,19.307c.024.009.063.012.069.027a4.332,4.332,0,0,0,2.829,2.3,8.012,8.012,0,0,0,2.969.582,6.919,6.919,0,0,1,3.546,1.139c1.05.62,2.045,1.346,3.138,1.874a5.541,5.541,0,0,0,6.04-.7,3.584,3.584,0,0,0,1.327-2.646,21.608,21.608,0,0,0-.023-2.684.678.678,0,0,1,.062-.2l.144.312c.049.23.1.46.148.69a20.507,20.507,0,0,1,.14,2.078,3.866,3.866,0,0,1-1.445,3.14,5.217,5.217,0,0,1-4.76,1c-.56-.155-1.114-.328-1.672-.492-.016-.033-.024-.082-.05-.1q-1.267-.682-2.536-1.358a7.318,7.318,0,0,0-3.3-1.283c-.39-.056-.777-.124-1.168-.164a9.178,9.178,0,0,1-4.152-1.369,2.627,2.627,0,0,1-1.311-2.152" transform="translate(-6.573 -5.262)" fill="#e1e0e0"/>
    <path id="Path_7964" data-name="Path 7964" d="M45.293,6c.948.361,1.9.7,2.841,1.091a11.725,11.725,0,0,1,1.2.655l-.622.2a.786.786,0,0,0-1.117-.178c-.085.056-.265-.033-.355.021-.487.293-1.1.343-1.5.805-.03-.14-.069-.278-.09-.419-.027-.189-.043-.38-.064-.569A2.122,2.122,0,0,1,45.293,6" transform="translate(-12.538 -1.662)" fill="#fafcfa"/>
    <path id="Path_7965" data-name="Path 7965" d="M51.678,19.564c-.05-.23-.1-.46-.149-.69l.98.183c.073.014.19.06.214.031.281-.34.621-.171.959-.153.318.018.615-.356.659-.818.024-.249.113-.287.338-.333a1.953,1.953,0,0,0,.578-.36,6.079,6.079,0,0,1-.456,1.353c-.168.275-.57.413-.873.6a2.831,2.831,0,0,1-.476.246,1.542,1.542,0,0,1-.63.176,9.284,9.284,0,0,1-1.145-.238" transform="translate(-14.273 -4.826)" fill="#3d841a"/>
    <path id="Path_7966" data-name="Path 7966" d="M49.987,15.948l-.478-.68a2.434,2.434,0,0,0,1.215.121c.017-.005.059.163.119.218a2.7,2.7,0,0,0,.68.534c.066.028.3-.332.454-.514.032-.038.062-.076.121-.149a1.057,1.057,0,0,1,.163.2c.191.409.222.414.586.12a1.492,1.492,0,0,1,.292-.132,1.615,1.615,0,0,0,.351-.189,1.873,1.873,0,0,0,.251-.331.552.552,0,0,1,.053.764c-.1.142-.354.176-.539.257-.009,0-.03-.014-.035-.01-.352.312-.859.2-1.22.416-.43.262-1.125.229-1.26-.247-.144-.508-.43-.4-.751-.375" transform="translate(-13.713 -4.194)" fill="#3a8216"/>
    <path id="Path_7967" data-name="Path 7967" d="M51.748,9.055c.193.112.38.238.582.33a1.353,1.353,0,0,0,.352.05c.187.029.453,0,.539.108a1.03,1.03,0,0,1,.172.654c0,.084-.285.149-.437.228-.056.028-.1.079-.158.106-.106.049-.236.148-.322.12a.941.941,0,0,0-.7-.075,1.589,1.589,0,0,1-.181-.288c-.073-.125-.126-.348-.214-.362-.273-.044-.484-.193-.422-.424.042-.155.33-.252.518-.356.058-.033.15-.005.226-.005l.049-.085" transform="translate(-14.111 -2.508)" fill="#3a971b"/>
    <path id="Path_7968" data-name="Path 7968" d="M48.88,9.921c-.38.617-.311.783.591,1.492-.239.21-.453.166-.721-.106a1.332,1.332,0,0,0-.438-.3c-.44-.176-.584-.435-.415-.813.181-.406.534-.509.983-.27" transform="translate(-13.248 -2.713)" fill="#3a8216"/>
    <path id="Path_7969" data-name="Path 7969" d="M54.953,13.953a.6.6,0,0,1-.573.621c-.328-.022-.424-.267-.415-.537a.508.508,0,0,1,.534-.527c.341-.014.4.253.453.443" transform="translate(-14.948 -3.742)" fill="#3a971b"/>
    <path id="Path_7970" data-name="Path 7970" d="M45.325,8.217c.02.189.035.38.064.569.021.14.059.279.089.419-.2.338-.392.675-.585,1.014-.042.074-.074.155-.11.232l-.454-.245c.433-.095.63-.448.5-.963-.061-.248-.037-.378.218-.511.142-.074.187-.337.275-.515" transform="translate(-12.279 -2.276)" fill="#3b8417"/>
    <path id="Path_7971" data-name="Path 7971" d="M47.3,11.336l-.415.377a1.663,1.663,0,0,1-.36-.5c-.019-.071.248-.267.411-.315.059-.018.2.228.364.435" transform="translate(-12.886 -3.019)" fill="#3a971b"/>
    <path id="Path_7972" data-name="Path 7972" d="M54.3,18.258l-.412-.386c.193-.147.382-.3.587-.426.016-.009.233.208.212.256a3.539,3.539,0,0,1-.387.556" transform="translate(-14.926 -4.832)" fill="#3a971b"/>
    <path id="Path_7973" data-name="Path 7973" d="M53.474,14.787c-.215.107-.333.216-.424.2a.354.354,0,0,1-.231-.252c0-.086.158-.254.226-.244.118.017.221.144.429.3" transform="translate(-14.63 -4.013)" fill="#3a971b"/>
    <path id="Path_7974" data-name="Path 7974" d="M50.079,9.983c.1.165.193.253.2.35.007.059-.111.131-.173.2-.085-.08-.2-.147-.241-.244-.02-.047.1-.153.211-.3" transform="translate(-13.812 -2.765)" fill="#3a971b"/>
    <path id="Path_7975" data-name="Path 7975" d="M47.332,12.951l-.375-.3a1.224,1.224,0,0,1,.364-.069c.082.009.153.112.23.174l-.219.2" transform="translate(-13.006 -3.483)" fill="#3a971b"/>
    <path id="Path_7976" data-name="Path 7976" d="M50.972,17.989l-.07-.17c.023.056.047.113.07.17" transform="translate(-14.099 -4.936)" fill="#e1e0e0"/>
    <path id="Path_7977" data-name="Path 7977" d="M40.834,9.078l-1.943-.337L38.772,8.2c.492.4.766.171.938-.077a3.51,3.51,0,0,0,1.014.369c.513.011.158-.588.448-.821.095.077.171.181.266.2a.383.383,0,0,0,.32-.054c.245-.3.461-.618.739-1,.069.138.208.288.2.432a1.137,1.137,0,0,1-.218.522,3.924,3.924,0,0,1-.393.445c-.017.018-.024.061-.038.063-.557.034-.7.695-1.215.794" transform="translate(-10.739 -1.89)" fill="#3b8417"/>
    <path id="Path_7978" data-name="Path 7978" d="M39.938,3.511c0,.252-.146.4-.5.288a.188.188,0,0,0-.152.071c-.237.307-.374.2-.518-.091-.046-.09-.2-.129-.311-.184-.145-.072-.407-.124-.416-.208a.578.578,0,0,1,.2-.459c.3-.213.644-.394,1.015-.074L39.244,2.7a2.21,2.21,0,0,1,.795-.076c.147.041.262.338.307.538.015.071-.226.2-.406.345" transform="translate(-10.536 -0.722)" fill="#3a971b"/>
    <path id="Path_7979" data-name="Path 7979" d="M42.633,6.572a.447.447,0,0,1-.417-.509c.011-.257.052-.5.393-.489.3.007.521.151.506.45-.013.251-.085.545-.482.549" transform="translate(-11.693 -1.544)" fill="#3a971b"/>
    <path id="Path_7980" data-name="Path 7980" d="M44.392,9.352a4.849,4.849,0,0,1-.583.347c-.03.013-.212-.2-.2-.226a5.287,5.287,0,0,1,.41-.5l.369.38" transform="translate(-12.08 -2.485)" fill="#3a971b"/>
    <path id="Path_7981" data-name="Path 7981" d="M35.641,9.235l-.873.163.489-.757.384.594" transform="translate(-9.63 -2.393)" fill="#3d841a"/>
    <path id="Path_7982" data-name="Path 7982" d="M36.575,5.827c.012-.12.025-.241.038-.361.15.056.3.1.448.17.174.077.339.168.548.273-.014.169-.228.256-.552.126-.162-.065-.321-.139-.481-.208" transform="translate(-10.131 -1.514)" fill="#3a8216"/>
    <path id="Path_7983" data-name="Path 7983" d="M41.581,6.819c.143.15.295.239.3.333s-.145.19-.226.285c-.091-.088-.221-.164-.258-.271-.023-.068.093-.184.185-.346" transform="translate(-11.465 -1.889)" fill="#3a971b"/>
    <path id="Path_7984" data-name="Path 7984" d="M37.8,4.48c-.145.1-.233.209-.286.194-.1-.028-.171-.128-.255-.2.065-.055.131-.154.2-.154.089,0,.178.077.345.158" transform="translate(-10.319 -1.197)" fill="#3a971b"/>
    <path id="Path_7985" data-name="Path 7985" d="M36.52,6.063l.05-.091-.05.091" transform="translate(-10.116 -1.654)" fill="#3a8216"/>
    <path id="Union_25" data-name="Union 25" d="M10.12,15.753A18.035,18.035,0,0,1,3.527,13.84,6.929,6.929,0,0,1,.069,9.934c-.031-.1-.043-.2-.069-.3,1.59,2.048,3.926,2.817,6.148,3.69.178-.923.313-1.784.527-2.627A1.45,1.45,0,0,0,6,9.11a4.126,4.126,0,0,1-.812-.843A4.126,4.126,0,0,1,4.669,5.3,8.08,8.08,0,0,1,7.28.24l.4-.092C7.8.141,7.906.129,8.016.123,8.738.08,9.456.037,10.176,0l1.076.043c.712.037,1.42.08,2.135.123.873.123,1.751.246,2.626.375.252.037.5.1.746.154.305.3.613.609.921.91A12.291,12.291,0,0,1,13.85,4.3a4.5,4.5,0,0,0-1.8,1.544,2.811,2.811,0,0,0-.473,1.728,2.63,2.63,0,0,0,1.316,2.153,9.17,9.17,0,0,0,4.15,1.366c.389.043.776.111,1.168.166a.146.146,0,0,1-.02.011,7.761,7.761,0,0,1,2.478.752,8.2,8.2,0,0,1,.9.555c.83.438,1.657.876,2.481,1.321.023.018.028.061.048.1a9.5,9.5,0,0,1-5.85,1.993q-1.435.084-2.868.086A42.141,42.141,0,0,1,10.12,15.753Zm7.26-2.541c-.013.419.257.511.573.486.369-.031.766-.1.761-.628-.005-.172-.356-.332-.547-.492C17.774,12.727,17.385,12.678,17.38,13.212ZM8.128,1.3a.627.627,0,0,0-.5.892c.13.351.043.529-.277.64A1.492,1.492,0,0,0,6.41,3.961a2.473,2.473,0,0,0-.109.787c.005.172.16.338.252.5.142-.1.364-.172.42-.308A1.5,1.5,0,0,1,8.3,3.967a2.3,2.3,0,0,0,.616-.209c.079-.037.188-.184.17-.246-.122-.381.135-.511.4-.547.667-.1,1.356-.123,2.028-.209a14.637,14.637,0,0,0,1.715-.308.725.725,0,0,0,.374-.443c.094-.258-.084-.43-.318-.529a1.83,1.83,0,0,0-.356-.129c-.817-.148-1.644-.289-2.468-.431C9.672,1.046,8.891,1.138,8.128,1.3Z" transform="translate(5.58 6.473)" fill="#782b2f" stroke="rgba(0,0,0,0)" stroke-miterlimit="10" stroke-width="1"/>
    <path id="Path_7987" data-name="Path 7987" d="M29.023,3.566l1.245.005L28.512,5.555l.511-1.989" transform="translate(-7.897 -0.988)" fill="#fefdfa"/>
    <path id="Path_7988" data-name="Path 7988" d="M31.818,10.824l-.926-.912.3-.007,1.4.32-.778.6" transform="translate(-8.557 -2.744)" fill="#aa371c"/>
    <path id="Path_7989" data-name="Path 7989" d="M14.913,9.287c-1.589,1.315.033,3-.324,4.949-.192,1.05-.563,1.392,0,2.3.2.325.024.525.324.774a3.912,3.912,0,0,1,.595,2.846c-.214.839-1.159,2.421-1.342,3.347a16.862,16.862,0,0,1-6.529-4.821q-.1-.351-.2-.7c-.007-.046-.012-.091-.019-.136q0-.936.008-1.872l.048-.112q.254-.811.507-1.624c.024-.047.047-.095.07-.142l.364-.69.138-.216a8.74,8.74,0,0,1,2.537-2.538l.215-.134,1.857-.847.764-.223.991-.158m-4.034,5.8a.428.428,0,0,0-.478.549,1.226,1.226,0,0,0,1.006.9c.254,0,2.3-.593,2.308-.9.016-.445-2.4-.543-2.836-.549m-1.4,1-.377.4a1.913,1.913,0,0,0,.555.341c.117.025.281-.159.424-.249l-.6-.489m3.5,4.88.321-.385a4.146,4.146,0,0,0-.59-.429c-.05-.026-.207.155-.314.242l.583.572m-.84-9c.142-.152.221-.235.3-.319a4.044,4.044,0,0,0-.483-.369c-.033-.019-.159.127-.242.2l.427.49" transform="translate(-2.053 -2.572)" fill="#782b2f"/>
    <path id="Path_7990" data-name="Path 7990" d="M3.927,14.045c.108.414.215.826.341,1.307a1.23,1.23,0,0,1,1.241-.225c.141.033.256.174.406.281-.891.455-.967.683-.61,1.589-.287.072-.574.162-.868.207a.408.408,0,0,1-.3-.15,1.19,1.19,0,0,1-.146-.343l-.121.033a1.294,1.294,0,0,0,.087.338c.142.245.116.4-.178.476-.295-.706-.609-1.4-.878-2.121a.808.808,0,0,1,.468-1.158c.176-.095.37-.157.556-.234M4.99,15.652c-.2.111-.344.2-.5.278-.488.257-.544.243-.855-.219-.142-.21-.281-.423-.421-.635a1.518,1.518,0,0,0,.655,1.293c.247.139.855-.265,1.116-.717" transform="translate(-0.779 -3.89)" fill="#feba34"/>
    <path id="Path_7991" data-name="Path 7991" d="M7.753,9.792c.029.1.057.209.086.313a6.205,6.205,0,0,0-1.017.811c-.116.137.017.486.04.785l-.3-.023c-.309-.863.143-1.581,1.188-1.886" transform="translate(-1.792 -2.712)" fill="#feba36"/>
    <path id="Path_7992" data-name="Path 7992" d="M6.914,21.109c.007.046.012.09.019.136l-1.321.693a1.026,1.026,0,0,1,1.3-.829" transform="translate(-1.554 -5.837)" fill="#feba36"/>
    <path id="Path_7993" data-name="Path 7993" d="M8.153,10.33l.379.743a1.3,1.3,0,0,1,1.763-.053c-.344.328-.592.781-1.231.563-.532-.181-.809.02-1.063.582-.067.149-.118.305-.2.514-.036-.233-.281-.408.139-.694a2.742,2.742,0,0,1-.55-.411.466.466,0,0,1-.034-.445,9.649,9.649,0,0,1,.8-.8" transform="translate(-2.026 -2.861)" fill="#feba32"/>
    <path id="Path_7994" data-name="Path 7994" d="M11.117,7.7a.858.858,0,0,1,1.147-.086,1.26,1.26,0,0,1-.482,1.758c-.107.067-.139.253-.206.385q0-.955,0-1.911l.015-.035-.02.031L11.117,7.7" transform="translate(-3.079 -2.06)" fill="#feba32"/>
    <path id="Path_7995" data-name="Path 7995" d="M13.4,7.8c-.02-.015-.034-.02-.038-.029-.173-.442-.4-.929-.066-1.34.3-.371.782-.179,1.192-.124a.81.81,0,0,1,.46.214c-.344,0-.69-.009-1.034,0-.363.012-.557.183-.518.578.022.226,0,.457,0,.7" transform="translate(-3.635 -1.719)" fill="#fed403"/>
    <path id="Path_7996" data-name="Path 7996" d="M6.631,12.973c-.364.032-.727.069-1.091.095-.305.022-.467.15-.439.482.02.239,0,.482,0,.724L5,14.286a10.916,10.916,0,0,1-.1-1.112c0-.306.27-.4.518-.393.409.012.818.077,1.226.12,0,.024-.007.048-.009.072" transform="translate(-1.356 -3.54)" fill="#fed403"/>
    <path id="Path_7997" data-name="Path 7997" d="M17.94,6.568c-.354.078-.707.16-1.061.234s-.517.236-.4.616a1.322,1.322,0,0,1,.028.6,4.625,4.625,0,0,1-.221-.465c-.249-.707-.016-1.035.741-1.05.3-.006.6,0,.907,0l.007.061" transform="translate(-4.484 -1.801)" fill="#fed403"/>
    <path id="Path_7998" data-name="Path 7998" d="M7.206,17.7l-.048.111c-.343-.24-.727-.487-.692-.959.033-.44.46-.56.79-.73a4.063,4.063,0,0,1,.526-.189l-.07.142c-.127.08-.262.15-.38.241-.756.586-.76.64-.127,1.382" transform="translate(-1.79 -4.414)" fill="#fed403"/>
    <path id="Path_7999" data-name="Path 7999" d="M4.812,20.553c-.406-.258-.8-.493-.759-.993.024-.317.677-.719,1.2-.726-.684.461-1.372.9-.439,1.719" transform="translate(-1.122 -5.217)" fill="#fed403"/>
    <path id="Path_8000" data-name="Path 8000" d="M8.8,14.1l-.138.216c-.428-.168-.351-.527-.276-.842a2.967,2.967,0,0,1,.411-.9c-.047.375-.109.748-.131,1.125a1.161,1.161,0,0,0,.134.4" transform="translate(-2.307 -3.482)" fill="#fed403"/>
    <path id="Path_8001" data-name="Path 8001" d="M12.654,10.526l-.215.135a.446.446,0,0,1,.04-.677c.246-.237.525-.44.79-.657l.1.108a4.259,4.259,0,0,0-.466.513,3.206,3.206,0,0,0-.244.578" transform="translate(-3.407 -2.583)" fill="#fed403"/>
    <path id="Path_8002" data-name="Path 8002" d="M15.974,9.258l-.764.223-.39-.542h0l.52.3.361-.63.273.646" transform="translate(-4.105 -2.385)" fill="#feba32"/>
    <path id="Path_8003" data-name="Path 8003" d="M18.678,8.768l-.333.028c.119-.547.554-.764,1.022-.949l-.69.92" transform="translate(-5.081 -2.174)" fill="#fed403"/>
    <path id="Path_8004" data-name="Path 8004" d="M7.475,15.443l.233-.6.318.388-.551.216" transform="translate(-2.07 -4.11)" fill="#feba32"/>
    <path id="Path_8005" data-name="Path 8005" d="M11.435,11.109l.231-.46c.114.249.142.455-.231.46" transform="translate(-3.167 -2.95)" fill="#feba32"/>
    <path id="Path_8006" data-name="Path 8006" d="M14.782,9.043l-.1-.027.018-.028.08.054h0" transform="translate(-4.068 -2.489)" fill="#feba32"/>
    <path id="Path_8007" data-name="Path 8007" d="M8.955,9.794A5.64,5.64,0,0,1,8.693,8.9c-.056-.44.119-.638.57-.675a4.686,4.686,0,0,1,1.1.051c-.328.074-.653.162-.983.218-.428.073-.54.312-.433.707.049.181.076.369.113.555l-.106.035" transform="translate(-2.405 -2.276)" fill="#fed403"/>
    <path id="Path_8008" data-name="Path 8008" d="M34.184,15.372a1.8,1.8,0,0,1-.5-2.529,3.6,3.6,0,0,1,3.04-1.956,6.025,6.025,0,0,1,5.359,2.261,2.974,2.974,0,0,1,.589,3.065l-.073.162v0a1.215,1.215,0,0,0-.205.082,4.746,4.746,0,0,1-3.752.608,17.8,17.8,0,0,1-3.88-1.431,2.969,2.969,0,0,0-.455-.142v-.007l-.123-.111M36.507,13.3l.053.093a9.764,9.764,0,0,0,1.223-.614.639.639,0,0,0,.169-.593.815.815,0,0,0-.535-.4,1.764,1.764,0,0,0-1.437.351c-.178.137-.387.432-.347.6.046.2.339.346.544.489a.89.89,0,0,0,.33.069" transform="translate(-9.243 -3.01)" fill="#fed501"/>
    <path id="Path_8009" data-name="Path 8009" d="M34.667,17.259a2.893,2.893,0,0,1,.455.143A17.8,17.8,0,0,0,39,18.832a4.746,4.746,0,0,0,3.752-.608,1.215,1.215,0,0,1,.205-.082,2.252,2.252,0,0,1-2.074,1.679,8.072,8.072,0,0,1-4.41-1.254,19.224,19.224,0,0,1-1.81-1.308" transform="translate(-9.602 -4.78)" fill="#feba36"/>
    <path id="Path_8010" data-name="Path 8010" d="M34.5,17.1l.123.111L34.5,17.1" transform="translate(-9.555 -4.736)" fill="#feba36"/>
    <path id="Path_8011" data-name="Path 8011" d="M46.135,18.422l.073-.161-.073.161" transform="translate(-12.779 -5.058)" fill="#feba36"/>
    <path id="Path_8013" data-name="Path 8013" d="M20.6,10.218c.823.142,1.644.282,2.464.43a1.879,1.879,0,0,1,.356.134c.238.1.414.269.324.524a.731.731,0,0,1-.379.442,14.559,14.559,0,0,1-1.714.307c-.676.087-1.36.115-2.035.21-.263.038-.522.169-.4.552.02.06-.09.206-.172.246a2.193,2.193,0,0,1-.611.21,1.5,1.5,0,0,0-1.334.975c-.051.136-.273.207-.417.307-.09-.168-.243-.332-.254-.5a2.519,2.519,0,0,1,.114-.784,1.482,1.482,0,0,1,.934-1.125c.323-.114.41-.293.28-.641a.631.631,0,0,1,.5-.9c.765-.161,1.544-.259,2.342-.387" transform="translate(-4.549 -2.83)" fill="#782b2f" stroke="#782b2f" stroke-width="1"/>
    <path id="Path_8014" data-name="Path 8014" d="M12.021,17.313a1.272,1.272,0,0,1,1.038,1.055c-.011.305-.256.39-.51.392a1.226,1.226,0,0,1-1.006-.9.427.427,0,0,1,.478-.549" transform="translate(-3.195 -4.795)" fill="#782b2f" stroke="#782b2f" stroke-width="1"/>
    <path id="Path_8015" data-name="Path 8015" d="M7.314,17.756c-.633-.743-.63-.8.127-1.382.119-.091.253-.161.38-.241l-.507,1.624" transform="translate(-1.899 -4.468)" fill="#fed403"/>
    <path id="Path_8016" data-name="Path 8016" d="M10.127,18.7l.6.489c-.142.09-.306.275-.424.249a1.913,1.913,0,0,1-.555-.341l.377-.4" transform="translate(-2.701 -5.179)" fill="#782b2f" stroke="#782b2f" stroke-width="1"/>
    <path id="Path_8017" data-name="Path 8017" d="M14.888,25.133l-.583-.572c.107-.087.264-.268.314-.242a4.146,4.146,0,0,1,.59.429l-.321.385" transform="translate(-3.962 -6.735)" fill="#782b2f" stroke="#782b2f" stroke-width="1"/>
    <path id="Path_8018" data-name="Path 8018" d="M13.785,12.737l-.427-.49c.083-.07.21-.216.242-.2a4.044,4.044,0,0,1,.483.369c-.077.084-.155.167-.3.319" transform="translate(-3.7 -3.337)" fill="#782b2f" stroke="#782b2f" stroke-width="1"/>
    <path id="Path_8019" data-name="Path 8019" d="M5.147,16.047c-.261.452-.869.855-1.116.717a1.518,1.518,0,0,1-.655-1.293c.14.212.279.424.421.635.311.462.367.476.855.219.151-.08.3-.166.5-.278" transform="translate(-0.935 -4.285)" fill="#fed403"/>
    <path id="Path_8020" data-name="Path 8020" d="M11.75,7.991l.02-.031L11.754,8l0,0" transform="translate(-3.255 -2.205)" fill="#fed503"/>
    <path id="Path_8021" data-name="Path 8021" d="M37.371,13.644a.89.89,0,0,1-.33-.069c-.2-.143-.5-.293-.544-.489-.04-.169.169-.465.347-.6a1.764,1.764,0,0,1,1.437-.351.815.815,0,0,1,.535.4.639.639,0,0,1-.169.593,9.763,9.763,0,0,1-1.223.614l-.053-.093" transform="translate(-10.108 -3.351)" fill="#fed501"/>
    <path id="Path_8022" data-name="Path 8022" d="M33.909,25.77c.317.239.9.473.9.72.02.763-.647.876-1.263.92-.514.037-.962-.1-.95-.712.014-.785.653-.712,1.31-.928" transform="translate(-11.107 -7.138)" fill="#782b2f" stroke="#782b2f" stroke-width="1"/>
  </g>
</svg>
