<svg id="safer_sex_kit_icon" xmlns="http://www.w3.org/2000/svg" xmlns:xlink="http://www.w3.org/1999/xlink" width="32.787" height="38.929" viewBox="0 0 32.787 38.929">
  <defs>
    <clipPath id="clip-path">
      <rect id="Rectangle_1677" data-name="Rectangle 1677" width="32.788" height="38.928" fill="none"/>
    </clipPath>
  </defs>
  <g id="Group_2482" data-name="Group 2482" clip-path="url(#clip-path)">
    <path id="Path_7916" data-name="Path 7916" d="M0,7.122H0V20.1c0,11.46,6.3,13.408,16.394,18.83V0l-8.4,4.945A15.753,15.753,0,0,1,0,7.122Z" transform="translate(0 0)" fill="#fff"/>
    <path id="Path_7917" data-name="Path 7917" d="M54.591,7.121h0V20.1c0,11.459-6.3,13.408-16.394,18.83V0l8.4,4.945A15.759,15.759,0,0,0,54.591,7.121Z" transform="translate(-21.803 0)" fill="#d7d7d7"/>
    <path id="Path_7918" data-name="Path 7918" d="M36.726,24.814s-.431-.855-2-.855a1.677,1.677,0,0,0-.269.019,1.673,1.673,0,0,0-.269-.019c-1.571,0-2,.855-2,.855l-.538,2.693h5.619Z" transform="translate(-18.063 -13.676)" fill="#762405"/>
    <path id="Path_7919" data-name="Path 7919" d="M30.1,25.95a4.294,4.294,0,0,0,.641,2.616c.22.374.832,1.348,1.63,2.6,2.458,3.87,6.686,10.424,6.686,10.424L36.947,44.81S29.648,33.5,28.72,31.9a3.928,3.928,0,0,1-.7-2.588Z" transform="translate(-15.979 -14.813)" fill="#dc363c"/>
    <path id="Path_7920" data-name="Path 7920" d="M39.2,30.485l.185.292c.561.882,1.215,1.907,1.892,2.964.549-.87.96-1.533,1.138-1.839a3.927,3.927,0,0,0,.7-2.588L41.041,25.95a4.292,4.292,0,0,1-.641,2.616c-.178.3-.613,1-1.2,1.919" transform="translate(-22.378 -14.813)" fill="#dc363c"/>
    <path id="Path_7921" data-name="Path 7921" d="M26.782,47.29c-2.091,3.261-4.17,6.485-4.17,6.485l2.109,3.216s2.067-3.2,4.141-6.44c-.733-1.145-1.456-2.278-2.08-3.261" transform="translate(-12.907 -26.994)" fill="#dc363c"/>
  </g>
</svg>
