<svg id="text_call_icon" xmlns="http://www.w3.org/2000/svg" xmlns:xlink="http://www.w3.org/1999/xlink" width="75.672" height="43.778" viewBox="0 0 75.672 43.778">
  <defs>
    <clipPath id="clip-path">
      <rect id="Rectangle_1767" data-name="Rectangle 1767" width="75.672" height="43.778" fill="none"/>
    </clipPath>
  </defs>
  <g id="Group_2608" data-name="Group 2608" clip-path="url(#clip-path)">
    <path id="Path_8075" data-name="Path 8075" d="M29.871,24.972H5.675A5.675,5.675,0,0,1,0,19.3V5.674A5.675,5.675,0,0,1,5.675,0h24.2a5.675,5.675,0,0,1,5.675,5.675V19.3a5.675,5.675,0,0,1-5.675,5.675" transform="translate(0 3.738)" fill="#6b1a73"/>
    <path id="Path_8076" data-name="Path 8076" d="M63.355,86.472h0l13.874,6.937a1.322,1.322,0,0,0,1.739-1.838l-3.929-6.876-7.93-1.379a3.2,3.2,0,0,0-3.754,3.157" transform="translate(-46.959 -57.981)" fill="#6b1a73"/>
    <path id="Path_8077" data-name="Path 8077" d="M29.369,59h7.943c.925,0,1.739-.279,1.788-1.3.054-1.152-.8-1.536-1.815-1.536q-7.6-.03-15.2-.015c-.979,0-1.9.259-1.886,1.468s.932,1.392,1.911,1.392h7.261" transform="translate(-14.968 -37.876)" fill="#fff"/>
    <path id="Path_8078" data-name="Path 8078" d="M25.755,35.437v-.02c1.429,0,2.857.027,4.286,0,.934-.014,1.664-.423,1.683-1.433s-.717-1.407-1.661-1.407q-4.061-.029-8.12-.029c-.91,0-1.717.264-1.778,1.3C20.1,35,20.919,35.4,21.922,35.435c1.277.032,2.554,0,3.833,0" transform="translate(-14.944 -20.388)" fill="#fff"/>
    <path id="Path_8079" data-name="Path 8079" d="M57.831,59h7.943c.925,0,1.739-.279,1.788-1.3.054-1.152-.8-1.536-1.815-1.536q-7.6-.03-15.2-.015c-.979,0-1.9.259-1.886,1.468s.932,1.392,1.911,1.392h7.261" transform="translate(-36.065 -37.876)" fill="#fff"/>
    <path id="Path_8080" data-name="Path 8080" d="M54.216,35.437v-.02c1.429,0,2.857.027,4.286,0,.934-.014,1.664-.423,1.683-1.433s-.717-1.407-1.661-1.407q-4.061-.029-8.12-.029c-.91,0-1.717.264-1.778,1.3-.069,1.152.754,1.554,1.756,1.585,1.277.032,2.554,0,3.833,0" transform="translate(-36.039 -20.388)" fill="#fff"/>
    <path id="Path_8081" data-name="Path 8081" d="M157.778,45.849h24.959a5.675,5.675,0,0,0,5.675-5.675V20.115a5.676,5.676,0,0,0-5.675-5.676H157.778a5.675,5.675,0,0,0-5.675,5.676V40.173a5.675,5.675,0,0,0,5.675,5.675" transform="translate(-112.74 -10.702)" fill="#6b1a73"/>
    <path id="Path_8082" data-name="Path 8082" d="M203.273,123.2h0L189.4,131.921c-1.17.735-2.388-.884-1.739-2.312l3.929-8.649,7.93-1.734c1.96-.429,3.753,1.469,3.753,3.971" transform="translate(-138.962 -88.326)" fill="#6b1a73"/>
    <path id="Path_8083" data-name="Path 8083" d="M211.533,41.357q0,4.649,0,9.3a1.965,1.965,0,0,1-1.041,1.783,1.556,1.556,0,0,1-.681.207c-.2.016-.391.029-.587.029q-3.75,0-7.5,0a1.984,1.984,0,0,1-1.975-1.634,2.174,2.174,0,0,1-.03-.357q0-9.313,0-18.626a1.942,1.942,0,0,1,1.144-1.833,1.872,1.872,0,0,1,.862-.189q2.62,0,5.24,0c.849,0,1.7,0,2.548,0a1.959,1.959,0,0,1,.69.117,1.937,1.937,0,0,1,1.3,1.521,2.042,2.042,0,0,1,.031.4q0,4.642,0,9.284m-10.968-.3v8.089c0,.053,0,.106,0,.158a.82.82,0,0,0,.687.8,1.861,1.861,0,0,0,.257.022h8.247c.034,0,.067,0,.1,0a.828.828,0,0,0,.763-.521,1.1,1.1,0,0,0,.066-.437q0-8.125,0-16.25c0-.033,0-.067,0-.1a.82.82,0,0,0-.591-.782,1.286,1.286,0,0,0-.326-.035q-4.138,0-8.276,0c-.053,0-.106,0-.158,0a.779.779,0,0,0-.6.324.914.914,0,0,0-.171.567q0,4.081,0,8.161m5.061,11.153a.763.763,0,1,0-.767-.762.749.749,0,0,0,.767.762m.015-21.019h2.086a1.077,1.077,0,0,0,.129,0,.1.1,0,0,0,.093-.094.094.094,0,0,0-.075-.108.475.475,0,0,0-.127-.013h-4.258a.662.662,0,0,0-.072,0c-.071.008-.113.046-.116.1s.037.1.11.111a.858.858,0,0,0,.129,0h2.1" transform="translate(-148.032 -22.262)" fill="#fff"/>
    <path id="Path_8084" data-name="Path 8084" d="M264.493,56.212a9.682,9.682,0,0,1-.7,3.5,9.965,9.965,0,0,1-1.087,2.006c-.071.1-.148.2-.227.3a.5.5,0,0,1-.841-.531,1.256,1.256,0,0,1,.107-.17,8.63,8.63,0,0,0,1.426-2.929,6.878,6.878,0,0,0,.254-1.454,11.185,11.185,0,0,0,.02-1.264,8.225,8.225,0,0,0-.642-2.7,9.269,9.269,0,0,0-.8-1.477,6.708,6.708,0,0,0-.675-.875.488.488,0,0,1-.091-.536.474.474,0,0,1,.459-.311.45.45,0,0,1,.359.155c.126.144.259.284.37.439.229.318.458.638.666.971a9.276,9.276,0,0,1,.586,1.135,8.389,8.389,0,0,1,.568,1.73c.071.341.123.687.164,1.034.039.323.052.648.076.973" transform="translate(-193.605 -36.894)" fill="#fff"/>
    <path id="Path_8085" data-name="Path 8085" d="M174.5,50.26a.541.541,0,0,1-.151.367,8.989,8.989,0,0,0-1.026,1.453,8.382,8.382,0,0,0-.837,2.087,7.985,7.985,0,0,0-.222,1.314,8.811,8.811,0,0,0-.016,1.264,8.238,8.238,0,0,0,.124.967,8.449,8.449,0,0,0,.9,2.548,7.715,7.715,0,0,0,.658,1.028.886.886,0,0,1,.145.245.5.5,0,0,1-.259.6.488.488,0,0,1-.617-.151c-.21-.291-.421-.583-.607-.889a9.315,9.315,0,0,1-1.152-2.882c-.073-.336-.116-.678-.165-1.019a7.6,7.6,0,0,1-.046-1.507,9.154,9.154,0,0,1,.321-1.951,9.39,9.39,0,0,1,.549-1.479,9.773,9.773,0,0,1,1.112-1.841,4.974,4.974,0,0,1,.438-.513.488.488,0,0,1,.8.175,1.258,1.258,0,0,1,.041.18" transform="translate(-126.904 -36.88)" fill="#fff"/>
    <path id="Path_8086" data-name="Path 8086" d="M257.118,60.779a7.322,7.322,0,0,1-.476,2.587,7.176,7.176,0,0,1-.827,1.541.5.5,0,0,1-.84-.55c.092-.145.193-.286.281-.434a6.115,6.115,0,0,0,.726-1.866,5.633,5.633,0,0,0,.112-1.529,5.833,5.833,0,0,0-.891-2.774,7.46,7.46,0,0,0-.433-.608.512.512,0,0,1,.275-.83.458.458,0,0,1,.49.166c.2.266.4.538.575.822a6.644,6.644,0,0,1,.675,1.488,6.279,6.279,0,0,1,.274,1.29c.026.267.044.534.057.7" transform="translate(-188.752 -41.731)" fill="#fff"/>
    <path id="Path_8087" data-name="Path 8087" d="M180.9,60.873a7.071,7.071,0,0,1,.712-3.023,6.672,6.672,0,0,1,.872-1.365.484.484,0,0,1,.693-.078.5.5,0,0,1,.1.681c-.14.194-.285.385-.415.586a5.859,5.859,0,0,0-.882,2.318,5.61,5.61,0,0,0-.058,1.2,5.95,5.95,0,0,0,.48,2.015,6.9,6.9,0,0,0,.63,1.127.5.5,0,0,1-.218.755.472.472,0,0,1-.588-.162c-.18-.265-.355-.536-.508-.817a6.644,6.644,0,0,1-.691-1.971c-.05-.272-.07-.55-.1-.825-.016-.148-.022-.3-.032-.444" transform="translate(-134.085 -41.727)" fill="#fff"/>
  </g>
</svg>
