<svg id="ther_event_leaflets_icon" xmlns="http://www.w3.org/2000/svg" xmlns:xlink="http://www.w3.org/1999/xlink" width="46.582" height="41.979" viewBox="0 0 46.582 41.979">
  <defs>
    <clipPath id="clip-path">
      <rect id="Rectangle_1704" data-name="Rectangle 1704" width="46.582" height="41.979" fill="none"/>
    </clipPath>
  </defs>
  <g id="Group_2512" data-name="Group 2512" clip-path="url(#clip-path)">
    <path id="Path_8032" data-name="Path 8032" d="M0,32.831V.05C.782.195,1.565.336,2.346.484q2.444.463,4.888.932l4.889.928q2.444.464,4.889.927c1.18.226,2.359.458,3.538.687,0,.1,0,.195,0,.292q0,15.96,0,31.921c0,.146.008.292.012.438-.085.034-.179.109-.253.1-1.076-.2-2.147-.431-3.224-.631-.513-.1-1.921-.362-2.112-.409-.262-.065-.531-.1-.8-.153q-2.445-.463-4.89-.926c-1.629-.31-3.258-.625-4.888-.934C2.929,33.375,1.464,33.1,0,32.831m3.313-9.37,14.741,3.112V16.436L3.313,13.324Zm-.7,2.83a.848.848,0,0,0-.946.614.781.781,0,0,0,.549.883,1.22,1.22,0,0,0,.2.057c1.072.2,2.145.4,3.217.6q5.5,1.048,11,2.1c.469.089.938.19,1.412.234a.77.77,0,0,0,.843-.631.759.759,0,0,0-.531-.846,4.821,4.821,0,0,0-.694-.167q-6.632-1.26-13.264-2.516c-.62-.117-1.24-.229-1.782-.329M17.952,7.374a.846.846,0,0,0,.939-.635.753.753,0,0,0-.569-.867,6.562,6.562,0,0,0-.748-.163Q12.047,4.66,6.519,3.611C5.5,3.418,4.476,3.221,3.451,3.043a.809.809,0,0,0-.969.594.789.789,0,0,0,.638.915c.082.024.164.048.248.063.587.108,1.175.209,1.761.321q5.753,1.1,11.5,2.2c.469.089.939.171,1.319.241m.124,2.06c.011-.414-.263-.709-.794-.8q-3.8-.687-7.6-1.361c-2.013-.36-4.025-.723-6.039-1.075-.637-.112-1.049.111-1.154.59-.1.454.242.835.861.949.771.141,1.544.272,2.315.41L15.277,9.86c.587.105,1.172.221,1.761.316a.826.826,0,0,0,1.038-.742M3.3,9.252a.837.837,0,0,0-.831.6.757.757,0,0,0,.459.887,2.688,2.688,0,0,0,.492.13q4.985,1.011,9.971,2.02c.651.132,1.3.272,1.953.4a.849.849,0,0,0,1.067-.593.8.8,0,0,0-.685-.932c-.115-.029-.232-.054-.349-.078Q10.069,10.608,4.758,9.533c-.484-.1-.97-.188-1.456-.281M2.611,29.412a.848.848,0,0,0-.945.617.777.777,0,0,0,.552.879,2.351,2.351,0,0,0,.347.079l7.473,1.434c.685.131,1.37.267,2.058.388a.848.848,0,0,0,1.031-.584.8.8,0,0,0-.663-.945c-.148-.038-.3-.066-.45-.094L4.387,29.739c-.619-.117-1.239-.229-1.776-.328" transform="translate(3.689 2.855)" fill="#b0b0b0"/>
    <path id="Path_8031" data-name="Path 8031" d="M169.7,36.079c0-.144-.012-.288-.012-.432q0-15.748,0-31.5c0-.1,0-.192,0-.288.992-.194,1.983-.392,2.976-.581l3.3-.624,3.06-.578,6.358-1.2C186.925.585,188.465.3,190.044,0V32.361c-.454.089-.927.185-1.4.275L178.164,34.62c-.729.138-1.456.279-2.185.415-.081.015-6.151.94-6.276,1.045M187.62,23.133l-10.569,2.3v6.895l10.569-2.3ZM172.973,16.2v6.889l9.733-2.3V13.9l-9.733,2.3m14.609-13.4a1.556,1.556,0,0,0-.218.015q-2.356.446-4.712.9L176.8,4.817c-1.323.252-2.646.5-3.966.761a.763.763,0,0,0-.687.856.826.826,0,0,0,1.024.611c1.044-.187,2.084-.39,3.127-.583,1.82-.335,3.642-.664,5.462-1q2.481-.461,4.958-.939a9.668,9.668,0,0,0,1.225-.287.709.709,0,0,0,.492-.846.819.819,0,0,0-.854-.595m.866,3.836c-.006-.529-.488-.854-1.116-.735-1.587.3-3.171.617-4.759.917-2.117.4-4.236.789-6.353,1.188-1.141.215-2.282.433-3.419.665a.758.758,0,0,0-.65.88.825.825,0,0,0,1,.583c1.077-.191,2.152-.393,3.228-.592q2.705-.5,5.41-1Q184,8.118,186.2,7.7c.5-.094.993-.184,1.486-.292s.762-.395.757-.778m0,3.067a.823.823,0,0,0-1.079-.726c-1.573.289-3.142.6-4.713.893q-2.951.559-5.9,1.117c-1.306.248-2.612.5-3.916.756a.766.766,0,0,0-.691.853.824.824,0,0,0,1.02.616c1.077-.191,2.153-.391,3.228-.592q2.729-.51,5.457-1.024l4.812-.9c.364-.068.731-.124,1.09-.212a.807.807,0,0,0,.694-.778" transform="translate(-145.802 3.483)" fill="#b0b0b0"/>
    <path id="Path_7935" data-name="Path 7935" d="M0,32.395V.05C.733.193,1.466.332,2.2.478q2.29.457,4.579.919l4.58.916q2.29.457,4.58.915c1.106.223,2.21.452,3.315.678,0,.1,0,.192,0,.288q0,15.748,0,31.5c0,.144.007.288.011.432-.08.033-.167.108-.237.094-1.008-.2-2.012-.426-3.02-.622-.48-.094-1.8-.357-1.979-.4-.246-.064-.5-.1-.747-.151q-2.29-.456-4.58-.914c-1.526-.306-3.052-.617-4.579-.922-1.371-.273-2.743-.54-4.114-.81m3.1-9.245L16.913,26.22v-10L3.1,13.148Zm-.656,2.792a.8.8,0,0,0-.886.605.775.775,0,0,0,.514.871,1.1,1.1,0,0,0,.183.057c1,.2,2.01.393,3.014.595q5.153,1.035,10.306,2.072a13.346,13.346,0,0,0,1.323.231.729.729,0,0,0,.789-.623.753.753,0,0,0-.5-.835,4.327,4.327,0,0,0-.65-.164Q10.33,27.506,4.117,26.267c-.58-.116-1.162-.226-1.669-.325M16.817,7.277a.8.8,0,0,0,.879-.626.745.745,0,0,0-.533-.855,5.88,5.88,0,0,0-.7-.16Q11.285,4.6,6.107,3.564C5.15,3.373,4.193,3.178,3.233,3a.758.758,0,0,0-.908.586.778.778,0,0,0,.6.9,2.343,2.343,0,0,0,.232.063c.55.106,1.1.206,1.65.317Q10.194,5.954,15.582,7.04c.439.088.879.169,1.236.237m.116,2.032c.01-.409-.247-.7-.743-.794q-3.557-.678-7.117-1.343C7.188,6.818,5.3,6.46,3.416,6.111c-.6-.11-.983.109-1.081.582-.093.448.226.824.806.936.722.139,1.446.268,2.169.4l9,1.7c.55.1,1.1.218,1.649.311a.781.781,0,0,0,.973-.732M3.093,9.13a.79.79,0,0,0-.779.593.757.757,0,0,0,.43.875,2.417,2.417,0,0,0,.461.128q4.67,1,9.34,1.993c.61.13,1.219.268,1.83.392a.776.776,0,1,0,.358-1.505c-.108-.029-.217-.054-.327-.077Q9.432,10.467,4.457,9.407C4,9.31,3.548,9.222,3.093,9.13M2.446,29.021a.8.8,0,0,0-.885.609.77.77,0,0,0,.517.867,2.108,2.108,0,0,0,.325.078l7,1.415c.642.13,1.283.264,1.928.383a.775.775,0,1,0,.345-1.509c-.139-.038-.28-.065-.421-.093L4.109,29.344c-.58-.115-1.16-.226-1.664-.323" transform="translate(4.644 2.278)" fill="#f0e7b8"/>
    <path id="Path_7936" data-name="Path 7936" d="M169.7,36.079c0-.144-.011-.288-.011-.432q0-15.748,0-31.5c0-.1,0-.192,0-.288.936-.194,1.871-.392,2.809-.581q3-.6,6-1.2l6-1.2C185.957.585,187.41.3,188.9,0V32.361c-.428.089-.875.185-1.323.275l-9.89,1.983c-.688.138-1.375.279-2.063.415-.077.015-5.805.94-5.924,1.045m16.911-12.947-9.975,2.3v6.895l9.975-2.3ZM172.789,16.2v6.889l9.186-2.3V13.9l-9.186,2.3m13.788-13.4a1.387,1.387,0,0,0-.205.015q-2.224.446-4.447.9L176.4,4.817c-1.248.252-2.5.5-3.743.761a.755.755,0,0,0-.648.856.779.779,0,0,0,.966.611c.985-.187,1.967-.39,2.951-.583,1.718-.335,3.438-.664,5.155-1q2.342-.461,4.68-.939a8.694,8.694,0,0,0,1.156-.287.715.715,0,0,0,.464-.846.778.778,0,0,0-.806-.595m.817,3.836a.8.8,0,0,0-1.053-.735c-1.5.3-2.993.617-4.491.917-2,.4-4,.789-6,1.188-1.077.215-2.154.433-3.227.665a.754.754,0,0,0-.614.88.777.777,0,0,0,.945.583c1.017-.191,2.032-.393,3.047-.592q2.553-.5,5.106-1,2.084-.412,4.166-.831c.468-.094.937-.184,1.4-.292a.794.794,0,0,0,.715-.778m0,3.067a.784.784,0,0,0-1.018-.726c-1.484.289-2.965.6-4.448.893q-2.786.559-5.572,1.117c-1.233.248-2.466.5-3.7.756a.758.758,0,0,0-.652.853.778.778,0,0,0,.963.616c1.017-.191,2.032-.391,3.047-.592q2.576-.51,5.151-1.024l4.542-.9c.343-.068.69-.124,1.029-.212a.794.794,0,0,0,.655-.778" transform="translate(-145.801 2.322)" fill="#fff"/>
    <path id="Path_7937" data-name="Path 7937" d="M27.365,125.535v-10L41.174,118.6v10l-13.809-3.071" transform="translate(-19.618 -100.108)" fill="#fff"/>
    <path id="Path_7938" data-name="Path 7938" d="M14.527,228.334c.507.1,1.089.209,1.669.325q6.213,1.24,12.426,2.483a4.324,4.324,0,0,1,.65.164.753.753,0,0,1,.5.835.729.729,0,0,1-.789.623,13.382,13.382,0,0,1-1.323-.231Q22.5,231.5,17.352,230.463c-1-.2-2.009-.4-3.014-.595a1.1,1.1,0,0,1-.183-.057.775.775,0,0,1-.514-.871.8.8,0,0,1,.886-.605" transform="translate(-7.436 -200.115)" fill="#90598b"/>
    <path id="Path_7939" data-name="Path 7939" d="M34.948,30.246a.712.712,0,0,1-.179-.014c-.339-.065-.744-.139-1.147-.22q-5.389-1.083-10.777-2.168c-.549-.11-1.1-.21-1.65-.317a2.325,2.325,0,0,1-.232-.063.778.778,0,0,1-.6-.9.758.758,0,0,1,.908-.586c.96.175,1.917.369,2.874.561Q29.325,27.57,34.5,28.607a5.9,5.9,0,0,1,.7.16.745.745,0,0,1,.533.855.774.774,0,0,1-.788.624" transform="translate(-13.396 -20.695)" fill="#90598b"/>
    <path id="Path_7940" data-name="Path 7940" d="M35.064,56.473a.781.781,0,0,1-.973.732c-.552-.093-1.1-.208-1.649-.311l-9-1.7c-.723-.136-1.447-.266-2.169-.4-.58-.112-.9-.488-.806-.936.1-.473.484-.693,1.081-.582,1.887.348,3.772.706,5.657,1.061q3.559.67,7.117,1.343c.5.095.754.385.743.794" transform="translate(-13.487 -44.886)" fill="#90598b"/>
    <path id="Path_7941" data-name="Path 7941" d="M21.031,80.1c.455.092.91.181,1.364.277q4.976,1.06,9.951,2.122c.109.023.219.048.327.077a.776.776,0,1,1-.358,1.505c-.611-.124-1.22-.262-1.83-.392q-4.67-1-9.34-1.993a2.411,2.411,0,0,1-.461-.128.757.757,0,0,1-.43-.875.79.79,0,0,1,.779-.594" transform="translate(-13.294 -68.697)" fill="#90598b"/>
    <path id="Path_7942" data-name="Path 7942" d="M14.524,255.486c.5.1,1.084.208,1.664.323q3.573.712,7.145,1.426c.141.028.283.055.421.093a.775.775,0,1,1-.345,1.509c-.644-.119-1.285-.253-1.928-.383l-7-1.415a2.1,2.1,0,0,1-.325-.078.77.77,0,0,1-.517-.867.8.8,0,0,1,.885-.609" transform="translate(-7.435 -224.188)" fill="#90598b"/>
    <path id="Path_7943" data-name="Path 7943" d="M240.918,203.962v6.9l-9.975,2.3v-6.895l9.975-2.3" transform="translate(-200.107 -178.507)" fill="#e5ccea"/>
    <path id="Path_7944" data-name="Path 7944" d="M204.61,24.633a.778.778,0,0,1,.806.595.715.715,0,0,1-.464.846,8.7,8.7,0,0,1-1.156.287q-2.339.477-4.68.939c-1.718.338-3.437.667-5.155,1-.984.192-1.966.4-2.951.583a.779.779,0,0,1-.966-.611.755.755,0,0,1,.648-.856c1.246-.263,2.5-.509,3.743-.761l5.524-1.112q2.224-.448,4.447-.9a1.388,1.388,0,0,1,.205-.015" transform="translate(-163.834 -19.517)" fill="#90598b"/>
    <path id="Path_7945" data-name="Path 7945" d="M205.416,52.516a.794.794,0,0,1-.715.778c-.465.108-.934.2-1.4.292q-2.083.417-4.166.831-2.553.505-5.106,1c-1.015.2-2.03.4-3.047.592a.777.777,0,0,1-.945-.583.754.754,0,0,1,.614-.88c1.074-.232,2.15-.45,3.227-.665,2-.4,4-.788,6-1.188,1.5-.3,2.993-.615,4.491-.917a.8.8,0,0,1,1.053.735" transform="translate(-163.823 -43.564)" fill="#90598b"/>
    <path id="Path_7946" data-name="Path 7946" d="M205.429,79.657a.794.794,0,0,1-.655.778c-.338.088-.685.144-1.029.212l-4.542.9q-2.575.512-5.151,1.024c-1.015.2-2.03.4-3.047.592a.778.778,0,0,1-.963-.616.758.758,0,0,1,.652-.853c1.23-.261,2.463-.508,3.7-.756q2.785-.561,5.572-1.117c1.483-.3,2.964-.6,4.448-.893a.784.784,0,0,1,1.018.726" transform="translate(-163.836 -67.639)" fill="#90598b"/>
    <path id="Path_7947" data-name="Path 7947" d="M197.01,124.841l9.186-2.3v6.888l-9.186,2.3Z" transform="translate(-170.022 -106.323)" fill="#90598b"/>
  </g>
</svg>
