<svg xmlns="http://www.w3.org/2000/svg" xmlns:xlink="http://www.w3.org/1999/xlink" width="56.365" height="55.875" viewBox="0 0 56.365 55.875">
  <defs>
    <clipPath id="clip-path">
      <rect id="Rectangle_1513" data-name="Rectangle 1513" width="3.427" height="15.046" fill="#fff"/>
    </clipPath>
  </defs>
  <g id="collect_participant_info_icon" transform="translate(0)">
    <g id="Group_2229" data-name="Group 2229" transform="translate(-16060.646 -1089.125)">
      <g id="Group_2228" data-name="Group 2228" transform="translate(-85.169 -28.744)">
        <path id="Path_7304" data-name="Path 7304" d="M74.216,8.178c13.12,0,23.757,10.27,23.757,22.938S87.336,54.053,74.216,54.053,50.459,43.784,50.459,31.116,61.1,8.178,74.216,8.178" transform="translate(16095.356 1109.691)" fill="#6b1a73"/>
        <path id="Path_7305" data-name="Path 7305" d="M89.326,27.4h0A8.811,8.811,0,0,0,84.187,21.6,5.019,5.019,0,0,0,86.544,15.7a4.965,4.965,0,0,0-9.431-.087,5.036,5.036,0,0,0,2.323,5.978,7.313,7.313,0,0,0-5.13,5.805c-.044.382-.052,1.537-.052,1.537a11.576,11.576,0,0,0,15.291-.164ZM78.033,17.174a3.782,3.782,0,0,1,7.563.064v.02a3.764,3.764,0,0,1-3.8,3.729h-.016a3.781,3.781,0,0,1-3.749-3.813m9.618,11.674a10.01,10.01,0,0,1-4.74,1.72c-.15.015-.3.044-.45.049H81.8a10.325,10.325,0,0,1-6.213-2.024.407.407,0,0,1-.206-.426,6.453,6.453,0,0,1,12.75-.518c.176.888.3.658-.493,1.2" transform="translate(16087.775 1108.395)" fill="#fff"/>
        <rect id="Rectangle_1135" data-name="Rectangle 1135" width="22.748" height="7" transform="translate(16159.683 1135.368)" fill="#6b1a73"/>
        <path id="Path_7306" data-name="Path 7306" d="M69.214,45.075h0A8.457,8.457,0,0,0,64.281,39.5a4.819,4.819,0,0,0,2.264-5.658,4.765,4.765,0,0,0-9.051-.084,4.832,4.832,0,0,0,2.23,5.738A7.02,7.02,0,0,0,54.8,45.071c-.042.367-.05,1.475-.05,1.475a11.112,11.112,0,0,0,14.676-.158Zm-10.84-9.819a3.637,3.637,0,0,1,7.259.062v.018A3.613,3.613,0,0,1,62,38.915h-.016a3.638,3.638,0,0,1-3.6-3.661m9.232,11.208a9.611,9.611,0,0,1-4.549,1.651c-.144.014-.288.042-.433.047H62a9.916,9.916,0,0,1-5.948-1.946.392.392,0,0,1-.2-.41,6.2,6.2,0,0,1,12.239-.5c.169.852.286.632-.474,1.154" transform="translate(16093.988 1102.571)" fill="#fff"/>
        <path id="Path_7307" data-name="Path 7307" d="M109.307,45.029h0a8.487,8.487,0,0,0-4.951-5.59,4.835,4.835,0,0,0,2.273-5.678,4.781,4.781,0,0,0-9.083-.084,4.852,4.852,0,0,0,2.238,5.759,7.044,7.044,0,0,0-4.942,5.59c-.043.368-.05,1.48-.05,1.48a11.15,11.15,0,0,0,14.727-.158ZM98.428,35.177a3.65,3.65,0,0,1,7.285.061v.019a3.624,3.624,0,0,1-3.65,3.591h-.016a3.65,3.65,0,0,1-3.612-3.674M107.7,46.423a9.638,9.638,0,0,1-4.566,1.657c-.144.014-.289.043-.435.048h-.634A9.949,9.949,0,0,1,96.1,46.173a.393.393,0,0,1-.2-.411,6.218,6.218,0,0,1,12.283-.5c.17.855.287.635-.476,1.158" transform="translate(16081.232 1102.602)" fill="#fff"/>
        <path id="Path_7308" data-name="Path 7308" d="M51.963,50.391l19.843.983v5.249l-15.958-.63Z" transform="translate(16094.876 1096.243)" fill="#6b1a73"/>
        <path id="Path_7309" data-name="Path 7309" d="M88.786,51.834l19.758.046-3.731,5.041-16.027.163Z" transform="translate(16083.146 1095.784)" fill="#6b1a73"/>
        <path id="Path_7310" data-name="Path 7310" d="M89.636,57.508h0a9.534,9.534,0,0,0-5.57-6.281,5.432,5.432,0,0,0,2.553-6.379,5.373,5.373,0,0,0-10.211-.094,5.449,5.449,0,0,0,2.514,6.47,7.914,7.914,0,0,0-5.551,6.281c-.049.413-.057,1.663-.057,1.663A12.531,12.531,0,0,0,89.868,59ZM77.414,46.438a4.092,4.092,0,1,1,8.184.07v.021a4.072,4.072,0,0,1-4.108,4.035h-.019a4.092,4.092,0,0,1-4.057-4.127h0M87.823,59.076a10.823,10.823,0,0,1-5.13,1.856c-.162.016-.324.048-.489.055h-.718a11.178,11.178,0,0,1-6.705-2.194.443.443,0,0,1-.223-.465,6.985,6.985,0,0,1,13.8-.559c.191.96.324.718-.534,1.3" transform="translate(16088.074 1099.203)" fill="#fff"/>
        <path id="Path_7311" data-name="Path 7311" d="M68.242,64.673H90.991l-6.645,5.988L72.509,69.578Z" transform="translate(16089.69 1091.693)" fill="#6b1a73"/>
      </g>
    </g>
    <g id="Ellipse_415" data-name="Ellipse 415" transform="translate(29.234 28.744)" fill="#6b1a73" stroke="#fff" stroke-width="2">
      <ellipse cx="13.565" cy="13.565" rx="13.565" ry="13.565" stroke="none"/>
      <ellipse cx="13.565" cy="13.565" rx="12.565" ry="12.565" fill="none"/>
    </g>
    <g id="Group_2180" data-name="Group 2180" transform="translate(41.087 34.116)">
      <g id="Group_2179" data-name="Group 2179" transform="translate(0 0)" clip-path="url(#clip-path)">
        <path id="Path_7838" data-name="Path 7838" d="M1.121,37.138H4.292c.009,3.463,0,6.9,0,10.329a11.36,11.36,0,0,1-3.174.039Z" transform="translate(-0.983 -32.552)" fill="#fff"/>
        <path id="Path_7839" data-name="Path 7839" d="M1.743,0A1.614,1.614,0,0,1,3.427,1.657,1.593,1.593,0,0,1,1.715,3.213,1.591,1.591,0,0,1,0,1.662,1.618,1.618,0,0,1,1.743,0" transform="translate(0 0)" fill="#fff"/>
      </g>
    </g>
  </g>
</svg>
