<svg xmlns="http://www.w3.org/2000/svg" xmlns:xlink="http://www.w3.org/1999/xlink" width="62.101" height="60.911" viewBox="0 0 62.101 60.911">
  <defs>
    <clipPath id="clip-path">
      <rect id="Rectangle_1515" data-name="Rectangle 1515" width="62.101" height="56.566" fill="none"/>
    </clipPath>
  </defs>
  <g id="complete_post_event_feedback_icon" transform="translate(0)">
    <g id="Group_2190" data-name="Group 2190" transform="translate(0)">
      <g id="Group_2189" data-name="Group 2189" transform="translate(0)" clip-path="url(#clip-path)">
        <path id="Path_7852" data-name="Path 7852" d="M3.825,22.045c-.377.033-.661.054-.943.084-1.858.2-2.821,1.142-2.848,2.977q-.069,4.829,0,9.661c.028,2.059,1.066,3.161,3.138,3.1a2.221,2.221,0,0,1,2.406,1.644A27.567,27.567,0,0,0,26.344,56.048c15.645,3.124,31.226-8.261,33.125-24.075a28.869,28.869,0,0,0-.5-10.162,9.552,9.552,0,0,1-.125-1.018c.476-.12.893-.2,1.3-.332a2.52,2.52,0,0,0,1.916-2.424c.045-3.508.059-7.018.009-10.526a2.591,2.591,0,0,0-2.692-2.634c-1.1-.081-2.21-.033-3.315-.034-2.5,0-5,.048-7.5-.031a4.881,4.881,0,0,1-2.284-.638A28.286,28.286,0,0,0,4.137,21.112c-.074.276-.18.543-.311.933m39.222-17.2c-3.552,0-7.1-.018-10.656.006-2.378.017-3.344.987-3.358,3.334q-.026,4.47,0,8.941c.01,2.516.984,3.5,3.492,3.509,2.788.014,5.577.028,8.364-.013a3.418,3.418,0,0,1,2.373.793c1.746,1.431,3.548,2.8,5.328,4.184.833.65,1.64,1.34,2.514,1.932s1.6.185,1.615-.889c0-.285-.076-.571-.1-.858Q52.4,23.3,52.2,20.82a2.851,2.851,0,0,1,.552-.156c.913-.015,1.832.047,2.738-.039,1.024-.1,1.411.319,1.641,1.3A26.714,26.714,0,0,1,55.14,40.032c-.388.814-1.4,2.413-1.4,2.413s-3.148,3.037-9.4,3.05c-2.38,0-3.447-1.435-3.456.929-.011,2.932-2.393,4.614-2.394,7.546l-7.22.6c-10.893.368-21.614-7.818-24.106-16.53H16.5c-.024.366-.036.6-.055.837-.136,1.676-.321,3.35-.392,5.029-.047,1.117.638,1.477,1.576.9a11.453,11.453,0,0,0,1.035-.781c2.274-1.771,4.567-3.519,6.809-5.331a3.347,3.347,0,0,1,2.374-.784c1.392.05,2.79.058,4.181-.009a2.707,2.707,0,0,0,2.919-2.879q.055-5.047,0-10.094a2.674,2.674,0,0,0-2.7-2.8c-.525-.044-1.057-.02-1.586-.02H5.891C9.553,5.744,28.288-2.994,43.047,4.844" transform="translate(0 0)" fill="#6b1a73"/>
        <path id="Path_7853" data-name="Path 7853" d="M120.074,110.468c1.537,0,3.075,0,4.613,0,.628,0,1.208-.117,1.214-.891s-.577-.933-1.2-.934q-4.829-.01-9.658.009c-.645,0-1.187.245-1.153.981.031.654.549.833,1.137.833q2.523,0,5.045,0" transform="translate(-96.666 -77.292)" fill="#fff"/>
        <path id="Path_7854" data-name="Path 7854" d="M117.663,96.928c.812,0,1.624.02,2.435-.006.637-.021,1.159-.277,1.116-1.013-.039-.663-.552-.833-1.129-.833q-2.578,0-5.158.019c-.6,0-1.068.253-1.056.9.012.628.475.906,1.069.917.907.017,1.815,0,2.722,0v.012" transform="translate(-91.976 -67.64)" fill="#fff"/>
        <path id="Path_7855" data-name="Path 7855" d="M59.9,160c1.163,0,2.326.02,3.488-.006.912-.021,1.66-.277,1.6-1.013-.056-.663-.791-.833-1.617-.833q-3.693,0-7.386.019c-.86,0-1.529.253-1.512.9.017.628.68.906,1.531.917,1.3.017,2.6,0,3.9,0V160" transform="translate(-18.61 -112.51)" fill="#fff"/>
        <path id="Path_7856" data-name="Path 7856" d="M79.752,176.079c.488,0,.977.02,1.464-.006.383-.021.7-.277.671-1.013-.024-.663-.332-.833-.679-.833q-1.55,0-3.1.019c-.361,0-.642.253-.635.9.007.628.285.906.643.917.546.017,1.091,0,1.637,0v.012" transform="translate(-42.144 -123.951)" fill="#fff"/>
        <path id="Path_7857" data-name="Path 7857" d="M22.038,50.249q2.378,0,4.757,0c.608,0,1.23-.069,1.268-.839.041-.843-.563-.995-1.262-.993q-4.757.012-9.513,0c-.631,0-1.2.121-1.2.9s.575.914,1.2.918c1.586.008,3.171,0,4.757,0v.008" transform="translate(29.393 -34.445)" fill="#fff"/>
        <path id="Path_7858" data-name="Path 7858" d="M22.038,36.421q2.378,0,4.757,0c.608,0,1.23-.069,1.268-.839.041-.843-.563-.995-1.262-.993q-4.757.012-9.513,0c-.631,0-1.2.121-1.2.9s.575.914,1.2.918c1.586.008,3.171,0,4.757,0v.008" transform="translate(29.393 -24.607)" fill="#fff"/>
        <path id="Path_7859" data-name="Path 7859" d="M71.16,36.976c.46-.128.933-.221,1.378-.389A5.04,5.04,0,0,0,75.1,34.408a4.761,4.761,0,0,0,.727-2.683,5.162,5.162,0,0,0-8.9-3.505,4.938,4.938,0,0,0-1.094,5.331,5.043,5.043,0,0,0,4.116,3.359c.086.016.17.044.255.067Zm-.523-9.4a4.208,4.208,0,0,1,.144,8.415,4.208,4.208,0,1,1-.144-8.415" transform="translate(-32.625 -18.916)" fill="#fff"/>
        <path id="Path_7860" data-name="Path 7860" d="M75.5,40.052a.647.647,0,0,0,.643-.636.638.638,0,0,0-.66-.644.648.648,0,0,0-.644.638.629.629,0,0,0,.661.642" transform="translate(-35.641 -27.584)" fill="#fff"/>
        <path id="Path_7861" data-name="Path 7861" d="M87.531,38.781a.625.625,0,0,0-.648.629.653.653,0,1,0,1.306,0,.648.648,0,0,0-.658-.626" transform="translate(-51.16 -27.59)" fill="#fff"/>
        <path id="Path_7862" data-name="Path 7862" d="M77.1,49.686a2.689,2.689,0,0,0,2.332-1.5.386.386,0,0,0-.33-.6.4.4,0,0,0-.366.249,2,2,0,0,1-3.47.1.751.751,0,0,0-.285-.272.338.338,0,0,0-.408.105.388.388,0,0,0-.041.46,2.671,2.671,0,0,0,.862.969,2.885,2.885,0,0,0,1.705.49" transform="translate(-38.878 -33.856)" fill="#fff"/>
        <path id="Path_7863" data-name="Path 7863" d="M169.437,96.34c.46-.128.933-.221,1.378-.389a5.04,5.04,0,0,0,2.562-2.179,4.761,4.761,0,0,0,.727-2.683,5.162,5.162,0,0,0-8.9-3.505,4.938,4.938,0,0,0-1.094,5.331,5.043,5.043,0,0,0,4.116,3.359c.086.016.17.044.255.067Zm-.523-9.4a4.208,4.208,0,0,1,.144,8.415,4.208,4.208,0,1,1-.144-8.415" transform="translate(-159.261 -61.149)" fill="#fff"/>
        <path id="Path_7864" data-name="Path 7864" d="M175.288,109.268c-.611,0-1.222,0-1.833,0a1.673,1.673,0,0,0-.317.021.414.414,0,0,0-.352.411.449.449,0,0,0,.392.359,4.84,4.84,0,0,0,.53.033q1.634,0,3.268,0c.159,0,.318-.013.476-.029a.444.444,0,0,0,.415-.384.42.42,0,0,0-.375-.4,1.676,1.676,0,0,0-.291-.016q-.957,0-1.913,0Z" transform="translate(-165.626 -77.736)" fill="#fff"/>
        <path id="Path_7865" data-name="Path 7865" d="M173.779,99.416a.647.647,0,0,0,.643-.636.638.638,0,0,0-.66-.644.648.648,0,0,0-.644.638.629.629,0,0,0,.661.642" transform="translate(-162.277 -69.817)" fill="#fff"/>
        <path id="Path_7866" data-name="Path 7866" d="M185.808,98.145a.625.625,0,0,0-.648.629.653.653,0,1,0,1.306,0,.648.648,0,0,0-.658-.626" transform="translate(-177.796 -69.824)" fill="#fff"/>
      </g>
    </g>
    <g id="Group_2075" data-name="Group 2075" transform="translate(-1090.758 -537.913)">
      <path id="Path_7758" data-name="Path 7758" d="M130.082,143.333a13.025,13.025,0,1,1,13.06-13.017,13.007,13.007,0,0,1-13.06,13.017" transform="translate(1007.07 455.491)" fill="#6b1a73"/>
      <path id="Path_7759" data-name="Path 7759" d="M36.954,29.542l-6.807,6.7-3.32-3.119L24.55,35.667,30.1,41.182l9.385-9.253Z" transform="translate(1106.095 550.437)" fill="#fff"/>
    </g>
  </g>
</svg>
