<svg id="copy_link_icon" xmlns="http://www.w3.org/2000/svg" xmlns:xlink="http://www.w3.org/1999/xlink" width="58.537" height="58.541" viewBox="0 0 58.537 58.541">
  <defs>
    <clipPath id="clip-path">
      <rect id="Rectangle_1781" data-name="Rectangle 1781" width="58.537" height="58.541" fill="none"/>
    </clipPath>
  </defs>
  <g id="Mask_Group_2635" data-name="Mask Group 2635" clip-path="url(#clip-path)">
    <path id="Path_8097" data-name="Path 8097" d="M164.224,110.709c-.617-.185-1.245-.34-1.849-.561a9.037,9.037,0,0,1-4.951-4.569,7.381,7.381,0,0,1-.754-2.623c-.044-.582-.109-1.166-.109-1.749-.007-11.16-.022-22.321.01-33.481a8.476,8.476,0,0,1,2.271-5.776,8.988,8.988,0,0,1,4.79-2.834,6.087,6.087,0,0,1,1.334-.178c4.685-.013,9.37.018,14.055-.024a5.582,5.582,0,0,1,3.328,1.18,32.908,32.908,0,0,1,4.311,3.841c2.261,2.263,4.548,4.5,6.777,6.8a19.859,19.859,0,0,1,2.778,3.333,5.547,5.547,0,0,1,.949,3.007c-.03,8.361-.014,16.721-.018,25.082a8.164,8.164,0,0,1-1.719,4.956,8.907,8.907,0,0,1-5.258,3.443c-.229.054-.459.1-.689.157Zm-3.074-25.9q0,8.169.008,16.339a6.267,6.267,0,0,0,.325,2.043,4.483,4.483,0,0,0,4.077,2.934q11.2.009,22.394,0a5.375,5.375,0,0,0,1.118-.118,4.406,4.406,0,0,0,3.48-4.38q0-12.226,0-24.451a1.481,1.481,0,0,0-.008-.454,3.014,3.014,0,0,0-.447-1.057,2.712,2.712,0,0,0-1.92-.811c-1.362-.074-2.727-.1-4.092-.122-.857-.017-1.717-.049-2.57.009a2.259,2.259,0,0,1-2.174-2.18c.06-.91.026-1.828.009-2.741-.025-1.345-.06-2.69-.12-4.034A3.213,3.213,0,0,0,181,64.747a1.768,1.768,0,0,0-1.686-1.234c-4.57.027-9.141.006-13.711.017a4.394,4.394,0,0,0-2.961,1.186,4.76,4.76,0,0,0-1.489,3.754c-.015,5.446-.006,10.893-.006,16.339" transform="translate(-138.626 -52.169)" stroke="#fff" stroke-width="2"/>
    <path id="Path_8098" data-name="Path 8098" d="M0,7.688c.111-.445.208-.894.336-1.334A8.674,8.674,0,0,1,3.111,2.122,8.052,8.052,0,0,1,7.433.136,13.822,13.822,0,0,1,9.009.025C13.388.016,17.767.051,22.146,0a5.527,5.527,0,0,1,3.332,1,24.213,24.213,0,0,1,4.055,3.618c-.314,0-.529,0-.744,0a14.411,14.411,0,0,0-4.6.417.468.468,0,0,1-.354-.074,2.091,2.091,0,0,0-1.278-.351c-4.493.013-8.987.005-13.48.009A4.4,4.4,0,0,0,4.7,8.1a5.136,5.136,0,0,0-.117,1.061q-.009,15.622,0,31.244a4.508,4.508,0,0,0,3.644,4.51,2.1,2.1,0,0,0,.512.015h7v4.681c-.181.009-.364.026-.547.026-2.056,0-4.114.046-6.168-.01a9.014,9.014,0,0,1-6.377-2.632,8.858,8.858,0,0,1-2.57-4.951c0-.028-.051-.049-.078-.073V7.688" transform="translate(0 0)" stroke="#fff" stroke-width="2"/>
    <path id="Path_8099" data-name="Path 8099" d="M302.282,241.921c.171-.185.289-.32.415-.447.752-.755,1.509-1.506,2.26-2.263a5.838,5.838,0,0,1,3.224-1.817,5.193,5.193,0,0,1,4.277.977,5.129,5.129,0,0,1,1.95,3.232,5.21,5.21,0,0,1-.426,3.09,7.164,7.164,0,0,1-1.45,2.061q-2.44,2.445-4.885,4.886a5.911,5.911,0,0,1-3.611,1.75,5.175,5.175,0,0,1-3.333-.672,2.494,2.494,0,0,1-1.3-1.39,1.368,1.368,0,0,1,.346-1.4,1.172,1.172,0,0,1,1.368-.38,3.441,3.441,0,0,1,.834.41,2.391,2.391,0,0,0,2.785.2,5.573,5.573,0,0,0,1.1-.866q2.259-2.223,4.481-4.482a4.135,4.135,0,0,0,1.077-1.621,2.261,2.261,0,0,0-1.653-2.933,2.453,2.453,0,0,0-2.237.678c-.369.329-.71.69-1.051,1.048a.635.635,0,0,1-.869.145,4.167,4.167,0,0,0-3.3-.208" transform="translate(-265.06 -210.13)"/>
    <path id="Path_8100" data-name="Path 8100" d="M248.763,305.1a2.967,2.967,0,0,1-.246.344c-.751.757-1.494,1.522-2.263,2.261a5.68,5.68,0,0,1-4.663,1.695,4.924,4.924,0,0,1-3.531-1.962,5.221,5.221,0,0,1-1.04-2.735,5.4,5.4,0,0,1,.687-3.154,7.51,7.51,0,0,1,1.374-1.775c1.445-1.463,2.907-2.909,4.358-4.366a5.777,5.777,0,0,1,4.584-1.768,4.714,4.714,0,0,1,3.41,1.624,1.456,1.456,0,0,1-.627,2.246,1.489,1.489,0,0,1-1.56-.289,2.514,2.514,0,0,0-3.561.2c-1.659,1.68-3.338,3.34-5,5.012a2.547,2.547,0,0,0-.5,2.912,2.264,2.264,0,0,0,2.7,1.014,4.566,4.566,0,0,0,1.1-.64,5.089,5.089,0,0,0,.611-.6c.439-.438.439-.438.97-.17a3.8,3.8,0,0,0,3.207.152" transform="translate(-209.858 -260.008)"/>
  </g>
</svg>
