<svg id="edit_an_event_icon" xmlns="http://www.w3.org/2000/svg" xmlns:xlink="http://www.w3.org/1999/xlink" width="61.549" height="54.771" viewBox="0 0 61.549 54.771">
  <defs>
    <clipPath id="clip-path">
      <rect id="Rectangle_1511" data-name="Rectangle 1511" width="48.485" height="46.924" fill="#6b1a73" stroke="#6b1a73" stroke-width="0.5"/>
    </clipPath>
    <clipPath id="clip-path-2">
      <rect id="Rectangle_1452" data-name="Rectangle 1452" width="17.714" height="16.883" fill="#6b1a73"/>
    </clipPath>
  </defs>
  <g id="Group_2171" data-name="Group 2171" clip-path="url(#clip-path)">
    <path id="Path_7821" data-name="Path 7821" d="M9.9,7.716V10.89c-1.023.05-1.961.1-2.9.139-2.013.075-3.161,1-3.383,2.932a32.874,32.874,0,0,0-.024,3.613H44.648c.255-1.922.636-3.779-.56-5.448-1.35-1.884-3.527-.683-5.482-1.355-.047-.91-.1-1.908-.147-2.878,6.867-1.786,10.054,2.479,10.021,7.113q-.1,14.378,0,28.757c.029,3.935-2.574,7.592-7.535,7.511-11.18-.184-22.366-.048-33.549-.063C2.68,51.2.085,48.589.077,43.844.062,34.467.246,25.085,0,15.714c-.135-5.22,2.917-9.327,9.9-8M3.719,21.38c-.062.606-.152,1.076-.153,1.546-.01,6.951-.026,13.9,0,20.852C3.579,46.471,4.662,47.7,7.055,47.7q17.2.036,34.4,0c2.111,0,3.166-1.051,3.373-3.151.02-.207.024-.416.024-.624q0-10.53-.009-21.06a11.294,11.294,0,0,0-.207-1.489Z" transform="translate(0 -4.351)" fill="#6b1a73" stroke="#6b1a73" stroke-width="0.5"/>
    <rect id="Rectangle_1510" data-name="Rectangle 1510" width="16.464" height="3.251" transform="translate(16.004 3.258)" fill="#6b1a73" stroke="#6b1a73" stroke-width="0.5"/>
    <path id="Path_7822" data-name="Path 7822" d="M26.816,4.734a12.3,12.3,0,0,1,.068-3.093A2.583,2.583,0,0,1,28.416.05a1.474,1.474,0,0,1,1.805,1.529c.1,2.138.1,4.286.018,6.424A1.607,1.607,0,0,1,28.445,9.63a1.636,1.636,0,0,1-1.634-1.785c-.034-1.036-.007-2.074-.007-3.111h.012" transform="translate(-15.592 0)" fill="#6b1a73" stroke="#6b1a73" stroke-width="0.5"/>
    <path id="Path_7823" data-name="Path 7823" d="M84.549,4.941c0,.968.029,1.937-.008,2.9a1.728,1.728,0,1,1-3.452-.03c-.037-2-.028-4.011,0-6.015A1.629,1.629,0,0,1,82.724.012c1.171-.048,1.763.7,1.815,1.818.048,1.035.01,2.074.01,3.111" transform="translate(-47.256 -0.006)" fill="#6b1a73" stroke="#6b1a73" stroke-width="0.5"/>
  </g>
  <g id="Group_2172" data-name="Group 2172" transform="translate(15.387 20.956)">
    <g id="Group_2073" data-name="Group 2073" transform="translate(0 0)" clip-path="url(#clip-path-2)">
      <path id="Path_7760" data-name="Path 7760" d="M9.185.2l2.453,4.97a.367.367,0,0,0,.276.2l5.485.8a.367.367,0,0,1,.2.625l-3.969,3.869a.367.367,0,0,0-.106.325l.937,5.463a.367.367,0,0,1-.532.387L9.027,14.26a.367.367,0,0,0-.341,0L3.78,16.839a.367.367,0,0,1-.532-.387l.937-5.463a.367.367,0,0,0-.105-.325L.111,6.8a.367.367,0,0,1,.2-.625l5.485-.8a.367.367,0,0,0,.276-.2L8.528.2a.367.367,0,0,1,.658,0" transform="translate(0 0.001)" fill="#6b1a73"/>
    </g>
  </g>
  <ellipse id="Ellipse_412" data-name="Ellipse 412" cx="13.066" cy="13.066" rx="13.066" ry="13.066" transform="translate(35.418 28.64)" fill="#6b1a73"/>
  <path id="Exclusion_1" data-name="Exclusion 1" d="M7.709,2.71.346,10.074,0,13.173a.657.657,0,0,0,.722.722l3.1-.342,7.364-7.364a.331.331,0,0,0,0-.461L8.176,2.716A.333.333,0,0,0,7.709,2.71Zm5.8-.695L11.877.383a1.3,1.3,0,0,0-1.84,0L8.784,1.636a.331.331,0,0,0,0,.461L11.8,5.109a.331.331,0,0,0,.461,0L13.51,3.855A1.307,1.307,0,0,0,13.51,2.016Z" transform="translate(42.655 34.652)" fill="#fff"/>
</svg>
