<svg id="event_saved_icon" xmlns="http://www.w3.org/2000/svg" xmlns:xlink="http://www.w3.org/1999/xlink" width="69.569" height="67.331" viewBox="0 0 69.569 67.331">
  <defs>
    <clipPath id="clip-path">
      <rect id="Rectangle_1590" data-name="Rectangle 1590" width="69.569" height="67.331" transform="translate(0.001)" fill="#fff" stroke="#6b1a73" stroke-width="0.5"/>
    </clipPath>
    <clipPath id="clip-path-2">
      <rect id="Rectangle_1452" data-name="Rectangle 1452" width="25.417" height="24.225" fill="#fff"/>
    </clipPath>
  </defs>
  <g id="Group_2275" data-name="Group 2275" transform="translate(-0.001)" opacity="0.459" clip-path="url(#clip-path)">
    <path id="Path_7869" data-name="Path 7869" d="M14.207,7.826V12.38c-1.469.072-2.814.15-4.161.2-2.888.108-4.536,1.428-4.854,4.207a47.172,47.172,0,0,0-.035,5.184H64.065c.366-2.758.912-5.423-.8-7.817-1.937-2.7-5.06-.98-7.866-1.944-.067-1.306-.14-2.738-.211-4.13,9.853-2.563,14.426,3.557,14.379,10.206q-.143,20.63.005,41.263c.041,5.646-3.694,10.894-10.811,10.777-16.042-.263-32.092-.068-48.138-.09C3.846,70.227.122,66.474.111,59.665.089,46.21.354,32.748.006,19.3c-.193-7.49,4.186-13.383,14.2-11.476M5.336,27.432c-.089.87-.218,1.544-.219,2.218C5.1,39.623,5.08,49.6,5.12,59.57c.016,3.865,1.569,5.628,5,5.636q24.683.051,49.367,0c3.029-.005,4.543-1.507,4.84-4.521.029-.3.034-.6.034-.9q0-15.11-.013-30.219a16.2,16.2,0,0,0-.3-2.137Z" transform="translate(0.001 -2.997)" fill="#fff" stroke="#6b1a73" stroke-width="0.5"/>
    <rect id="Rectangle_1589" data-name="Rectangle 1589" width="23.624" height="4.665" transform="translate(22.965 4.674)" fill="#fff" stroke="#6b1a73" stroke-width="0.5"/>
    <path id="Path_7870" data-name="Path 7870" d="M26.845,6.792a17.647,17.647,0,0,1,.1-4.439,3.706,3.706,0,0,1,2.2-2.281,2.115,2.115,0,0,1,2.591,2.194c.143,3.068.143,6.15.025,9.218a2.305,2.305,0,0,1-2.574,2.333,2.348,2.348,0,0,1-2.344-2.561c-.048-1.487-.01-2.976-.01-4.464h.017" transform="translate(-10.74 0)" fill="#fff" stroke="#6b1a73" stroke-width="0.5"/>
    <path id="Path_7871" data-name="Path 7871" d="M86.064,7.086c0,1.389.041,2.78-.011,4.166a2.479,2.479,0,1,1-4.953-.044c-.053-2.876-.04-5.755.005-8.631A2.337,2.337,0,0,1,83.445.013c1.68-.068,2.529,1,2.6,2.609.069,1.485.014,2.975.015,4.464" transform="translate(-32.552 -0.004)" fill="#fff" stroke="#6b1a73" stroke-width="0.5"/>
  </g>
  <g id="Group_2276" data-name="Group 2276" transform="translate(22.077 30.07)">
    <g id="Group_2073" data-name="Group 2073" transform="translate(-0.001 0)" clip-path="url(#clip-path-2)">
      <path id="Path_7760" data-name="Path 7760" d="M13.18.293,16.7,7.424a.526.526,0,0,0,.4.288l7.87,1.144a.526.526,0,0,1,.291.9L19.563,15.3a.526.526,0,0,0-.151.466l1.344,7.838a.526.526,0,0,1-.763.555l-7.039-3.7a.526.526,0,0,0-.49,0l-7.039,3.7a.526.526,0,0,1-.763-.555L6.005,15.77a.527.527,0,0,0-.151-.466L.159,9.753a.526.526,0,0,1,.292-.9l7.87-1.144a.526.526,0,0,0,.4-.288L12.237.293a.526.526,0,0,1,.944,0" transform="translate(0 0.001)" fill="#fff"/>
    </g>
  </g>
</svg>
