<svg xmlns="http://www.w3.org/2000/svg" width="58.318" height="68.229" viewBox="0 0 58.318 68.229">
  <g id="go_survey_icon" transform="translate(1.5 1.5)">
    <rect id="Rectangle_1808" data-name="Rectangle 1808" width="55.319" height="65.23" rx="4" fill="none" stroke="#000" stroke-miterlimit="10" stroke-width="3"/>
    <g id="Group_2183" data-name="Group 2183" transform="translate(9.141 10.556)">
      <path id="Union_26" data-name="Union 26" d="M31.373,2.127H7.19q-2.926,0-5.851,0a2.485,2.485,0,0,1-.58-.076A.91.91,0,0,1,.138,1.58,1.035,1.035,0,0,1,.144.536,1.167,1.167,0,0,1,1.173.006a1,1,0,0,1,.161,0L9.4,0a1.244,1.244,0,0,1,.134,0q4.711,0,9.417,0a1.1,1.1,0,0,1,.142,0h4.776c.038,0,.08,0,.122,0q5.858,0,11.724,0a2.218,2.218,0,0,1,.526.055,1,1,0,0,1,.8,1.1.949.949,0,0,1-.557.816,1.67,1.67,0,0,1-.734.148Z" transform="translate(0 0)" stroke="#000" stroke-miterlimit="10" stroke-width="1"/>
      <path id="Path_7842" data-name="Path 7842" d="M7.192,2.125h5.893a1.675,1.675,0,0,0,.736-.148.951.951,0,0,0,.558-.814,1,1,0,0,0-.8-1.1A2.288,2.288,0,0,0,13.057,0Q7.194,0,1.331,0c-.052,0-.1,0-.157,0A1.169,1.169,0,0,0,.144.536,1.038,1.038,0,0,0,.137,1.579a.927.927,0,0,0,.625.467,2.475,2.475,0,0,0,.577.076q2.927.008,5.853,0" transform="translate(13.096 0.001)" stroke="#000" stroke-width="1"/>
      <g id="Group_2182" data-name="Group 2182" transform="translate(3.569 6.492)">
        <path id="Path_7312" data-name="Path 7312" d="M7.192,2.027h5.893a1.745,1.745,0,0,0,.736-.141.908.908,0,0,0,.558-.777.962.962,0,0,0-.8-1.053A2.4,2.4,0,0,0,13.057,0Q7.194,0,1.331,0c-.052,0-.1,0-.157,0A1.186,1.186,0,0,0,.144.511a.951.951,0,0,0-.007.994.923.923,0,0,0,.625.446,2.588,2.588,0,0,0,.577.073q2.927.008,5.853,0" transform="translate(0 0)" stroke="#000" stroke-width="1"/>
        <path id="Path_8137" data-name="Path 8137" d="M7.192,2.027h5.893a1.745,1.745,0,0,0,.736-.141.908.908,0,0,0,.558-.777.962.962,0,0,0-.8-1.053A2.4,2.4,0,0,0,13.057,0Q7.194,0,1.331,0c-.052,0-.1,0-.157,0A1.186,1.186,0,0,0,.144.511a.951.951,0,0,0-.007.994.923.923,0,0,0,.625.446,2.588,2.588,0,0,0,.577.073q2.927.008,5.853,0" transform="translate(0 14.911)" stroke="#000" stroke-width="1"/>
        <path id="Path_8129" data-name="Path 8129" d="M7.192,2.027h5.893a1.745,1.745,0,0,0,.736-.141.908.908,0,0,0,.558-.777.962.962,0,0,0-.8-1.053A2.4,2.4,0,0,0,13.057,0Q7.194,0,1.331,0c-.052,0-.1,0-.157,0A1.186,1.186,0,0,0,.144.511a.951.951,0,0,0-.007.994.923.923,0,0,0,.625.446,2.588,2.588,0,0,0,.577.073q2.927.008,5.853,0" transform="translate(0 7.455)" stroke="#000" stroke-width="1"/>
        <path id="Path_7843" data-name="Path 7843" d="M5,2.027H9.1a.9.9,0,0,0,.512-.141A.956.956,0,0,0,10,1.109.979.979,0,0,0,9.446.056,1.182,1.182,0,0,0,9.084,0Q5,0,.926,0A1.01,1.01,0,0,0,.817,0,.782.782,0,0,0,.1.511,1.314,1.314,0,0,0,.1,1.506a.711.711,0,0,0,.435.446,1.288,1.288,0,0,0,.4.073c1.357.005,2.715,0,4.072,0" transform="translate(4.692 0)" stroke="#000" stroke-width="1"/>
        <path id="Path_8139" data-name="Path 8139" d="M5,2.027H9.1a.9.9,0,0,0,.512-.141A.956.956,0,0,0,10,1.109.979.979,0,0,0,9.446.056,1.182,1.182,0,0,0,9.084,0Q5,0,.926,0A1.01,1.01,0,0,0,.817,0,.782.782,0,0,0,.1.511,1.314,1.314,0,0,0,.1,1.506a.711.711,0,0,0,.435.446,1.288,1.288,0,0,0,.4.073c1.357.005,2.715,0,4.072,0" transform="translate(4.692 14.911)" stroke="#000" stroke-width="1"/>
        <path id="Path_8128" data-name="Path 8128" d="M5,2.027H9.1a.9.9,0,0,0,.512-.141A.956.956,0,0,0,10,1.109.979.979,0,0,0,9.446.056,1.182,1.182,0,0,0,9.084,0Q5,0,.926,0A1.01,1.01,0,0,0,.817,0,.782.782,0,0,0,.1.511,1.314,1.314,0,0,0,.1,1.506a.711.711,0,0,0,.435.446,1.288,1.288,0,0,0,.4.073c1.357.005,2.715,0,4.072,0" transform="translate(4.692 7.455)" stroke="#000" stroke-width="1"/>
        <path id="Path_7846" data-name="Path 7846" d="M7.192,2.027h5.893a1.745,1.745,0,0,0,.736-.141.908.908,0,0,0,.558-.777.962.962,0,0,0-.8-1.053A2.4,2.4,0,0,0,13.057,0Q7.194,0,1.331,0c-.052,0-.1,0-.157,0A1.186,1.186,0,0,0,.144.511a.951.951,0,0,0-.007.994.923.923,0,0,0,.625.446,2.588,2.588,0,0,0,.577.073q2.927.008,5.853,0" transform="translate(5.786 0)" stroke="#000" stroke-width="1"/>
        <path id="Path_8138" data-name="Path 8138" d="M7.192,2.027h5.893a1.745,1.745,0,0,0,.736-.141.908.908,0,0,0,.558-.777.962.962,0,0,0-.8-1.053A2.4,2.4,0,0,0,13.057,0Q7.194,0,1.331,0c-.052,0-.1,0-.157,0A1.186,1.186,0,0,0,.144.511a.951.951,0,0,0-.007.994.923.923,0,0,0,.625.446,2.588,2.588,0,0,0,.577.073q2.927.008,5.853,0" transform="translate(5.786 14.911)" stroke="#000" stroke-width="1"/>
        <path id="Path_8143" data-name="Path 8143" d="M5,2.027H9.1a.9.9,0,0,0,.512-.141A.956.956,0,0,0,10,1.109.979.979,0,0,0,9.446.056,1.182,1.182,0,0,0,9.084,0Q5,0,.926,0A1.01,1.01,0,0,0,.817,0,.782.782,0,0,0,.1.511,1.314,1.314,0,0,0,.1,1.506a.711.711,0,0,0,.435.446,1.288,1.288,0,0,0,.4.073c1.357.005,2.715,0,4.072,0" transform="translate(22.319 30.579)" stroke="#000" stroke-width="1"/>
        <path id="Path_8142" data-name="Path 8142" d="M5,2.027H9.1a.9.9,0,0,0,.512-.141A.956.956,0,0,0,10,1.109.979.979,0,0,0,9.446.056,1.182,1.182,0,0,0,9.084,0Q5,0,.926,0A1.01,1.01,0,0,0,.817,0,.782.782,0,0,0,.1.511,1.314,1.314,0,0,0,.1,1.506a.711.711,0,0,0,.435.446,1.288,1.288,0,0,0,.4.073c1.357.005,2.715,0,4.072,0" transform="translate(22.319 38.413)" stroke="#000" stroke-width="1"/>
        <path id="Path_8130" data-name="Path 8130" d="M7.192,2.027h5.893a1.745,1.745,0,0,0,.736-.141.908.908,0,0,0,.558-.777.962.962,0,0,0-.8-1.053A2.4,2.4,0,0,0,13.057,0Q7.194,0,1.331,0c-.052,0-.1,0-.157,0A1.186,1.186,0,0,0,.144.511a.951.951,0,0,0-.007.994.923.923,0,0,0,.625.446,2.588,2.588,0,0,0,.577.073q2.927.008,5.853,0" transform="translate(5.786 7.455)" stroke="#000" stroke-width="1"/>
      </g>
    </g>
    <g id="Group_2666" data-name="Group 2666" transform="translate(9.141 39.934)">
      <path id="Union_26-2" data-name="Union 26" d="M31.373,2.127H7.19q-2.926,0-5.851,0a2.485,2.485,0,0,1-.58-.076A.91.91,0,0,1,.138,1.58,1.035,1.035,0,0,1,.144.536,1.167,1.167,0,0,1,1.173.006a1,1,0,0,1,.161,0L9.4,0a1.244,1.244,0,0,1,.134,0q4.711,0,9.417,0a1.1,1.1,0,0,1,.142,0h4.776c.038,0,.08,0,.122,0q5.858,0,11.724,0a2.218,2.218,0,0,1,.526.055,1,1,0,0,1,.8,1.1.949.949,0,0,1-.557.816,1.67,1.67,0,0,1-.734.148Z" transform="translate(0 0)" stroke="#000" stroke-miterlimit="10" stroke-width="1"/>
      <path id="Path_7842-2" data-name="Path 7842" d="M7.192,2.125h5.893a1.675,1.675,0,0,0,.736-.148.951.951,0,0,0,.558-.814,1,1,0,0,0-.8-1.1A2.288,2.288,0,0,0,13.057,0Q7.194,0,1.331,0c-.052,0-.1,0-.157,0A1.169,1.169,0,0,0,.144.536,1.038,1.038,0,0,0,.137,1.579a.927.927,0,0,0,.625.467,2.475,2.475,0,0,0,.577.076q2.927.008,5.853,0" transform="translate(13.096 0.001)" stroke="#000" stroke-width="1"/>
    </g>
    <rect id="Rectangle_1800" data-name="Rectangle 1800" width="3.917" height="3.917" rx="0.5" transform="translate(35.758 15.417)"/>
    <rect id="Rectangle_1805" data-name="Rectangle 1805" width="3.917" height="3.917" rx="0.5" transform="translate(10.297 46.753)"/>
    <rect id="Rectangle_1807" data-name="Rectangle 1807" width="3.917" height="3.917" rx="0.5" transform="translate(29.881 46.753)"/>
    <rect id="Rectangle_1801" data-name="Rectangle 1801" width="3.917" height="3.917" rx="0.5" transform="translate(35.758 23.251)"/>
    <rect id="Rectangle_1804" data-name="Rectangle 1804" width="3.917" height="3.917" rx="0.5" transform="translate(10.297 54.587)"/>
    <rect id="Rectangle_1806" data-name="Rectangle 1806" width="3.917" height="3.917" rx="0.5" transform="translate(29.881 54.587)"/>
    <rect id="Rectangle_1802" data-name="Rectangle 1802" width="3.917" height="3.917" rx="0.5" transform="translate(35.758 31.085)"/>
    <path id="Path_8144" data-name="Path 8144" d="M5,2.027H9.1a.9.9,0,0,0,.512-.141A.956.956,0,0,0,10,1.109.979.979,0,0,0,9.446.056,1.182,1.182,0,0,0,9.084,0Q5,0,.926,0A1.01,1.01,0,0,0,.817,0,.782.782,0,0,0,.1.511,1.314,1.314,0,0,0,.1,1.506a.711.711,0,0,0,.435.446,1.288,1.288,0,0,0,.4.073c1.357.005,2.715,0,4.072,0" transform="translate(15.443 47.627)"/>
    <path id="Path_8145" data-name="Path 8145" d="M5,2.027H9.1a.9.9,0,0,0,.512-.141A.956.956,0,0,0,10,1.109.979.979,0,0,0,9.446.056,1.182,1.182,0,0,0,9.084,0Q5,0,.926,0A1.01,1.01,0,0,0,.817,0,.782.782,0,0,0,.1.511,1.314,1.314,0,0,0,.1,1.506a.711.711,0,0,0,.435.446,1.288,1.288,0,0,0,.4.073c1.357.005,2.715,0,4.072,0" transform="translate(15.443 55.461)"/>
  </g>
</svg>
