<svg xmlns="http://www.w3.org/2000/svg" width="56.357" height="56.542" viewBox="0 0 56.357 56.542">
  <g id="please_complete_popup_icon" transform="translate(0.545 0.523)">
    <path id="Path_7875" data-name="Path 7875" d="M95.836,82.107c2.46-.682,4.988-1.183,7.364-2.08A26.935,26.935,0,0,0,116.893,68.38a25.447,25.447,0,0,0,3.883-14.338c-.389-11.048-5.483-19.392-15.356-24.45A26.934,26.934,0,0,0,73.2,35.308C65.622,43.535,63.52,53.239,67.354,63.8c3.712,10.226,11.374,16,22,17.953.46.085.907.236,1.36.356Zm-2.8-50.25a22.491,22.491,0,0,1,.77,44.972c-12.463.395-22.92-10.114-23.123-21.9C70.464,42.109,80.907,31.726,93.04,31.858" transform="translate(-65.481 -26.588)" fill="#fff" stroke="#6b1a73" stroke-width="1"/>
    <path id="Path_7876" data-name="Path 7876" d="M78.373,45.612a3.456,3.456,0,0,0,3.436-3.4,3.412,3.412,0,0,0-3.526-3.441,3.462,3.462,0,0,0-3.442,3.41,3.36,3.36,0,0,0,3.532,3.43" transform="translate(-40.93 -19.981)" fill="#fff" stroke="#6b1a73" stroke-width="1"/>
    <path id="Path_7877" data-name="Path 7877" d="M90.347,38.781a3.339,3.339,0,0,0-3.464,3.36,3.49,3.49,0,1,0,6.98-.015,3.464,3.464,0,0,0-3.516-3.345" transform="translate(-71.557 -19.977)" fill="#fff" stroke="#6b1a73" stroke-width="1"/>
    <path id="Path_7878" data-name="Path 7878" d="M88.495,58.8a14.372,14.372,0,0,0,12.464-8A2.063,2.063,0,0,0,99.2,47.588a2.153,2.153,0,0,0-1.956,1.332,10.673,10.673,0,0,1-18.547.518,4.015,4.015,0,0,0-1.521-1.454,1.807,1.807,0,0,0-2.179.563,2.075,2.075,0,0,0-.221,2.458,14.276,14.276,0,0,0,4.608,5.177A15.422,15.422,0,0,0,88.495,58.8" transform="translate(115.914 91.187) rotate(180)" fill="#fff" stroke="#6b1a73" stroke-width="1"/>
  </g>
</svg>
