<svg xmlns="http://www.w3.org/2000/svg" xmlns:xlink="http://www.w3.org/1999/xlink" width="58.318" height="68.229" viewBox="0 0 58.318 68.229">
  <defs>
    <clipPath id="clip-path">
      <rect id="Rectangle_1795" data-name="Rectangle 1795" width="25.203" height="25.238" fill="#f7f7f7"/>
    </clipPath>
  </defs>
  <g id="print_QR_icon" transform="translate(1.5 1.5)">
    <rect id="Rectangle_1796" data-name="Rectangle 1796" width="55.319" height="65.23" fill="none" stroke="#000" stroke-miterlimit="10" stroke-width="3"/>
    <rect id="Rectangle_1797" data-name="Rectangle 1797" width="42.781" height="3.551" transform="translate(5.904 42.809)"/>
    <rect id="Rectangle_1798" data-name="Rectangle 1798" width="42.781" height="3.551" transform="translate(5.904 49.567)"/>
    <rect id="Rectangle_1799" data-name="Rectangle 1799" width="20.546" height="3.551" transform="translate(17.021 56.327)"/>
    <g id="Group_2711" data-name="Group 2711" transform="translate(15.457 11.08)">
      <path id="Path_8113" data-name="Path 8113" d="M1.74,1.74H7.121V7.106H1.74ZM.024,8.855H8.816V0H.024Z" transform="translate(-0.018 0)"/>
      <path id="Path_8114" data-name="Path 8114" d="M69.73,1.9h5.327V7.313H69.73ZM67.948,9h8.866V.2H67.948Z" transform="translate(-51.617 -0.152)"/>
      <path id="Path_8115" data-name="Path 8115" d="M1.687,69.971h5.4v5.321h-5.4ZM0,77.07H8.8V68.23H0Z" transform="translate(0 -51.832)"/>
      <g id="Group_2665" data-name="Group 2665" transform="translate(0 0)" clip-path="url(#clip-path)">
        <path id="Path_8116" data-name="Path 8116" d="M75.289,54.455V56.09H71.7v-3.5H68.162V50.881h5.31V47.274l1.779-.142c.031-.534.062-1.072.1-1.7h1.593v3.416l-1.655.138v3.562l.042-.03-1.831.107V54.4l1.83.085Z" transform="translate(-51.78 -34.514)"/>
        <path id="Path_8117" data-name="Path 8117" d="M45.181,10.751v-3.4L46.9,7.218V5.457l-1.711-.123V.113h3.424V1.706l-1.667.116V3.6l1.669.116V8.938l-1.673.142-.157,1.671Z" transform="translate(-34.322 -0.086)"/>
        <path id="Path_8118" data-name="Path 8118" d="M15.045,46.931v-1.6h3.412c.05.562.1,1.068.156,1.736h5.272v3.511h-1.57c-.047-.534-.094-1.068-.152-1.725H16.851l-.178-1.786-1.628-.135" transform="translate(-11.429 -34.435)"/>
        <path id="Path_8119" data-name="Path 8119" d="M58.266,92.648c.054-.63.1-1.134.146-1.721h1.621v3.367H53V92.648Z" transform="translate(-40.264 -69.074)"/>
        <path id="Path_8120" data-name="Path 8120" d="M48.814,77.461V79.1l-1.741.142-.154,1.723H45.345V75.713h1.549c.052.533.105,1.068.165,1.675l1.791.108Z" transform="translate(-34.447 -57.516)"/>
        <path id="Path_8121" data-name="Path 8121" d="M71.564,48.783H69.947c-.051-.554-.1-1.092-.159-1.726l-1.622-.141V45.3h3.4Z" transform="translate(-51.783 -34.416)"/>
        <path id="Path_8122" data-name="Path 8122" d="M59.8,74.94l1.714.134v1.614l-1.735.152.035.036.029-1.98Z" transform="translate(-45.41 -56.895)"/>
        <path id="Path_8123" data-name="Path 8123" d="M97.8,74.945l1.7.149v1.62l-1.694.137.038.029q0-.982,0-1.965Z" transform="translate(-74.299 -56.91)"/>
        <path id="Path_8124" data-name="Path 8124" d="M92.441,98v1.643H90.722V98.035h1.753Z" transform="translate(-68.918 -74.447)"/>
        <path id="Path_8125" data-name="Path 8125" d="M97.907,92.641V90.9h1.621v1.707H97.874Z" transform="translate(-74.351 -69.053)"/>
        <path id="Path_8126" data-name="Path 8126" d="M0,0H1.559V1.59H0Z" transform="translate(0.015 10.876)"/>
        <rect id="Rectangle_1788" data-name="Rectangle 1788" width="1.548" height="1.592" transform="translate(12.744 10.878)"/>
        <rect id="Rectangle_1789" data-name="Rectangle 1789" width="1.662" height="1.574" transform="translate(1.714 12.764)"/>
        <rect id="Rectangle_1790" data-name="Rectangle 1790" width="1.619" height="1.538" transform="translate(14.502 14.565)"/>
        <path id="Path_8127" data-name="Path 8127" d="M54.646,69.783H52.939V68.166H54.6v1.661Z" transform="translate(-40.216 -51.783)"/>
        <rect id="Rectangle_1791" data-name="Rectangle 1791" width="1.597" height="1.554" transform="translate(16.375 20.022)"/>
        <rect id="Rectangle_1792" data-name="Rectangle 1792" width="1.551" height="1.594" transform="translate(3.638 3.621)"/>
        <rect id="Rectangle_1793" data-name="Rectangle 1793" width="1.58" height="1.608" transform="translate(19.983 3.649)"/>
        <rect id="Rectangle_1794" data-name="Rectangle 1794" width="1.563" height="1.607" transform="translate(3.632 20.017)"/>
      </g>
    </g>
  </g>
</svg>
