<svg xmlns="http://www.w3.org/2000/svg" xmlns:xlink="http://www.w3.org/1999/xlink" width="71.098" height="59.382" viewBox="0 0 71.098 59.382">
  <defs>
    <clipPath id="clip-path">
      <rect id="Rectangle_1514" data-name="Rectangle 1514" width="34.186" height="29.318" fill="#6b1a73"/>
    </clipPath>
  </defs>
  <g id="upload_docs_icon" transform="translate(1.5)">
    <g id="Group_2186" data-name="Group 2186" transform="translate(-704.212 -290.109)">
      <path id="Path_7840" data-name="Path 7840" d="M0,21.811Q0,13.753,0,5.7a5.866,5.866,0,0,1,1.13-3.584A5.092,5.092,0,0,1,2.992.546,5.021,5.021,0,0,1,5,.027C5.252.016,5.508,0,5.764,0Q18.058,0,30.353,0a5.256,5.256,0,0,1,2.917.81,5.393,5.393,0,0,1,1.737,1.842,5.737,5.737,0,0,1,.754,2.64c.019.354.027.708.027,1.062q0,15.705,0,31.411a6.551,6.551,0,0,1-.518,2.689,5.354,5.354,0,0,1-1.019,1.525,4.934,4.934,0,0,1-2.35,1.433,5.753,5.753,0,0,1-1.459.194q-12.544.006-25.088,0a5.25,5.25,0,0,1-2.417-.555,5.242,5.242,0,0,1-1.452-1.131A5.628,5.628,0,0,1,.05,38.7,6.638,6.638,0,0,1,0,37.882q0-8.035,0-16.071" transform="translate(704.212 299.39)" fill="none" stroke="#6b1a73" stroke-width="3"/>
      <path id="Path_7841" data-name="Path 7841" d="M130.082,143.333a13.025,13.025,0,1,1,13.06-13.017,13.007,13.007,0,0,1-13.06,13.017" transform="translate(610.902 206.158)" fill="#6b1a73"/>
      <g id="Group_2181" data-name="Group 2181" transform="translate(3.254 -206.998)">
        <g id="Group_1858" data-name="Group 1858" transform="translate(731 535)">
          <path id="Polygon_15" data-name="Polygon 15" d="M5.143,1.429a1,1,0,0,1,1.715,0l4.234,7.056A1,1,0,0,1,10.234,10H1.766A1,1,0,0,1,.909,8.486Z" transform="translate(1)" fill="#fff"/>
          <rect id="Rectangle_1252" data-name="Rectangle 1252" width="4" height="9" rx="1" transform="translate(5 6)" fill="#fff"/>
        </g>
      </g>
      <g id="Group_2183" data-name="Group 2183" transform="translate(710.55 308.037)">
        <path id="Path_7241" data-name="Path 7241" d="M5.191,2.18H9.445a.912.912,0,0,0,.531-.152,1.041,1.041,0,0,0,.4-.835A1.062,1.062,0,0,0,9.8.06,1.186,1.186,0,0,0,9.425,0Q5.193,0,.961,0A1.011,1.011,0,0,0,.847,0,.813.813,0,0,0,.1.55,1.461,1.461,0,0,0,.1,1.619.752.752,0,0,0,.55,2.1a1.294,1.294,0,0,0,.416.078c1.408.006,2.817,0,4.225,0" transform="translate(0 0)" fill="#6b1a73"/>
        <path id="Path_7851" data-name="Path 7851" d="M5.191,2.18H9.445a.912.912,0,0,0,.531-.152,1.041,1.041,0,0,0,.4-.835A1.062,1.062,0,0,0,9.8.06,1.186,1.186,0,0,0,9.425,0Q5.193,0,.961,0A1.011,1.011,0,0,0,.847,0,.813.813,0,0,0,.1.55,1.461,1.461,0,0,0,.1,1.619.752.752,0,0,0,.55,2.1a1.294,1.294,0,0,0,.416.078c1.408.006,2.817,0,4.225,0" transform="translate(0 5.995)" fill="#6b1a73"/>
        <path id="Path_7842" data-name="Path 7842" d="M5.191,2.18H9.445a.912.912,0,0,0,.531-.152,1.041,1.041,0,0,0,.4-.835A1.062,1.062,0,0,0,9.8.06,1.186,1.186,0,0,0,9.425,0Q5.193,0,.961,0A1.011,1.011,0,0,0,.847,0,.813.813,0,0,0,.1.55,1.461,1.461,0,0,0,.1,1.619.752.752,0,0,0,.55,2.1a1.294,1.294,0,0,0,.416.078c1.408.006,2.817,0,4.225,0" transform="translate(5.918 0)" fill="#6b1a73"/>
        <path id="Path_7850" data-name="Path 7850" d="M5.191,2.18H9.445a.912.912,0,0,0,.531-.152,1.041,1.041,0,0,0,.4-.835A1.062,1.062,0,0,0,9.8.06,1.186,1.186,0,0,0,9.425,0Q5.193,0,.961,0A1.011,1.011,0,0,0,.847,0,.813.813,0,0,0,.1.55,1.461,1.461,0,0,0,.1,1.619.752.752,0,0,0,.55,2.1a1.294,1.294,0,0,0,.416.078c1.408.006,2.817,0,4.225,0" transform="translate(5.918 5.995)" fill="#6b1a73"/>
        <path id="Path_7313" data-name="Path 7313" d="M5.191,2.18H9.445a.912.912,0,0,0,.531-.152,1.041,1.041,0,0,0,.4-.835A1.062,1.062,0,0,0,9.8.06,1.186,1.186,0,0,0,9.425,0Q5.193,0,.961,0A1.011,1.011,0,0,0,.847,0,.813.813,0,0,0,.1.55,1.461,1.461,0,0,0,.1,1.619.752.752,0,0,0,.55,2.1a1.294,1.294,0,0,0,.416.078c1.408.006,2.817,0,4.225,0" transform="translate(0 23.294)" fill="#6b1a73"/>
        <path id="Path_7844" data-name="Path 7844" d="M5.191,2.18H9.445a.912.912,0,0,0,.531-.152,1.041,1.041,0,0,0,.4-.835A1.062,1.062,0,0,0,9.8.06,1.186,1.186,0,0,0,9.425,0Q5.193,0,.961,0A1.011,1.011,0,0,0,.847,0,.813.813,0,0,0,.1.55,1.461,1.461,0,0,0,.1,1.619.752.752,0,0,0,.55,2.1a1.294,1.294,0,0,0,.416.078c1.408.006,2.817,0,4.225,0" transform="translate(5.918 23.294)" fill="#6b1a73"/>
        <g id="Group_2182" data-name="Group 2182" transform="translate(0 0)">
          <path id="Path_7845" data-name="Path 7845" d="M5.191,2.18H9.445a.912.912,0,0,0,.531-.152,1.041,1.041,0,0,0,.4-.835A1.062,1.062,0,0,0,9.8.06,1.186,1.186,0,0,0,9.425,0Q5.193,0,.961,0A1.011,1.011,0,0,0,.847,0,.813.813,0,0,0,.1.55,1.461,1.461,0,0,0,.1,1.619.752.752,0,0,0,.55,2.1a1.294,1.294,0,0,0,.416.078c1.408.006,2.817,0,4.225,0" transform="translate(12.819 0)" fill="#6b1a73"/>
          <path id="Path_7312" data-name="Path 7312" d="M5.191,2.18H9.445a.912.912,0,0,0,.531-.152,1.041,1.041,0,0,0,.4-.835A1.062,1.062,0,0,0,9.8.06,1.186,1.186,0,0,0,9.425,0Q5.193,0,.961,0A1.011,1.011,0,0,0,.847,0,.813.813,0,0,0,.1.55,1.461,1.461,0,0,0,.1,1.619.752.752,0,0,0,.55,2.1a1.294,1.294,0,0,0,.416.078c1.408.006,2.817,0,4.225,0" transform="translate(0 11.647)" fill="#6b1a73"/>
          <path id="Path_7843" data-name="Path 7843" d="M5.191,2.18H9.445a.912.912,0,0,0,.531-.152,1.041,1.041,0,0,0,.4-.835A1.062,1.062,0,0,0,9.8.06,1.186,1.186,0,0,0,9.425,0Q5.193,0,.961,0A1.011,1.011,0,0,0,.847,0,.813.813,0,0,0,.1.55,1.461,1.461,0,0,0,.1,1.619.752.752,0,0,0,.55,2.1a1.294,1.294,0,0,0,.416.078c1.408.006,2.817,0,4.225,0" transform="translate(5.918 11.647)" fill="#6b1a73"/>
          <path id="Path_7846" data-name="Path 7846" d="M5.191,2.18H9.445a.912.912,0,0,0,.531-.152,1.041,1.041,0,0,0,.4-.835A1.062,1.062,0,0,0,9.8.06,1.186,1.186,0,0,0,9.425,0Q5.193,0,.961,0A1.011,1.011,0,0,0,.847,0,.813.813,0,0,0,.1.55,1.461,1.461,0,0,0,.1,1.619.752.752,0,0,0,.55,2.1a1.294,1.294,0,0,0,.416.078c1.408.006,2.817,0,4.225,0" transform="translate(12.819 11.647)" fill="#6b1a73"/>
          <path id="Path_7847" data-name="Path 7847" d="M5.191,2.18H9.445a.912.912,0,0,0,.531-.152,1.041,1.041,0,0,0,.4-.835A1.062,1.062,0,0,0,9.8.06,1.186,1.186,0,0,0,9.425,0Q5.193,0,.961,0A1.011,1.011,0,0,0,.847,0,.813.813,0,0,0,.1.55,1.461,1.461,0,0,0,.1,1.619.752.752,0,0,0,.55,2.1a1.294,1.294,0,0,0,.416.078c1.408.006,2.817,0,4.225,0" transform="translate(12.819 23.294)" fill="#6b1a73"/>
        </g>
        <g id="Group_2187" data-name="Group 2187" transform="translate(0 5.995)">
          <path id="Path_7845-2" data-name="Path 7845" d="M5.191,2.18H9.445a.912.912,0,0,0,.531-.152,1.041,1.041,0,0,0,.4-.835A1.062,1.062,0,0,0,9.8.06,1.186,1.186,0,0,0,9.425,0Q5.193,0,.961,0A1.011,1.011,0,0,0,.847,0,.813.813,0,0,0,.1.55,1.461,1.461,0,0,0,.1,1.619.752.752,0,0,0,.55,2.1a1.294,1.294,0,0,0,.416.078c1.408.006,2.817,0,4.225,0" transform="translate(12.819 0)" fill="#6b1a73"/>
          <path id="Path_7312-2" data-name="Path 7312" d="M5.191,2.18H9.445a.912.912,0,0,0,.531-.152,1.041,1.041,0,0,0,.4-.835A1.062,1.062,0,0,0,9.8.06,1.186,1.186,0,0,0,9.425,0Q5.193,0,.961,0A1.011,1.011,0,0,0,.847,0,.813.813,0,0,0,.1.55,1.461,1.461,0,0,0,.1,1.619.752.752,0,0,0,.55,2.1a1.294,1.294,0,0,0,.416.078c1.408.006,2.817,0,4.225,0" transform="translate(0 11.647)" fill="#6b1a73"/>
          <path id="Path_7843-2" data-name="Path 7843" d="M5.191,2.18H9.445a.912.912,0,0,0,.531-.152,1.041,1.041,0,0,0,.4-.835A1.062,1.062,0,0,0,9.8.06,1.186,1.186,0,0,0,9.425,0Q5.193,0,.961,0A1.011,1.011,0,0,0,.847,0,.813.813,0,0,0,.1.55,1.461,1.461,0,0,0,.1,1.619.752.752,0,0,0,.55,2.1a1.294,1.294,0,0,0,.416.078c1.408.006,2.817,0,4.225,0" transform="translate(5.918 11.647)" fill="#6b1a73"/>
          <path id="Path_7846-2" data-name="Path 7846" d="M5.191,2.18H9.445a.912.912,0,0,0,.531-.152,1.041,1.041,0,0,0,.4-.835A1.062,1.062,0,0,0,9.8.06,1.186,1.186,0,0,0,9.425,0Q5.193,0,.961,0A1.011,1.011,0,0,0,.847,0,.813.813,0,0,0,.1.55,1.461,1.461,0,0,0,.1,1.619.752.752,0,0,0,.55,2.1a1.294,1.294,0,0,0,.416.078c1.408.006,2.817,0,4.225,0" transform="translate(12.819 11.647)" fill="#6b1a73"/>
        </g>
      </g>
    </g>
    <g id="Group_2185" data-name="Group 2185" transform="matrix(0.978, 0.208, -0.208, 0.978, 36.16, 0)">
      <g id="Group_2184" data-name="Group 2184" clip-path="url(#clip-path)">
        <path id="Path_7848" data-name="Path 7848" d="M4.5,22.927H3.451c-1.122,0,.3-1.041.18-2.139-.148-1.406-.322-3.094-.449-4.5C2.859,12.7.561,9.907.236,6.316.158,5.454.058,4.593.005,3.73A1.585,1.585,0,0,1,1.589,1.871c2.672-.239,5.346-.454,8.019-.678l9.571-.8c1.552-.13,3.1-.273,4.658-.384a1.721,1.721,0,0,1,2.041,1.8c.081,1.006.174,2.011.269,3.016.019.2.072.393.12.648,1.1.067,2.184.14,3.272.2.951.051,1.906.05,2.853.139a1.755,1.755,0,0,1,1.79,2.08c-.194,3.8-.422,7.606-.627,11.409-.144,2.68-.27,5.361-.408,8.041a1.851,1.851,0,0,1-2.1,1.976c-.231,0-.462-.009-.692-.021q-3.5-.172-7-.346-8.56-.415-17.12-.828a1.792,1.792,0,0,1-1.9-2.066c.009-.519.042-1.038.072-1.557.028-.487.065-.974.106-1.573M30.653,23.98l.17-.062q.349-6.646.7-13.292c.023-.432.055-.865.044-1.3-.017-.685-.247-.92-.943-.969C29.7,8.3,28.78,8.249,27.858,8.2q-4.838-.239-9.677-.471c-3.024-.143-6.048-.287-9.073-.41-1.156-.047-1.331.143-1.388,1.33-.078,1.613-.145,3.227-.231,4.839-.147,2.764-.308,5.527-.457,8.291-.019.346,0,.693,0,1.173C9.7,20.085,12.245,17.334,14.8,14.6c1.024-1.1,1.841-1.07,2.826.05S19.6,16.91,20.6,18.025a1.174,1.174,0,0,0,1.82.212c.383-.257.74-.552,1.127-.8a1.144,1.144,0,0,1,1.751.214c.484.534.934,1.1,1.4,1.65l3.955,4.682M23.918,5.33c-.062-.671-.111-1.265-.172-1.858-.09-.866-.271-1.041-1.166-.982-1.64.108-3.278.245-4.916.379q-7.111.585-14.222,1.176c-.883.073-1.1.326-1.021,1.2.261,2.958.511,5.917.774,8.874.116,1.3.254,2.606.4,4.111.532-.868,1.227-1.371,1.27-2.3.144-3.14.327-6.279.493-9.417A1.834,1.834,0,0,1,7.422,4.589c.807.022,1.614.061,2.421.1q6.351.318,12.7.637c.424.021.849,0,1.373,0" transform="translate(0 0.001)" fill="#6b1a73"/>
        <path id="Path_7849" data-name="Path 7849" d="M137.278,61.609a2.656,2.656,0,0,1-2.676-2.689,2.7,2.7,0,1,1,5.394.038,2.664,2.664,0,0,1-2.718,2.651" transform="translate(-111.283 -46.463)" fill="#6b1a73"/>
      </g>
    </g>
  </g>
</svg>
