<svg id="Download_historical_data" xmlns="http://www.w3.org/2000/svg" xmlns:xlink="http://www.w3.org/1999/xlink" width="68.404" height="53.519" viewBox="0 0 68.404 53.519">
  <defs>
    <clipPath id="clip-path">
      <rect id="Rectangle_1259" data-name="Rectangle 1259" width="68.404" height="53.519" fill="none"/>
    </clipPath>
  </defs>
  <g id="Group_1867" data-name="Group 1867" clip-path="url(#clip-path)">
    <path id="Path_7717" data-name="Path 7717" d="M35.729,53.967a2.2,2.2,0,0,1-3,.3,2.11,2.11,0,0,1-.31-.3L23.034,42.93a1.977,1.977,0,0,1,.308-2.867,2.194,2.194,0,0,1,1.347-.457H43.457a2.087,2.087,0,0,1,2.134,2.038,1.98,1.98,0,0,1-.478,1.286Z" transform="translate(0.128 -1.201)" fill="#fff"/>
    <path id="Path_7718" data-name="Path 7718" d="M35.638,49.005h-6.4a2.087,2.087,0,0,1-2.132-2.038V30.659A2.087,2.087,0,0,1,29.24,28.62h6.4a2.087,2.087,0,0,1,2.132,2.039V46.967a2.087,2.087,0,0,1-2.132,2.038" transform="translate(1.762 -4.485)" fill="#fff"/>
    <path id="Path_7719" data-name="Path 7719" d="M65.627,24.151h-.052a15.7,15.7,0,0,0-3.087-3.626,16.2,16.2,0,0,0-12.13-3.977A18.777,18.777,0,0,0,43.145,4.608,19.692,19.692,0,0,0,29.341.465a19.6,19.6,0,0,0-18.279,16.95,3.537,3.537,0,0,1-.408.209A16.4,16.4,0,0,0,4.43,21.863a15.188,15.188,0,0,0,1.6,22.1c4.3,3.657,9.451,4.226,14.926,3.7l-2.388-4.29v0a33.086,33.086,0,0,1-4.013-.355,11.007,11.007,0,0,1-8.766-7.416A10.23,10.23,0,0,1,5.4,29.778H5.41c.139-.373.276-.72.4-1.073a11.02,11.02,0,0,1,2.994-4.555H8.788a11.43,11.43,0,0,1,5.025-2.717,2.331,2.331,0,0,0,2.026-2.488,15.622,15.622,0,0,1,.3-2.507,14.826,14.826,0,0,1,14.9-11.408,14.839,14.839,0,0,1,11.9,5.993,13.084,13.084,0,0,1,2.768,7.833c.049,1.931,1.311,2.815,3.278,2.471a13.319,13.319,0,0,1,2.985-.278,11.558,11.558,0,0,1,10.557,7.655c.123.353.261.7.4,1.073h.014a10.221,10.221,0,0,1-.391,5.827,11.007,11.007,0,0,1-8.765,7.416,33.086,33.086,0,0,1-4.013.355v0l-2.388,4.29c5.474.522,10.626-.047,14.925-3.7a15.175,15.175,0,0,0,3.315-19.815" transform="translate(0.037 0.018)" fill="#fff" stroke="#6b1a73" stroke-width="1"/>
    <path id="Path_7720" data-name="Path 7720" d="M65.627,24.151h-.052a15.7,15.7,0,0,0-3.087-3.626,16.2,16.2,0,0,0-12.13-3.977A18.777,18.777,0,0,0,43.145,4.608,19.692,19.692,0,0,0,29.341.465a19.6,19.6,0,0,0-18.279,16.95,3.537,3.537,0,0,1-.408.209A16.4,16.4,0,0,0,4.43,21.863a15.188,15.188,0,0,0,1.6,22.1c4.3,3.657,9.451,4.226,14.926,3.7l-2.388-4.29v0a33.086,33.086,0,0,1-4.013-.355,11.007,11.007,0,0,1-8.766-7.416A10.23,10.23,0,0,1,5.4,29.778H5.41c.139-.373.276-.72.4-1.073a11.02,11.02,0,0,1,2.994-4.555H8.788a11.43,11.43,0,0,1,5.025-2.717,2.331,2.331,0,0,0,2.026-2.488,15.622,15.622,0,0,1,.3-2.507,14.826,14.826,0,0,1,14.9-11.408,14.839,14.839,0,0,1,11.9,5.993,13.084,13.084,0,0,1,2.768,7.833c.049,1.931,1.311,2.815,3.278,2.471a13.319,13.319,0,0,1,2.985-.278,11.558,11.558,0,0,1,10.557,7.655c.123.353.261.7.4,1.073h.014a10.221,10.221,0,0,1-.391,5.827,11.007,11.007,0,0,1-8.765,7.416,33.086,33.086,0,0,1-4.013.355v0l-2.388,4.29c5.474.522,10.626-.047,14.925-3.7A15.175,15.175,0,0,0,65.627,24.151Z" transform="translate(0.037 0.018)" fill="none"/>
  </g>
</svg>
