<svg xmlns="http://www.w3.org/2000/svg" width="26.301" height="26.29" viewBox="0 0 26.301 26.29">
  <g id="user_icon" data-name="user icon" transform="translate(0.15 0.15)">
    <g id="Group_2080" data-name="Group 2080" transform="translate(-912 -19)">
      <path id="Path_7747" data-name="Path 7747" d="M11.886,0A12.143,12.143,0,0,1,23.771,12.386,12.143,12.143,0,0,1,11.886,24.771,12.143,12.143,0,0,1,0,12.386,12.143,12.143,0,0,1,11.886,0Z" transform="translate(913.114 19.665)" fill="#efb827"/>
      <path id="Path_7085" data-name="Path 7085" d="M95.8,83.013A12.995,12.995,0,1,1,82.771,95.976,13.016,13.016,0,0,1,95.8,83.013m8.4,21.117a11.728,11.728,0,1,0-16.857,0A8.7,8.7,0,0,1,93.1,97.617,5.652,5.652,0,0,1,90.5,90.9a5.57,5.57,0,0,1,10.584.1,5.634,5.634,0,0,1-2.647,6.615,8.725,8.725,0,0,1,5.769,6.515M95.75,107.74c.248,0,.5.007.745,0,.169-.007.337-.039.506-.056a11.238,11.238,0,0,0,5.32-1.93c.889-.6.751-.35.554-1.347a7.243,7.243,0,0,0-14.31.58.459.459,0,0,0,.231.479,11.6,11.6,0,0,0,6.954,2.276m0-10.812a4.221,4.221,0,0,0,4.261-4.208,4.244,4.244,0,1,0-4.261,4.208" transform="translate(829.229 -64.012)" stroke="#000" stroke-width="0.3"/>
    </g>
  </g>
</svg>
