<svg id="date_icon" xmlns="http://www.w3.org/2000/svg" xmlns:xlink="http://www.w3.org/1999/xlink" width="22.441" height="21.719" viewBox="0 0 22.441 21.719">
  <defs>
    <clipPath id="clip-path">
      <rect id="Rectangle_1506" data-name="Rectangle 1506" width="22.441" height="21.719" fill="none"/>
    </clipPath>
  </defs>
  <g id="Group_2163" data-name="Group 2163" clip-path="url(#clip-path)">
    <path id="Path_7814" data-name="Path 7814" d="M4.583,7.581V9.05c-.474.023-.908.048-1.342.064a1.422,1.422,0,0,0-1.566,1.357,15.216,15.216,0,0,0-.011,1.672h19a3.276,3.276,0,0,0-.259-2.522c-.625-.872-1.632-.316-2.537-.627-.022-.421-.045-.883-.068-1.332,3.178-.827,4.653,1.147,4.638,3.292q-.046,6.655,0,13.31a3.291,3.291,0,0,1-3.487,3.476c-5.175-.085-10.352-.022-15.528-.029A3.071,3.071,0,0,1,.036,24.3C.029,19.962.114,15.62,0,11.283c-.062-2.416,1.35-4.317,4.581-3.7M1.721,13.905c-.029.28-.07.5-.071.715,0,3.217-.012,6.434,0,9.651.005,1.247.506,1.816,1.614,1.818q7.962.017,15.925,0a1.406,1.406,0,0,0,1.561-1.458c.009-.1.011-.193.011-.289q0-4.874,0-9.748a5.227,5.227,0,0,0-.1-.689Z" transform="translate(0 -6.023)" fill="#6b1a73"/>
    <rect id="Rectangle_1505" data-name="Rectangle 1505" width="7.62" height="1.505" transform="translate(7.408 1.508)" fill="#6b1a73"/>
    <path id="Path_7815" data-name="Path 7815" d="M26.779,2.191A5.692,5.692,0,0,1,26.81.759,1.2,1.2,0,0,1,27.52.023a.682.682,0,0,1,.836.708c.046.99.046,1.984.008,2.974a.744.744,0,0,1-.83.753.757.757,0,0,1-.756-.826c-.016-.48,0-.96,0-1.44h.005" transform="translate(-21.584 0)" fill="#6b1a73"/>
    <path id="Path_7816" data-name="Path 7816" d="M82.678,2.292c0,.448.013.9,0,1.344a.8.8,0,1,1-1.6-.014c-.017-.928-.013-1.856,0-2.784a.754.754,0,0,1,.755-.827c.542-.022.816.322.84.842.022.479,0,.96,0,1.44" transform="translate(-65.417 -0.008)" fill="#6b1a73"/>
    <path id="Path_7817" data-name="Path 7817" d="M34.949,53.8c.3-.259.487-.432.685-.592.148-.119.309-.221.578-.41l2.472,3.036,4.486-6.283,1.294.9c-.205.314-.367.581-.547.835-1.427,2.02-2.851,4.042-4.29,6.053-.649.907-1.088.916-1.8.041-.954-1.166-1.887-2.35-2.874-3.582" transform="translate(-28.202 -39.988)" fill="#6b1a73"/>
  </g>
</svg>
