<svg id="download_icon_button" xmlns="http://www.w3.org/2000/svg" xmlns:xlink="http://www.w3.org/1999/xlink" width="32.464" height="25.4" viewBox="0 0 32.464 25.4">
  <defs>
    <clipPath id="clip-path">
      <rect id="Rectangle_1259" data-name="Rectangle 1259" width="32.464" height="25.4" fill="none"/>
    </clipPath>
  </defs>
  <g id="Group_1867" data-name="Group 1867" clip-path="url(#clip-path)">
    <path id="Path_7717" data-name="Path 7717" d="M28.808,46.422a1.044,1.044,0,0,1-1.424.141,1,1,0,0,1-.147-.141l-4.453-5.238a.938.938,0,0,1,.146-1.361,1.041,1.041,0,0,1,.639-.217h8.907a.991.991,0,0,1,1.013.967.94.94,0,0,1-.227.61Z" transform="translate(-11.79 -21.379)" fill="#fff"/>
    <path id="Path_7718" data-name="Path 7718" d="M31.156,38.295H28.12a.99.99,0,0,1-1.012-.967v-7.74a.99.99,0,0,1,1.012-.968h3.036a.99.99,0,0,1,1.012.968v7.74a.99.99,0,0,1-1.012.967" transform="translate(-13.407 -17.166)" fill="#fff"/>
    <path id="Path_7719" data-name="Path 7719" d="M31.356,11.672h-.025a7.453,7.453,0,0,0-1.465-1.721,7.686,7.686,0,0,0-5.757-1.888A8.911,8.911,0,0,0,20.686,2.4,9.346,9.346,0,0,0,14.135.431,9.3,9.3,0,0,0,5.46,8.475a1.679,1.679,0,0,1-.193.1,7.784,7.784,0,0,0-2.954,2.012,7.208,7.208,0,0,0,.758,10.49c2.04,1.735,4.486,2.006,7.084,1.758L9.022,20.8v0a15.7,15.7,0,0,1-1.9-.169,5.224,5.224,0,0,1-4.16-3.519,4.855,4.855,0,0,1-.186-2.765h.007c.066-.177.131-.342.19-.509a5.23,5.23,0,0,1,1.421-2.162H4.381a5.425,5.425,0,0,1,2.385-1.289A1.106,1.106,0,0,0,7.727,9.2a7.414,7.414,0,0,1,.145-1.19A7.036,7.036,0,0,1,14.941,2.6a7.042,7.042,0,0,1,5.648,2.844A6.209,6.209,0,0,1,21.9,9.16c.023.917.622,1.336,1.556,1.173a6.321,6.321,0,0,1,1.417-.132,5.485,5.485,0,0,1,5.01,3.633c.059.168.124.332.19.509h.007a4.851,4.851,0,0,1-.186,2.765,5.224,5.224,0,0,1-4.16,3.519,15.7,15.7,0,0,1-1.9.169v0L22.7,22.834c2.6.248,5.043-.022,7.083-1.758a7.2,7.2,0,0,0,1.573-9.4" transform="translate(-0.193 -0.202)" fill="#fff"/>
    <path id="Path_7720" data-name="Path 7720" d="M31.356,11.672h-.025a7.453,7.453,0,0,0-1.465-1.721,7.686,7.686,0,0,0-5.757-1.888A8.911,8.911,0,0,0,20.686,2.4,9.346,9.346,0,0,0,14.135.431,9.3,9.3,0,0,0,5.46,8.475a1.679,1.679,0,0,1-.193.1,7.784,7.784,0,0,0-2.954,2.012,7.208,7.208,0,0,0,.758,10.49c2.04,1.735,4.486,2.006,7.084,1.758L9.022,20.8v0a15.7,15.7,0,0,1-1.9-.169,5.224,5.224,0,0,1-4.16-3.519,4.855,4.855,0,0,1-.186-2.765h.007c.066-.177.131-.342.19-.509a5.23,5.23,0,0,1,1.421-2.162H4.381a5.425,5.425,0,0,1,2.385-1.289A1.106,1.106,0,0,0,7.727,9.2a7.414,7.414,0,0,1,.145-1.19A7.036,7.036,0,0,1,14.941,2.6a7.042,7.042,0,0,1,5.648,2.844A6.209,6.209,0,0,1,21.9,9.16c.023.917.622,1.336,1.556,1.173a6.321,6.321,0,0,1,1.417-.132,5.485,5.485,0,0,1,5.01,3.633c.059.168.124.332.19.509h.007a4.851,4.851,0,0,1-.186,2.765,5.224,5.224,0,0,1-4.16,3.519,15.7,15.7,0,0,1-1.9.169v0L22.7,22.834c2.6.248,5.043-.022,7.083-1.758A7.2,7.2,0,0,0,31.356,11.672Z" transform="translate(-0.193 -0.202)" fill="none"/>
  </g>
</svg>
