<svg id="record_icons" xmlns="http://www.w3.org/2000/svg" xmlns:xlink="http://www.w3.org/1999/xlink" width="27.396" height="27.305" viewBox="0 0 27.396 27.305">
  <defs>
    <clipPath id="clip-path">
      <rect id="Rectangle_1482" data-name="Rectangle 1482" width="27.396" height="27.305" fill="none"/>
    </clipPath>
  </defs>
  <g id="Group_2121" data-name="Group 2121" clip-path="url(#clip-path)">
    <path id="Path_7771" data-name="Path 7771" d="M17.563,126.975q0,4.584,0,9.169a1.349,1.349,0,0,1-.974,1.378,2.283,2.283,0,0,1-.617.073q-5.314.006-10.627,0-1.875,0-3.751,0a2.825,2.825,0,0,1-.466-.037,1.358,1.358,0,0,1-1.091-1.089A2.779,2.779,0,0,1,0,136q0-9.025,0-18.051a2.072,2.072,0,0,1,.075-.616,1.308,1.308,0,0,1,1.124-.953,3.14,3.14,0,0,1,.467-.028q7.124,0,14.248,0a2.636,2.636,0,0,1,.62.057,1.348,1.348,0,0,1,1.026,1.366q0,2.774,0,5.548,0,1.823,0,3.647M8.7,128.326H3.491a2.232,2.232,0,0,0-.234.006.561.561,0,0,0-.5.46.542.542,0,0,0,.328.614,1.174,1.174,0,0,0,.406.058q5.208,0,10.416,0a1.851,1.851,0,0,0,.234-.006.576.576,0,0,0,.508-.568.563.563,0,0,0-.537-.563c-.069-.006-.139,0-.208,0H8.7m-.006-7.089h5.182a2.447,2.447,0,0,0,.26,0,.579.579,0,0,0,.518-.586.569.569,0,0,0-.529-.547c-.078-.007-.156,0-.234,0H3.526c-.078,0-.157,0-.234,0a.557.557,0,0,0-.539.559.563.563,0,0,0,.524.576c.086.008.174,0,.26,0H8.693m0,4.115H13.9a1.9,1.9,0,0,0,.26-.006.571.571,0,0,0-.16-1.132H3.4c-.035,0-.07,0-.1,0a.568.568,0,0,0-.022,1.134c.077.007.156,0,.234,0H8.689m.022,7.091H3.53c-.087,0-.174,0-.26,0a.559.559,0,0,0-.511.474.54.54,0,0,0,.341.607,1.239,1.239,0,0,0,.407.055q5.195,0,10.389,0a1.7,1.7,0,0,0,.26-.009.575.575,0,0,0,.493-.607.558.558,0,0,0-.548-.524c-.069,0-.139,0-.208,0H8.711" transform="translate(0 -110.292)" fill="#6b1a73"/>
    <path id="Path_7772" data-name="Path 7772" d="M114.95,79.414V79q0-8.074-.006-16.149a3.485,3.485,0,0,0-.147-1.074,2.5,2.5,0,0,0-2.441-1.689H101.588a1.442,1.442,0,0,1,1.391-1.887q7.332,0,14.664,0a1.391,1.391,0,0,1,1.461,1.458q0,9.168,0,18.337a1.371,1.371,0,0,1-1.4,1.428c-.859.009-1.719,0-2.579,0-.042,0-.085-.006-.172-.013" transform="translate(-96.24 -55.169)" fill="#6b1a73"/>
    <path id="Path_7773" data-name="Path 7773" d="M202.777,21.227v-.4q0-8.178,0-16.356a2.5,2.5,0,0,0-1.9-2.492,3.034,3.034,0,0,0-.746-.084q-5.548-.008-11.1,0h-.381A1.436,1.436,0,0,1,190.027,0c2.7.011,5.4,0,8.1,0h6.537a1.4,1.4,0,0,1,1.5,1.492q0,9.116,0,18.232a1.394,1.394,0,0,1-1.494,1.5h-1.9" transform="translate(-178.771 0)" fill="#6b1a73"/>
  </g>
</svg>
