<svg id="complete_report" xmlns="http://www.w3.org/2000/svg" xmlns:xlink="http://www.w3.org/1999/xlink" width="39.961" height="39.195" viewBox="0 0 39.961 39.195">
  <defs>
    <clipPath id="clip-path">
      <rect id="Rectangle_1515" data-name="Rectangle 1515" width="39.96" height="36.17" fill="none"/>
    </clipPath>
  </defs>
  <g id="Group_2303" data-name="Group 2303">
    <g id="Group_2190" data-name="Group 2190">
      <g id="Group_2189" data-name="Group 2189" clip-path="url(#clip-path)">
        <path id="Path_7852" data-name="Path 7852" d="M2.462,14.1c-.243.021-.425.034-.607.054a1.773,1.773,0,0,0-1.832,1.9q-.045,3.088,0,6.177a1.771,1.771,0,0,0,2.019,1.985,1.429,1.429,0,0,1,1.548,1.051A17.717,17.717,0,0,0,16.951,35.838a18.09,18.09,0,0,0,21-21.892,6.072,6.072,0,0,1-.081-.651c.306-.077.574-.131.834-.212a1.613,1.613,0,0,0,1.233-1.55c.029-2.243.038-4.487.006-6.731a1.662,1.662,0,0,0-1.732-1.684C37.5,3.067,36.786,3.1,36.074,3.1c-1.608,0-3.218.031-4.824-.02a3.156,3.156,0,0,1-1.47-.408A18.235,18.235,0,0,0,2.662,13.5c-.048.176-.116.347-.2.6M27.7,3.1c-2.286,0-4.571-.012-6.857,0-1.53.011-2.152.631-2.161,2.132q-.016,2.859,0,5.717c.007,1.609.633,2.235,2.247,2.244,1.794.009,3.588.018,5.382-.008a2.208,2.208,0,0,1,1.527.507c1.124.915,2.283,1.787,3.429,2.675.536.416,1.056.857,1.617,1.236s1.03.118,1.039-.569c0-.182-.049-.365-.065-.549q-.137-1.589-.268-3.173a1.844,1.844,0,0,1,.355-.1c.588-.01,1.179.03,1.762-.025.659-.062.908.2,1.056.831A16.984,16.984,0,0,1,35.481,25.6c-.25.521-.9,1.543-.9,1.543a9.072,9.072,0,0,1-6.047,1.95c-1.532,0-2.218-.918-2.224.594-.007,1.875-1.54,2.95-1.54,4.825l-4.646.386c-7.009.236-13.908-5-15.512-10.57h6c-.015.234-.023.385-.035.535-.087,1.072-.207,2.142-.252,3.215-.03.714.41.944,1.014.578a7.366,7.366,0,0,0,.666-.5c1.463-1.133,2.939-2.25,4.382-3.409a2.162,2.162,0,0,1,1.528-.5c.9.032,1.8.037,2.69-.006A1.736,1.736,0,0,0,22.486,22.4q.035-3.227,0-6.455a1.715,1.715,0,0,0-1.737-1.787c-.338-.028-.68-.013-1.02-.013H3.791A16.759,16.759,0,0,1,27.7,3.1" transform="translate(0 0)" fill="#030303"/>
        <path id="Path_7853" data-name="Path 7853" d="M117.87,109.81c.989,0,1.979,0,2.968,0,.4,0,.777-.075.781-.569s-.371-.6-.771-.6q-3.107-.006-6.215.006c-.415,0-.764.157-.742.628.02.418.353.533.731.532q1.623,0,3.247,0" transform="translate(-102.807 -88.596)" fill="#fff"/>
        <path id="Path_7854" data-name="Path 7854" d="M116.311,96.26c.523,0,1.045.013,1.567,0,.41-.013.746-.177.718-.648-.025-.424-.355-.533-.727-.532q-1.659,0-3.319.012c-.386,0-.687.162-.679.575s.306.58.688.586c.584.011,1.168,0,1.752,0v.008" transform="translate(-99.782 -77.533)" fill="#fff"/>
        <path id="Path_7855" data-name="Path 7855" d="M57.967,159.329c.748,0,1.5.013,2.244,0,.587-.013,1.068-.177,1.028-.648-.036-.424-.509-.533-1.041-.532q-2.376,0-4.753.012c-.553,0-.984.162-.973.575s.438.58.985.586c.836.011,1.672,0,2.509,0v.008" transform="translate(-31.396 -128.965)" fill="#fff"/>
        <path id="Path_7856" data-name="Path 7856" d="M78.939,175.411c.314,0,.629.013.942,0,.247-.013.449-.177.432-.648-.015-.424-.214-.533-.437-.532q-1,0-2,.012c-.232,0-.413.162-.408.575s.184.58.414.586c.351.011.7,0,1.053,0v.008" transform="translate(-54.739 -142.079)" fill="#fff"/>
        <path id="Path_7857" data-name="Path 7857" d="M19.916,49.588h3.061c.391,0,.792-.044.816-.537.027-.539-.362-.636-.812-.635q-3.061.007-6.122,0c-.406,0-.772.078-.774.575s.37.585.77.587c1.02,0,2.04,0,3.061,0v.005" transform="translate(13.179 -39.482)" fill="#fff"/>
        <path id="Path_7858" data-name="Path 7858" d="M19.916,35.76h3.061c.391,0,.792-.044.816-.537.027-.539-.362-.636-.812-.635q-3.061.007-6.122,0c-.406,0-.772.078-.774.575s.37.585.77.587c1.02,0,2.04,0,3.061,0v.005" transform="translate(13.179 -28.206)" fill="#fff"/>
        <path id="Path_7859" data-name="Path 7859" d="M69.135,33.231c.3-.082.6-.142.887-.249a3.238,3.238,0,0,0,1.648-1.393,3.03,3.03,0,0,0,.468-1.715,3.214,3.214,0,0,0-1.849-2.925,3.258,3.258,0,0,0-3.879.684,3.143,3.143,0,0,0-.7,3.409,3.24,3.24,0,0,0,2.649,2.148c.055.01.109.028.164.043ZM68.8,27.219a2.691,2.691,0,0,1,.093,5.381,2.739,2.739,0,0,1-2.784-2.62A2.71,2.71,0,0,1,68.8,27.219" transform="translate(-44.339 -21.682)" fill="#fff"/>
        <path id="Path_7860" data-name="Path 7860" d="M75.266,39.59a.415.415,0,0,0,.414-.407.41.41,0,0,0-.424-.412.416.416,0,0,0-.414.408.4.4,0,0,0,.425.41" transform="translate(-49.617 -31.618)" fill="#fff"/>
        <path id="Path_7861" data-name="Path 7861" d="M87.3,38.781a.4.4,0,0,0-.417.4.42.42,0,0,0,.84,0,.416.416,0,0,0-.423-.4" transform="translate(-63.896 -31.625)" fill="#fff"/>
        <path id="Path_7862" data-name="Path 7862" d="M76.161,48.93a1.731,1.731,0,0,0,1.5-.957.247.247,0,0,0-.212-.385.259.259,0,0,0-.235.159,1.234,1.234,0,0,1-.994.669,1.248,1.248,0,0,1-1.239-.607.482.482,0,0,0-.183-.174.218.218,0,0,0-.262.067.247.247,0,0,0-.027.294,1.712,1.712,0,0,0,.555.619,1.865,1.865,0,0,0,1.1.313" transform="translate(-51.568 -38.807)" fill="#fff"/>
        <path id="Path_7863" data-name="Path 7863" d="M167.412,92.595c.3-.082.6-.142.887-.249a3.238,3.238,0,0,0,1.648-1.393,3.03,3.03,0,0,0,.468-1.715,3.214,3.214,0,0,0-1.849-2.925,3.257,3.257,0,0,0-3.879.684,3.143,3.143,0,0,0-.7,3.409,3.24,3.24,0,0,0,2.649,2.148c.055.01.109.028.164.043Zm-.337-6.012a2.691,2.691,0,0,1,.093,5.381,2.739,2.739,0,0,1-2.784-2.62,2.71,2.71,0,0,1,2.691-2.761" transform="translate(-160.864 -70.093)" fill="#fff"/>
        <path id="Path_7864" data-name="Path 7864" d="M174.4,109.267h-1.18a1.083,1.083,0,0,0-.2.013.265.265,0,0,0-.227.263.288.288,0,0,0,.252.23,3.133,3.133,0,0,0,.341.021q1.051,0,2.1,0c.1,0,.2-.008.306-.018a.285.285,0,0,0,.267-.246.269.269,0,0,0-.241-.253,1.085,1.085,0,0,0-.187-.01H174.4Z" transform="translate(-168.178 -89.105)" fill="#fff"/>
        <path id="Path_7865" data-name="Path 7865" d="M173.543,98.954a.415.415,0,0,0,.414-.407.41.41,0,0,0-.424-.412.416.416,0,0,0-.414.408.4.4,0,0,0,.425.41" transform="translate(-166.142 -80.028)" fill="#fff"/>
        <path id="Path_7866" data-name="Path 7866" d="M185.577,98.145a.4.4,0,0,0-.417.4.42.42,0,0,0,.84,0,.416.416,0,0,0-.423-.4" transform="translate(-180.422 -80.036)" fill="#fff"/>
      </g>
    </g>
    <g id="Group_2075" data-name="Group 2075" transform="translate(21.471 22.431)">
      <path id="Path_7758" data-name="Path 7758" d="M125.438,134.045a8.382,8.382,0,1,1,8.4-8.376,8.369,8.369,0,0,1-8.4,8.376" transform="translate(-117.055 -117.282)" fill="#030303"/>
      <path id="Path_7759" data-name="Path 7759" d="M32.532,29.542l-4.38,4.312-2.136-2.007L24.55,33.483l3.573,3.549,6.039-5.954Z" transform="translate(-20.355 -24.905)" fill="#fff"/>
    </g>
  </g>
</svg>
