<svg id="edit" xmlns="http://www.w3.org/2000/svg" xmlns:xlink="http://www.w3.org/1999/xlink" width="33.367" height="29.57" viewBox="0 0 33.367 29.57">
  <defs>
    <clipPath id="clip-path">
      <rect id="Rectangle_1511" data-name="Rectangle 1511" width="26.285" height="25.333" fill="#020202" stroke="#6b1a73" stroke-width="0.5"/>
    </clipPath>
    <clipPath id="clip-path-2">
      <rect id="Rectangle_1452" data-name="Rectangle 1452" width="9.603" height="9.115" fill="#020202"/>
    </clipPath>
  </defs>
  <g id="Group_2171" data-name="Group 2171" clip-path="url(#clip-path)">
    <path id="Path_7821" data-name="Path 7821" d="M5.367,7.6V9.314c-.555.027-1.063.056-1.572.075a1.663,1.663,0,0,0-1.834,1.583,17.674,17.674,0,0,0-.013,1.95H24.2a3.807,3.807,0,0,0-.3-2.941c-.732-1.017-1.912-.369-2.972-.731-.025-.491-.053-1.03-.08-1.554,3.723-.964,5.45,1.338,5.433,3.84q-.054,7.762,0,15.525A3.846,3.846,0,0,1,22.2,31.116c-6.061-.1-12.125-.026-18.187-.034C1.453,31.078.046,29.666.042,27.1.034,22.042.133,16.977,0,11.918-.071,9.1,1.584,6.883,5.367,7.6M2.016,14.977c-.034.327-.082.581-.083.834-.005,3.753-.014,7.5,0,11.257.006,1.454.593,2.118,1.89,2.12q9.326.019,18.652,0a1.644,1.644,0,0,0,1.828-1.7c.011-.112.013-.225.013-.337q0-5.685,0-11.37a6.073,6.073,0,0,0-.112-.8Z" transform="translate(0 -5.783)" fill="#020202" stroke="#020202" stroke-width="0.5"/>
    <rect id="Rectangle_1510" data-name="Rectangle 1510" width="8.926" height="1.755" transform="translate(8.676 1.759)" fill="#020202"/>
    <path id="Path_7822" data-name="Path 7822" d="M26.785,2.556a6.612,6.612,0,0,1,.037-1.67,1.4,1.4,0,0,1,.831-.858.8.8,0,0,1,.979.825c.054,1.154.054,2.314.009,3.468a.87.87,0,0,1-.973.878.885.885,0,0,1-.886-.964c-.018-.559,0-1.12,0-1.68h.006" transform="translate(-20.7 0)" fill="#020202" stroke="#020202" stroke-width="0.5"/>
    <path id="Path_7823" data-name="Path 7823" d="M82.954,2.672c0,.523.016,1.046,0,1.568a.936.936,0,1,1-1.871-.016c-.02-1.082-.015-2.165,0-3.247a.881.881,0,0,1,.884-.965c.635-.026.955.376.984.982.026.559.005,1.12.006,1.679" transform="translate(-62.737 -0.008)" fill="#020202" stroke="#020202" stroke-width="0.5"/>
  </g>
  <g id="Group_2172" data-name="Group 2172" transform="translate(8.342 11.314)">
    <g id="Group_2073" data-name="Group 2073" transform="translate(0 0)" clip-path="url(#clip-path-2)">
      <path id="Path_7760" data-name="Path 7760" d="M4.979.11l1.33,2.683a.2.2,0,0,0,.15.108l2.973.43a.2.2,0,0,1,.11.338L7.391,5.758a.2.2,0,0,0-.057.175l.508,2.949a.2.2,0,0,1-.288.209L4.894,7.7a.2.2,0,0,0-.185,0L2.049,9.091a.2.2,0,0,1-.288-.209l.508-2.949a.2.2,0,0,0-.057-.175L.06,3.669a.2.2,0,0,1,.11-.338L3.144,2.9a.2.2,0,0,0,.15-.108L4.623.11a.2.2,0,0,1,.356,0" transform="translate(0 0.001)" fill="#020202"/>
    </g>
  </g>
  <ellipse id="Ellipse_412" data-name="Ellipse 412" cx="7.321" cy="7.321" rx="7.321" ry="7.321" transform="translate(18.725 14.927)" fill="#020202"/>
  <path id="Exclusion_1" data-name="Exclusion 1" d="M4.32,1.519.194,5.645,0,7.381a.368.368,0,0,0,.4.4l1.736-.192L6.269,3.468a.185.185,0,0,0,0-.258L4.581,1.522A.186.186,0,0,0,4.32,1.519ZM7.57,1.13,6.655.214a.727.727,0,0,0-1.031,0l-.7.7a.185.185,0,0,0,0,.258L6.609,2.863a.185.185,0,0,0,.258,0l.7-.7A.732.732,0,0,0,7.57,1.13Z" transform="translate(22.781 18.296)" fill="#fff"/>
</svg>
