<svg xmlns="http://www.w3.org/2000/svg" xmlns:xlink="http://www.w3.org/1999/xlink" width="48.803" height="40.785" viewBox="0 0 48.803 40.785">
  <defs>
    <clipPath id="clip-path">
      <rect id="Rectangle_1514" data-name="Rectangle 1514" width="23.48" height="20.136" fill="#030303"/>
    </clipPath>
  </defs>
  <g id="Upload_docs" transform="translate(1)">
    <g id="Group_2186" data-name="Group 2186" transform="translate(0 6.375)">
      <path id="Path_7840" data-name="Path 7840" d="M0,14.98Q0,9.446,0,3.912A4.029,4.029,0,0,1,.779,1.45,3.5,3.5,0,0,1,2.055.375,3.449,3.449,0,0,1,3.432.019C3.607.011,3.783,0,3.959,0Q12.4,0,20.847,0a3.61,3.61,0,0,1,2,.556,3.7,3.7,0,0,1,1.193,1.265,3.941,3.941,0,0,1,.518,1.813c.013.243.018.486.019.73q0,10.787,0,21.574a4.5,4.5,0,0,1-.356,1.847,3.677,3.677,0,0,1-.7,1.048,3.389,3.389,0,0,1-1.614.985,3.951,3.951,0,0,1-1,.133q-8.616,0-17.231,0a3.606,3.606,0,0,1-1.66-.381,3.6,3.6,0,0,1-1-.777A3.866,3.866,0,0,1,.034,26.58,4.559,4.559,0,0,1,0,26.018Q0,20.5,0,14.98" transform="translate(0 0)" fill="none" stroke="#030303" stroke-width="2"/>
      <path id="Path_7841" data-name="Path 7841" d="M126,135.174a8.946,8.946,0,1,1,8.97-8.94,8.933,8.933,0,0,1-8.97,8.94" transform="translate(-100.746 -100.764)" fill="#030303"/>
      <g id="Group_2181" data-name="Group 2181" transform="translate(21.32 19.651)">
        <g id="Group_1858" data-name="Group 1858">
          <path id="Polygon_15" data-name="Polygon 15" d="M3.263,1.429a1,1,0,0,1,1.715,0L7.333,5.354a1,1,0,0,1-.857,1.515H1.766A1,1,0,0,1,.909,5.354Z" fill="#fff"/>
          <rect id="Rectangle_1252" data-name="Rectangle 1252" width="2.747" height="6.181" rx="1" transform="translate(2.747 4.121)" fill="#fff"/>
        </g>
      </g>
      <g id="Group_2183" data-name="Group 2183" transform="translate(4.353 5.939)">
        <path id="Path_7241" data-name="Path 7241" d="M3.566,1.5H6.487a.626.626,0,0,0,.365-.1A.715.715,0,0,0,7.129.819a.73.73,0,0,0-.4-.778A.815.815,0,0,0,6.473,0Q3.566,0,.66,0A.694.694,0,0,0,.582,0,.559.559,0,0,0,.071.378a1,1,0,0,0,0,.735.516.516,0,0,0,.31.329A.889.889,0,0,0,.664,1.5c.967,0,1.935,0,2.9,0" transform="translate(0 0)" fill="#030303"/>
        <path id="Path_7851" data-name="Path 7851" d="M3.566,1.5H6.487a.626.626,0,0,0,.365-.1A.715.715,0,0,0,7.129.819a.73.73,0,0,0-.4-.778A.815.815,0,0,0,6.473,0Q3.566,0,.66,0A.694.694,0,0,0,.582,0,.559.559,0,0,0,.071.378a1,1,0,0,0,0,.735.516.516,0,0,0,.31.329A.889.889,0,0,0,.664,1.5c.967,0,1.935,0,2.9,0" transform="translate(0 4.117)" fill="#030303"/>
        <path id="Path_7842" data-name="Path 7842" d="M3.566,1.5H6.487a.626.626,0,0,0,.365-.1A.715.715,0,0,0,7.129.819a.73.73,0,0,0-.4-.778A.815.815,0,0,0,6.473,0Q3.566,0,.66,0A.694.694,0,0,0,.582,0,.559.559,0,0,0,.071.378a1,1,0,0,0,0,.735.516.516,0,0,0,.31.329A.889.889,0,0,0,.664,1.5c.967,0,1.935,0,2.9,0" transform="translate(4.065 0)" fill="#030303"/>
        <path id="Path_7850" data-name="Path 7850" d="M3.566,1.5H6.487a.626.626,0,0,0,.365-.1A.715.715,0,0,0,7.129.819a.73.73,0,0,0-.4-.778A.815.815,0,0,0,6.473,0Q3.566,0,.66,0A.694.694,0,0,0,.582,0,.559.559,0,0,0,.071.378a1,1,0,0,0,0,.735.516.516,0,0,0,.31.329A.889.889,0,0,0,.664,1.5c.967,0,1.935,0,2.9,0" transform="translate(4.065 4.117)" fill="#030303"/>
        <path id="Path_7313" data-name="Path 7313" d="M3.566,1.5H6.487a.626.626,0,0,0,.365-.1A.715.715,0,0,0,7.129.819a.73.73,0,0,0-.4-.778A.815.815,0,0,0,6.473,0Q3.566,0,.66,0A.694.694,0,0,0,.582,0,.559.559,0,0,0,.071.378a1,1,0,0,0,0,.735.516.516,0,0,0,.31.329A.889.889,0,0,0,.664,1.5c.967,0,1.935,0,2.9,0" transform="translate(0 15.998)" fill="#030303"/>
        <path id="Path_7844" data-name="Path 7844" d="M3.566,1.5H6.487a.626.626,0,0,0,.365-.1A.715.715,0,0,0,7.129.819a.73.73,0,0,0-.4-.778A.815.815,0,0,0,6.473,0Q3.566,0,.66,0A.694.694,0,0,0,.582,0,.559.559,0,0,0,.071.378a1,1,0,0,0,0,.735.516.516,0,0,0,.31.329A.889.889,0,0,0,.664,1.5c.967,0,1.935,0,2.9,0" transform="translate(4.065 15.998)" fill="#030303"/>
        <g id="Group_2182" data-name="Group 2182" transform="translate(0 0)">
          <path id="Path_7845" data-name="Path 7845" d="M3.566,1.5H6.487a.626.626,0,0,0,.365-.1A.715.715,0,0,0,7.129.819a.73.73,0,0,0-.4-.778A.815.815,0,0,0,6.473,0Q3.566,0,.66,0A.694.694,0,0,0,.582,0,.559.559,0,0,0,.071.378a1,1,0,0,0,0,.735.516.516,0,0,0,.31.329A.889.889,0,0,0,.664,1.5c.967,0,1.935,0,2.9,0" transform="translate(8.804 0)" fill="#030303"/>
          <path id="Path_7312" data-name="Path 7312" d="M3.566,1.5H6.487a.626.626,0,0,0,.365-.1A.715.715,0,0,0,7.129.819a.73.73,0,0,0-.4-.778A.815.815,0,0,0,6.473,0Q3.566,0,.66,0A.694.694,0,0,0,.582,0,.559.559,0,0,0,.071.378a1,1,0,0,0,0,.735.516.516,0,0,0,.31.329A.889.889,0,0,0,.664,1.5c.967,0,1.935,0,2.9,0" transform="translate(0 7.999)" fill="#030303"/>
          <path id="Path_7843" data-name="Path 7843" d="M3.566,1.5H6.487a.626.626,0,0,0,.365-.1A.715.715,0,0,0,7.129.819a.73.73,0,0,0-.4-.778A.815.815,0,0,0,6.473,0Q3.566,0,.66,0A.694.694,0,0,0,.582,0,.559.559,0,0,0,.071.378a1,1,0,0,0,0,.735.516.516,0,0,0,.31.329A.889.889,0,0,0,.664,1.5c.967,0,1.935,0,2.9,0" transform="translate(4.065 7.999)" fill="#030303"/>
          <path id="Path_7846" data-name="Path 7846" d="M3.566,1.5H6.487a.626.626,0,0,0,.365-.1A.715.715,0,0,0,7.129.819a.73.73,0,0,0-.4-.778A.815.815,0,0,0,6.473,0Q3.566,0,.66,0A.694.694,0,0,0,.582,0,.559.559,0,0,0,.071.378a1,1,0,0,0,0,.735.516.516,0,0,0,.31.329A.889.889,0,0,0,.664,1.5c.967,0,1.935,0,2.9,0" transform="translate(8.804 7.999)" fill="#030303"/>
          <path id="Path_7847" data-name="Path 7847" d="M3.566,1.5H6.487a.626.626,0,0,0,.365-.1A.715.715,0,0,0,7.129.819a.73.73,0,0,0-.4-.778A.815.815,0,0,0,6.473,0Q3.566,0,.66,0A.694.694,0,0,0,.582,0,.559.559,0,0,0,.071.378a1,1,0,0,0,0,.735.516.516,0,0,0,.31.329A.889.889,0,0,0,.664,1.5c.967,0,1.935,0,2.9,0" transform="translate(8.804 15.998)" fill="#030303"/>
        </g>
        <g id="Group_2187" data-name="Group 2187" transform="translate(0 4.117)">
          <path id="Path_7845-2" data-name="Path 7845" d="M3.566,1.5H6.487a.626.626,0,0,0,.365-.1A.715.715,0,0,0,7.129.819a.73.73,0,0,0-.4-.778A.815.815,0,0,0,6.473,0Q3.566,0,.66,0A.694.694,0,0,0,.582,0,.559.559,0,0,0,.071.378a1,1,0,0,0,0,.735.516.516,0,0,0,.31.329A.889.889,0,0,0,.664,1.5c.967,0,1.935,0,2.9,0" transform="translate(8.804 0)" fill="#030303"/>
          <path id="Path_7312-2" data-name="Path 7312" d="M3.566,1.5H6.487a.626.626,0,0,0,.365-.1A.715.715,0,0,0,7.129.819a.73.73,0,0,0-.4-.778A.815.815,0,0,0,6.473,0Q3.566,0,.66,0A.694.694,0,0,0,.582,0,.559.559,0,0,0,.071.378a1,1,0,0,0,0,.735.516.516,0,0,0,.31.329A.889.889,0,0,0,.664,1.5c.967,0,1.935,0,2.9,0" transform="translate(0 7.999)" fill="#030303"/>
          <path id="Path_7843-2" data-name="Path 7843" d="M3.566,1.5H6.487a.626.626,0,0,0,.365-.1A.715.715,0,0,0,7.129.819a.73.73,0,0,0-.4-.778A.815.815,0,0,0,6.473,0Q3.566,0,.66,0A.694.694,0,0,0,.582,0,.559.559,0,0,0,.071.378a1,1,0,0,0,0,.735.516.516,0,0,0,.31.329A.889.889,0,0,0,.664,1.5c.967,0,1.935,0,2.9,0" transform="translate(4.065 7.999)" fill="#030303"/>
          <path id="Path_7846-2" data-name="Path 7846" d="M3.566,1.5H6.487a.626.626,0,0,0,.365-.1A.715.715,0,0,0,7.129.819a.73.73,0,0,0-.4-.778A.815.815,0,0,0,6.473,0Q3.566,0,.66,0A.694.694,0,0,0,.582,0,.559.559,0,0,0,.071.378a1,1,0,0,0,0,.735.516.516,0,0,0,.31.329A.889.889,0,0,0,.664,1.5c.967,0,1.935,0,2.9,0" transform="translate(8.804 7.999)" fill="#030303"/>
        </g>
      </g>
    </g>
    <g id="Group_2185" data-name="Group 2185" transform="matrix(0.978, 0.208, -0.208, 0.978, 24.836, 0)">
      <g id="Group_2184" data-name="Group 2184" clip-path="url(#clip-path)">
        <path id="Path_7848" data-name="Path 7848" d="M3.094,15.747H2.37c-.77,0,.2-.715.124-1.469-.1-.965-.221-2.125-.308-3.092C1.964,8.721.385,6.8.162,4.339.109,3.746.04,3.155,0,2.562A1.089,1.089,0,0,1,1.091,1.285C2.926,1.121,4.763.973,6.6.82l6.574-.55C14.239.18,15.3.082,16.371.006a1.182,1.182,0,0,1,1.4,1.237c.056.691.119,1.381.184,2.072.013.136.049.27.082.445.753.046,1.5.1,2.247.137.653.035,1.309.034,1.96.1A1.206,1.206,0,0,1,23.476,5.42c-.133,2.613-.29,5.224-.43,7.836-.1,1.84-.186,3.682-.28,5.523a1.271,1.271,0,0,1-1.444,1.357c-.159,0-.317-.006-.476-.014q-2.405-.118-4.81-.237-5.879-.285-11.758-.569A1.231,1.231,0,0,1,2.972,17.9c.006-.357.029-.713.049-1.069.019-.335.045-.669.073-1.08m17.959.723.117-.042q.24-4.565.479-9.129c.015-.3.038-.594.03-.891-.012-.47-.17-.632-.647-.666-.632-.045-1.265-.076-1.9-.108q-3.323-.164-6.646-.324c-2.077-.1-4.154-.2-6.232-.282-.794-.032-.914.1-.953.914-.054,1.108-.1,2.216-.159,3.324-.1,1.9-.211,3.8-.314,5.694-.013.237,0,.476,0,.806C6.66,13.8,8.41,11.906,10.168,10.025c.7-.752,1.264-.735,1.941.034s1.351,1.556,2.041,2.321a.806.806,0,0,0,1.25.146c.263-.177.509-.379.774-.552a.786.786,0,0,1,1.2.147c.332.367.641.755.961,1.133l2.717,3.216M16.428,3.661c-.042-.461-.076-.869-.118-1.276-.062-.595-.186-.715-.8-.674-1.126.074-2.251.168-3.377.26q-4.884.4-9.768.808c-.606.05-.754.224-.7.826.179,2.032.351,4.064.532,6.1.08.9.174,1.79.276,2.824.365-.6.842-.942.872-1.583.1-2.157.225-4.312.339-6.468A1.26,1.26,0,0,1,5.1,3.152c.554.015,1.109.042,1.663.069q4.362.218,8.725.438c.291.014.583,0,.943,0" transform="translate(0 0)" fill="#030303"/>
        <path id="Path_7849" data-name="Path 7849" d="M1.838,3.716A1.824,1.824,0,0,1,0,1.869,1.868,1.868,0,0,1,1.836,0,1.869,1.869,0,0,1,3.7,1.9,1.83,1.83,0,0,1,1.838,3.716" transform="translate(16.016 6.687)" fill="#030303"/>
      </g>
    </g>
  </g>
</svg>
